<?xml version="1.0" standalone="yes"?>

<svg version="1.1" viewBox="0.0 0.0 873.5301837270341 412.6692913385827" fill="none" stroke="none" stroke-linecap="square" stroke-miterlimit="10" xmlns="http://www.w3.org/2000/svg" xmlns:xlink="http://www.w3.org/1999/xlink"><clipPath id="p.0"><path d="m0 0l873.5302 0l0 412.66928l-873.5302 0l0 -412.66928z" clip-rule="nonzero"></path></clipPath><g clip-path="url(#p.0)"><path fill="#000000" fill-opacity="0.0" d="m0 0l873.5302 0l0 412.66928l-873.5302 0z" fill-rule="evenodd"></path><path fill="#000000" fill-opacity="0.0" d="m532.49603 378.02887l155.67456 0l0 -190.70079l46.70343 0l0 188.10762l49.29657 0" fill-rule="evenodd"></path><path stroke="#000000" stroke-width="16.0" stroke-linejoin="round" stroke-linecap="butt" d="m532.49603 378.02887l155.67456 0l0 -190.70079l46.70343 0l0 188.10762l49.29657 0" fill-rule="evenodd"></path><path fill="#000000" fill-opacity="0.0" d="m0 18.48819l919.1181 0l0 87.1811l-919.1181 0z" fill-rule="evenodd"></path><path fill="#0000ff" d="m68.0625 119.648186l-46.59375 0l0 -12.1875l14.71875 0l0 -36.890625l-14.71875 0l0 -11.390625q3.375 0 6.46875 -0.390625q3.09375 -0.40625 5.15625 -1.390625q2.4375 -1.171875 3.65625 -3.046875q1.21875 -1.875 1.40625 -4.6875l15.515625 0l0 57.796875l14.390625 0l0 12.1875zm105.84375 0l-19.640625 0l-14.765625 -22.921875l-4.59375 5.578125l0 17.34375l-16.875 0l0 -72.9375l16.875 0l0 43.546875l18.1875 -23.25l19.453125 0l-18.9375 22.6875l20.296875 29.953125zm25.40625 0l-16.875 0l0 -72.9375l16.875 0l0 72.9375zm32.8125 0l-16.875 0l0 -52.640625l16.875 0l0 52.640625zm0.46875 -60.140625l-17.8125 0l0 -12.796875l17.8125 0l0 12.796875zm71.34375 60.140625l-19.640625 0l-14.765625 -22.921875l-4.59375 5.578125l0 17.34375l-16.875 0l0 -72.9375l16.875 0l0 43.546875l18.1875 -23.25l19.453125 0l-18.9375 22.6875l20.296875 29.953125zm223.6875 0l-46.59375 0l0 -12.1875l14.71875 0l0 -36.890625l-14.71875 0l0 -11.390625q3.375 0 6.46875 -0.390625q3.09375 -0.40625 5.15625 -1.390625q2.4375 -1.171875 3.65625 -3.046875q1.21875 -1.875 1.40625 -4.6875l15.515625 0l0 57.796875l14.390625 0l0 12.1875zm72.09375 -27.046875q0 6.515625 -2.0 11.859375q-1.984375 5.34375 -5.21875 8.8125q-3.375 3.65625 -7.640625 5.53125q-4.265625 1.875 -9.140625 1.875q-4.5 0 -7.640625 -0.96875q-3.140625 -0.953125 -6.421875 -2.6875l0 21.937492l-16.875 0l0 -71.95312l16.875 0l0 5.484375q3.890625 -3.09375 7.9375 -5.015625q4.0625 -1.921875 9.359375 -1.921875q9.84375 0 15.296875 7.21875q5.46875 7.21875 5.46875 19.828125zm-17.390625 0.328125q0 -7.6875 -2.625 -11.15625q-2.625 -3.46875 -8.296875 -3.46875q-2.390625 0 -4.921875 0.734375q-2.53125 0.71875 -4.828125 2.078125l0 26.484375q1.6875 0.65625 3.609375 0.84375q1.921875 0.1875 3.796875 0.1875q6.703125 0 9.984375 -3.90625q3.28125 -3.921875 3.28125 -11.796875zm82.03125 26.71875l-16.875 0l0 -5.8125q-4.6875 3.5625 -8.578125 5.421875q-3.890625 1.84375 -9.28125 1.84375q-8.71875 0 -13.4375 -5.015625q-4.703125 -5.015625 -4.703125 -14.8125l0 -34.265625l16.96875 0l0 26.109375q0 3.984375 0.25 6.640625q0.265625 2.640625 1.203125 4.375q0.890625 1.734375 2.6875 2.53125q1.8125 0.796875 5.046875 0.796875q2.15625 0 4.78125 -0.796875q2.625 -0.796875 5.0625 -2.34375l0 -37.3125l16.875 0l0 52.640625zm32.8125 0l-16.875 0l0 -72.9375l16.875 0l0 72.9375zm49.59375 -0.46875q-2.71875 0.703125 -5.765625 1.09375q-3.046875 0.40625 -7.453125 0.40625q-9.84375 0 -14.65625 -3.984375q-4.796875 -3.984375 -4.796875 -13.640625l0 -24.609375l-6.9375 0l0 -11.4375l6.9375 0l0 -15.046875l16.875 0l0 15.046875l15.796875 0l0 11.4375l-15.796875 0l0 18.65625q0 2.765625 0.046875 4.828125q0.046875 2.0625 0.75 3.703125q0.65625 1.640625 2.3125 2.609375q1.671875 0.953125 4.859375 0.953125q1.3125 0 3.4375 -0.5625q2.140625 -0.5625 2.984375 -1.03125l1.40625 0l0 11.578125zm55.828125 -16.21875q0 8.15625 -7.3125 13.15625q-7.3125 4.984375 -20.015625 4.984375q-7.03125 0 -12.75 -1.3125q-5.71875 -1.3125 -9.1875 -2.90625l0 -13.875l1.546875 0q1.265625 0.890625 2.921875 1.953125q1.671875 1.046875 4.71875 2.265625q2.625 1.078125 5.953125 1.859375q3.328125 0.765625 7.125 0.765625q4.96875 0 7.359375 -1.09375q2.390625 -1.109375 2.390625 -3.265625q0 -1.921875 -1.40625 -2.78125q-1.40625 -0.875 -5.34375 -1.671875q-1.875 -0.421875 -5.09375 -0.90625q-3.203125 -0.5 -5.828125 -1.203125q-7.171875 -1.875 -10.640625 -5.828125q-3.46875 -3.96875 -3.46875 -9.875q0 -7.59375 7.1875 -12.625q7.203125 -5.046875 19.671875 -5.046875q5.90625 0 11.3125 1.203125q5.421875 1.1875 8.46875 2.546875l0 13.3125l-1.453125 0q-3.75 -2.578125 -8.5625 -4.1875q-4.796875 -1.625 -9.71875 -1.625q-4.078125 0 -6.875 1.125q-2.78125 1.125 -2.78125 3.1875q0 1.875 1.265625 2.859375q1.265625 0.984375 5.953125 1.96875q2.578125 0.515625 5.546875 1.015625q2.984375 0.484375 5.984375 1.234375q6.65625 1.734375 9.84375 5.46875q3.1875 3.71875 3.1875 9.296875zm63.65625 16.6875l-16.875 0l0 -5.8125q-4.6875 3.5625 -8.578125 5.421875q-3.890625 1.84375 -9.28125 1.84375q-8.71875 0 -13.4375 -5.015625q-4.703125 -5.015625 -4.703125 -14.8125l0 -34.265625l16.96875 0l0 26.109375q0 3.984375 0.25 6.640625q0.265625 2.640625 1.203125 4.375q0.890625 1.734375 2.6875 2.53125q1.8125 0.796875 5.046875 0.796875q2.15625 0 4.78125 -0.796875q2.625 -0.796875 5.0625 -2.34375l0 -37.3125l16.875 0l0 52.640625z" fill-rule="nonzero"></path><path fill="#0000ff" d="m336.8294 79.18898l93.25983 0l0 -12.267723l24.53543 24.535439l-24.53543 24.53543l0 -12.267715l-93.25983 0z" fill-rule="evenodd"></path><path stroke="#0000ff" stroke-width="8.0" stroke-linejoin="round" stroke-linecap="butt" d="m336.8294 79.18898l93.25983 0l0 -12.267723l24.53543 24.535439l-24.53543 24.53543l0 -12.267715l-93.25983 0z" fill-rule="evenodd"></path><path fill="#000000" fill-opacity="0.0" d="m100.04199 254.60367l221.16534 -0.31495667" fill-rule="evenodd"></path><path stroke="#cc0000" stroke-width="24.0" stroke-linejoin="round" stroke-linecap="butt" d="m100.04199 254.60367l221.16534 -0.31495667" fill-rule="evenodd"></path><path fill="#000000" fill-opacity="0.0" d="m176.30446 208.20998l77.574814 0l0 46.078735l-77.574814 0z" fill-rule="evenodd"></path><path stroke="#cc0000" stroke-width="24.0" stroke-linejoin="round" stroke-linecap="butt" d="m176.30446 208.20998l77.574814 0l0 46.078735l-77.574814 0z" fill-rule="evenodd"></path><path fill="#000000" fill-opacity="0.0" d="m395.55905 316.51706l-71.37009 0.7559204" fill-rule="evenodd"></path><path stroke="#cc0000" stroke-width="24.0" stroke-linejoin="round" stroke-linecap="butt" d="m395.55905 316.51706l-71.37009 0.7559204" fill-rule="evenodd"></path><path fill="#000000" fill-opacity="0.0" d="m324.18896 316.89502l0 0c0 13.550537 -11.986053 24.53543 -26.771637 24.53543l0 0c-14.7855835 0 -26.771667 -10.984894 -26.771667 -24.53543l0 0c0 -13.550537 11.986084 -24.53543 26.771667 -24.53543l0 0c14.7855835 0 26.771637 10.984894 26.771637 24.53543z" fill-rule="evenodd"></path><path stroke="#cc0000" stroke-width="24.0" stroke-linejoin="round" stroke-linecap="butt" d="m324.18896 316.89502l0 0c0 13.550537 -11.986053 24.53543 -26.771637 24.53543l0 0c-14.7855835 0 -26.771667 -10.984894 -26.771667 -24.53543l0 0c0 -13.550537 11.986084 -24.53543 26.771667 -24.53543l0 0c14.7855835 0 26.771637 10.984894 26.771637 24.53543z" fill-rule="evenodd"></path><path fill="#000000" fill-opacity="0.0" d="m26.4042 317.27298l71.37008 -0.7559204" fill-rule="evenodd"></path><path stroke="#cc0000" stroke-width="24.0" stroke-linejoin="round" stroke-linecap="butt" d="m26.4042 317.27298l71.37008 -0.7559204" fill-rule="evenodd"></path><path fill="#000000" fill-opacity="0.0" d="m97.77428 316.89502l0 0c0 -13.550537 11.986076 -24.53543 26.771652 -24.53543l0 0c14.7855835 0 26.771652 10.984894 26.771652 24.53543l0 0c0 13.550537 -11.986069 24.53543 -26.771652 24.53543l0 0c-14.785576 0 -26.771652 -10.984894 -26.771652 -24.53543z" fill-rule="evenodd"></path><path stroke="#cc0000" stroke-width="24.0" stroke-linejoin="round" stroke-linecap="butt" d="m97.77428 316.89502l0 0c0 -13.550537 11.986076 -24.53543 26.771652 -24.53543l0 0c14.7855835 0 26.771652 10.984894 26.771652 24.53543l0 0c0 13.550537 -11.986069 24.53543 -26.771652 24.53543l0 0c-14.785576 0 -26.771652 -10.984894 -26.771652 -24.53543z" fill-rule="evenodd"></path></g></svg>

