<svg version="1.1" viewBox="0.0 0.0 802.9737532808399 447.03674540682414" fill="none" stroke="none" stroke-linecap="square" stroke-miterlimit="10" xmlns:xlink="http://www.w3.org/1999/xlink" xmlns="http://www.w3.org/2000/svg"><clipPath id="p.0"><path d="m0 0l802.97375 0l0 447.03674l-802.97375 0l0 -447.03674z" clip-rule="nonzero"/></clipPath><g clip-path="url(#p.0)"><path fill="#000000" fill-opacity="0.0" d="m0 0l802.97375 0l0 447.03674l-802.97375 0z" fill-rule="evenodd"/><path fill="#000000" fill-opacity="0.0" d="m39.39895 298.9239l788.8504 0l0 80.09448l-788.8504 0z" fill-rule="evenodd"/><path fill="#163d24" d="m131.02396 379.0539q0 11.6875 -3.0 21.75q-3.0000076 10.0625 -9.125008 16.9375q-6.625 7.4375 -16.4375 11.15625q-9.8125 3.71875 -22.875 3.71875q-4.625 0 -10.0 -0.5625q-5.375 -0.5625 -7.0625 -1.0l0 -18.3125l2.5 0q1.875 0.875 5.34375 1.875q3.46875 1.0 9.46875 1.0q4.875 0 9.5625 -1.21875q4.6875 -1.21875 8.0625 -3.84375q3.6875 -2.8125 6.0625 -7.03125q2.375 -4.21875 3.1875 -10.15625q-5.4375 3.125 -10.09375 4.78125q-4.65625 1.65625 -11.59375 1.65625q-5.25 0 -10.03125 -1.28125q-4.78125 -1.28125 -8.71875 -3.96875q-5.1875 -3.6875 -8.28125 -9.71875q-3.09375 -6.03125 -3.09375 -15.21875q0 -14.9375 10.40625 -24.34375q10.40625 -9.40625 27.28125 -9.40625q8.6875 0 15.40625 2.28125q6.71875 2.28125 11.59375 6.96875q5.6875 5.375 8.562508 13.6875q2.875 8.3125 2.875 20.25zm-23.937508 -3.5q0 -7.625 -1.46875 -12.53125q-1.46875 -4.90625 -4.03125 -7.59375q-1.8125 -2.0 -4.1875 -2.875q-2.375 -0.875 -5.0 -0.875q-2.4375 0 -4.65625 0.84375q-2.21875 0.84375 -4.28125 2.90625q-1.9375 2.0 -3.15625 5.25q-1.21875 3.25 -1.21875 7.75q0 4.375 1.3125 7.34375q1.3125 2.96875 3.625 4.71875q2.1875 1.6875 5.15625 2.375q2.96875 0.6875 6.46875 0.6875q2.8125 0 6.125 -0.71875q3.3125 -0.71875 5.125 -1.46875q0 -0.6875 0.09375 -1.96875q0.09375 -1.28125 0.09375 -3.84375zm114.93751 3.5q0 11.6875 -3.0 21.75q-3.0 10.0625 -9.125 16.9375q-6.625 7.4375 -16.4375 11.15625q-9.8125 3.71875 -22.875 3.71875q-4.625 0 -10.0 -0.5625q-5.375 -0.5625 -7.0625 -1.0l0 -18.3125l2.5 0q1.875 0.875 5.34375 1.875q3.46875 1.0 9.46875 1.0q4.875 0 9.5625 -1.21875q4.6875 -1.21875 8.0625 -3.84375q3.6875 -2.8125 6.0625 -7.03125q2.375 -4.21875 3.1875 -10.15625q-5.4375 3.125 -10.09375 4.78125q-4.65625 1.65625 -11.59375 1.65625q-5.25 0 -10.03125 -1.28125q-4.78125 -1.28125 -8.71875 -3.96875q-5.1875 -3.6875 -8.28125 -9.71875q-3.09375 -6.03125 -3.09375 -15.21875q0 -14.9375 10.40625 -24.34375q10.40625 -9.40625 27.28125 -9.40625q8.6875 0 15.40625 2.28125q6.71875 2.28125 11.59375 6.96875q5.6875 5.375 8.5625 13.6875q2.875 8.3125 2.875 20.25zm-23.9375 -3.5q0 -7.625 -1.46875 -12.53125q-1.46875 -4.90625 -4.03125 -7.59375q-1.8125 -2.0 -4.1875 -2.875q-2.375 -0.875 -5.0 -0.875q-2.4375 0 -4.65625 0.84375q-2.21875 0.84375 -4.28125 2.90625q-1.9375 2.0 -3.15625 5.25q-1.21875 3.25 -1.21875 7.75q0 4.375 1.3125 7.34375q1.3125 2.96875 3.625 4.71875q2.1875 1.6875 5.15625 2.375q2.96875 0.6875 6.46875 0.6875q2.8125 0 6.125 -0.71875q3.3125 -0.71875 5.125 -1.46875q0 -0.6875 0.09375 -1.96875q0.09375 -1.28125 0.09375 -3.84375zm114.9375 3.5q0 11.6875 -3.0 21.75q-3.0 10.0625 -9.125 16.9375q-6.625 7.4375 -16.4375 11.15625q-9.8125 3.71875 -22.875 3.71875q-4.625 0 -10.0 -0.5625q-5.375 -0.5625 -7.0625 -1.0l0 -18.3125l2.5 0q1.875 0.875 5.34375 1.875q3.46875 1.0 9.46875 1.0q4.875 0 9.5625 -1.21875q4.6875 -1.21875 8.0625 -3.84375q3.6875 -2.8125 6.0625 -7.03125q2.375 -4.21875 3.1875 -10.15625q-5.4375 3.125 -10.09375 4.78125q-4.65625 1.65625 -11.59375 1.65625q-5.25 0 -10.03125 -1.28125q-4.78125 -1.28125 -8.71875 -3.96875q-5.1875 -3.6875 -8.28125 -9.71875q-3.09375 -6.03125 -3.09375 -15.21875q0 -14.9375 10.40625 -24.34375q10.40625 -9.40625 27.28125 -9.40625q8.6875 0 15.40625 2.28125q6.71875 2.28125 11.59375 6.96875q5.6875 5.375 8.5625 13.6875q2.875 8.3125 2.875 20.25zm-23.9375 -3.5q0 -7.625 -1.46875 -12.53125q-1.46875 -4.90625 -4.03125 -7.59375q-1.8125 -2.0 -4.1875 -2.875q-2.375 -0.875 -5.0 -0.875q-2.4375 0 -4.65625 0.84375q-2.21875 0.84375 -4.28125 2.90625q-1.9375 2.0 -3.15625 5.25q-1.21875 3.25 -1.21875 7.75q0 4.375 1.3125 7.34375q1.3125 2.96875 3.625 4.71875q2.1875 1.6875 5.15625 2.375q2.96875 0.6875 6.46875 0.6875q2.8125 0 6.125 -0.71875q3.3125 -0.71875 5.125 -1.46875q0 -0.6875 0.09375 -1.96875q0.09375 -1.28125 0.09375 -3.84375zm114.9375 3.5q0 11.6875 -3.0 21.75q-3.0 10.0625 -9.125 16.9375q-6.625 7.4375 -16.4375 11.15625q-9.8125 3.71875 -22.875 3.71875q-4.625 0 -10.0 -0.5625q-5.375 -0.5625 -7.0625 -1.0l0 -18.3125l2.5 0q1.875 0.875 5.34375 1.875q3.46875 1.0 9.46875 1.0q4.875 0 9.5625 -1.21875q4.6875 -1.21875 8.0625 -3.84375q3.6875 -2.8125 6.0625 -7.03125q2.375 -4.21875 3.1875 -10.15625q-5.4375 3.125 -10.09375 4.78125q-4.65625 1.65625 -11.59375 1.65625q-5.25 0 -10.03125 -1.28125q-4.78125 -1.28125 -8.71875 -3.96875q-5.1875 -3.6875 -8.28125 -9.71875q-3.09375 -6.03125 -3.09375 -15.21875q0 -14.9375 10.40625 -24.34375q10.40625 -9.40625 27.28125 -9.40625q8.6875 0 15.40625 2.28125q6.71875 2.28125 11.59375 6.96875q5.6875 5.375 8.5625 13.6875q2.875 8.3125 2.875 20.25zm-23.9375 -3.5q0 -7.625 -1.46875 -12.53125q-1.46875 -4.90625 -4.03125 -7.59375q-1.8125 -2.0 -4.1875 -2.875q-2.375 -0.875 -5.0 -0.875q-2.4375 0 -4.65625 0.84375q-2.21875 0.84375 -4.28125 2.90625q-1.9375 2.0 -3.15625 5.25q-1.21875 3.25 -1.21875 7.75q0 4.375 1.3125 7.34375q1.3125 2.96875 3.625 4.71875q2.1875 1.6875 5.15625 2.375q2.96875 0.6875 6.46875 0.6875q2.8125 0 6.125 -0.71875q3.3125 -0.71875 5.125 -1.46875q0 -0.6875 0.09375 -1.96875q0.09375 -1.28125 0.09375 -3.84375zm167.56247 26.75q0 6.75 -2.71875 12.0625q-2.71875 5.3125 -7.46875 8.8125q-5.5 4.125 -12.09375 5.875q-6.59375 1.75 -16.71872 1.75l-40.625 0l0 -93.0625l36.125 0q11.2499695 0 16.46872 0.75q5.21875 0.75 10.34375 3.3125q5.3125 2.6875 7.90625 7.21875q2.59375 4.53125 2.59375 10.34375q0 6.75 -3.5625 11.90625q-3.5625 5.15625 -10.0625 8.03125l0 0.5q9.125 1.8125 14.46875 7.5q5.34375 5.6875 5.34375 15.0zm-30.75 -38.25q0 -2.3125 -1.15625 -4.625q-1.15625 -2.3125 -4.0937195 -3.4375q-2.625 -1.0 -6.53125 -1.09375q-3.90625 -0.09375 -10.96875 -0.09375l-2.25 0l0 19.6875l3.75 0q5.6875 0 9.6875 -0.1875q4.0 -0.1875 6.3125 -1.25q3.2499695 -1.4375 4.2499695 -3.71875q1.0 -2.28125 1.0 -5.28125zm5.875 37.875q0 -4.4375 -1.71875 -6.84375q-1.71875 -2.40625 -5.84375 -3.59375q-2.8125 -0.8125 -7.7499695 -0.875q-4.9375 -0.0625 -10.3125 -0.0625l-5.25 0l0 23.1875l1.75 0q10.125 0 14.5 -0.0625q4.3749695 -0.0625 8.0624695 -1.625q3.75 -1.5625 5.15625 -4.15625q1.40625 -2.59375 1.40625 -5.96875zm84.8125 30.6875q-10.375 0 -19.15625 -3.0625q-8.78125 -3.0625 -15.09375 -9.125q-6.3125 -6.0625 -9.78125 -15.125q-3.46875 -9.0625 -3.46875 -20.9375q0 -11.0625 3.3125 -20.0625q3.3125 -9.0 9.625 -15.4375q6.0625 -6.1875 15.03125 -9.5625q8.96875 -3.375 19.59375 -3.375q5.875 0 10.59375 0.65625q4.71875 0.65625 8.71875 1.71875q4.1875 1.1875 7.59375 2.65625q3.40625 1.46875 5.96875 2.71875l0 22.5625l-2.75 0q-1.75 -1.5 -4.40625 -3.5625q-2.65625 -2.0625 -6.03125 -4.0625q-3.4375 -2.0 -7.4375 -3.375q-4.0 -1.375 -8.5625 -1.375q-5.0625 0 -9.625 1.59375q-4.5625 1.59375 -8.4375 5.28125q-3.6875 3.5625 -5.96875 9.4375q-2.28125 5.875 -2.28125 14.25q0 8.75 2.46875 14.625q2.46875 5.875 6.21875 9.25q3.8125 3.4375 8.5 4.90625q4.6875 1.46875 9.25 1.46875q4.375 0 8.65625 -1.3125q4.28125 -1.3125 7.90625 -3.5625q3.0625 -1.8125 5.6875 -3.875q2.625 -2.0625 4.3125 -3.5625l2.5 0l0 22.25q-3.5 1.5625 -6.6875 2.9375q-3.1875 1.375 -6.6875 2.375q-4.5625 1.3125 -8.5625 2.0q-4.0 0.6875 -11.0 0.6875zm138.5 -48.25q0 13.0 -5.9375 23.28125q-5.9375 10.28125 -15.0 15.78125q-6.8125 4.125 -14.9375 5.75q-8.125 1.625 -19.25 1.625l-32.8125 0l0 -93.0625l33.75 0q11.375 0 19.625 1.90625q8.25 1.90625 13.875 5.40625q9.625 5.875 15.15625 15.84375q5.53125 9.96875 5.53125 23.46875zm-24.8125 -0.1875q0 -9.1875 -3.34375 -15.71875q-3.34375 -6.53125 -10.59375 -10.21875q-3.6875 -1.8125 -7.53125 -2.46875q-3.84375 -0.65625 -11.59375 -0.65625l-6.0625 0l0 58.25l6.0625 0q8.5625 0 12.5625 -0.78125q4.0 -0.78125 7.8125 -2.84375q6.5625 -3.75 9.625 -10.03125q3.0625 -6.28125 3.0625 -15.53125z" fill-rule="nonzero"/><path fill="#351c75" d="m323.0105 239.08136l23.84253 0l0 -126.04724l47.685028 0l0 126.04724l23.84253 0l-47.68506 47.68506z" fill-rule="evenodd"/><path stroke="#20124d" stroke-width="1.0" stroke-linejoin="round" stroke-linecap="butt" d="m323.0105 239.08136l23.84253 0l0 -126.04724l47.685028 0l0 126.04724l23.84253 0l-47.68506 47.68506z" fill-rule="evenodd"/><path fill="#000000" fill-opacity="0.0" d="m0 10.677165l815.43304 0l0 106.77166l-815.43304 0z" fill-rule="evenodd"/><path fill="#4c1130" d="m61.890625 96.47716l-45.65625 0l0 -9.609375q5.234375 -3.796875 10.484375 -8.046875q5.25 -4.265625 8.421875 -7.34375q4.71875 -4.578125 6.703125 -7.968746q2.0 -3.40625 2.0 -6.71875q0 -3.984375 -2.5625 -6.15625q-2.546875 -2.171875 -7.359375 -2.171875q-3.59375 0 -7.5625 1.484375q-3.953125 1.484375 -7.359375 3.796875l-1.25 0l0 -12.9375q2.78125 -1.203125 8.1875 -2.40625q5.40625 -1.21875 10.84375 -1.21875q10.9375 0 16.671875 4.59375q5.75 4.578125 5.75 12.984375q0 5.5 -2.765625 10.468746q-2.75 4.953125 -8.40625 10.234375q-3.5625 3.28125 -7.15625 6.03125q-3.59375 2.75 -5.109375 3.84375l26.125 0l0 11.140625zm57.703125 -13.40625l-7.9375 0l0 13.5625l-14.328125 0l0 -13.5625l-28.171875 0l0 -11.015625l27.234375 -33.749996l15.265625 0l0 34.14062l7.9375 0l0 10.625zm-22.265625 -10.625l0 -21.015621l-16.921875 21.015621l16.921875 0zm105.1875 1.484375q0 10.359375 -5.71875 16.890625q-5.71875 6.515625 -14.28125 6.515625q-3.671875 0 -6.453125 -0.78125q-2.765625 -0.78125 -5.265625 -2.265625l-0.578125 2.1875l-13.484375 0l0 -60.781246l14.0625 0l0 21.484375q3.25 -2.578125 6.625 -4.171875q3.375 -1.609375 7.796875 -1.609375q8.3125 0 12.796875 6.0q4.5 5.984375 4.5 16.531246zm-14.484375 0.28125q0 -5.859375 -2.0 -9.015625q-1.984375 -3.1718712 -7.109375 -3.1718712q-1.984375 0 -4.09375 0.609375q-2.109375 0.59375 -4.03125 1.7343712l0 22.03125q1.53125 0.546875 2.890625 0.75q1.375 0.1875 3.28125 0.1875q5.59375 0 8.328125 -3.28125q2.734375 -3.28125 2.734375 -9.84375zm38.703125 22.265625l-14.0625 0l0 -43.874996l14.0625 0l0 43.874996zm0.390625 -50.124996l-14.84375 0l0 -10.65625l14.84375 0l0 10.65625zm40.9375 49.73437q-2.265625 0.59375 -4.8125 0.921875q-2.53125 0.328125 -6.203125 0.328125q-8.203125 0 -12.203125 -3.3125q-4.0 -3.328125 -4.0 -11.375l0 -20.515621l-5.78125 0l0 -9.53125l5.78125 0l0 -12.53125l14.0625 0l0 12.53125l13.15625 0l0 9.53125l-13.15625 0l0 15.546871q0 2.3125 0.03125 4.03125q0.046875 1.71875 0.625 3.078125q0.546875 1.375 1.9375 2.171875q1.390625 0.796875 4.046875 0.796875q1.09375 0 2.859375 -0.46875q1.78125 -0.46875 2.484375 -0.859375l1.171875 0l0 9.65625zm35.867188 -19.84375l-29.8125 0l0 -11.25l29.8125 0l0 11.25zm54.132812 0.890625l-32.1875 0q0.3125 5.15625 3.921875 7.890625q3.625 2.734375 10.65625 2.734375q4.453125 0 8.625 -1.59375q4.1875 -1.609375 6.609375 -3.4375l1.5625 0l0 11.28125q-4.765625 1.921875 -8.984375 2.78125q-4.21875 0.859375 -9.34375 0.859375q-13.203125 0 -20.234375 -5.9375q-7.03125 -5.9375 -7.03125 -16.921875q0 -10.859371 6.65625 -17.203121q6.671875 -6.34375 18.265625 -6.34375q10.703125 0 16.09375 5.40625q5.390625 5.40625 5.390625 15.562496l0 4.921875zm-13.984375 -8.234375q-0.109375 -4.421875 -2.1875 -6.640621q-2.0625 -2.234375 -6.4375 -2.234375q-4.0625 0 -6.6875 2.109375q-2.609375 2.1093712 -2.921875 6.765621l18.234375 0zm70.46875 27.578125l-16.359375 0l-12.3125 -19.109375l-3.828125 4.65625l0 14.453125l-14.0625 0l0 -60.781246l14.0625 0l0 36.281246l15.15625 -19.374996l16.21875 0l-15.78125 18.906246l16.90625 24.96875zm51.953125 -21.921875q0 10.828125 -6.3125 17.0625q-6.296875 6.234375 -17.703125 6.234375q-11.40625 0 -17.71875 -6.234375q-6.3125 -6.234375 -6.3125 -17.0625q0 -10.890621 6.34375 -17.093746q6.359375 -6.21875 17.6875 -6.21875q11.484375 0 17.75 6.25q6.265625 6.25 6.265625 17.062496zm-17.296875 10.671875q1.359375 -1.6875 2.046875 -4.046875q0.6875 -2.359375 0.6875 -6.546875q0 -3.859375 -0.703125 -6.46875q-0.703125 -2.625 -1.953125 -4.187496q-1.25 -1.609375 -3.015625 -2.265625q-1.75 -0.671875 -3.78125 -0.671875q-2.03125 0 -3.625 0.546875q-1.578125 0.546875 -3.015625 2.1875q-1.296875 1.5312462 -2.0625 4.187496q-0.75 2.65625 -0.75 6.671875q0 3.59375 0.65625 6.234375q0.671875 2.640625 1.953125 4.234375q1.25 1.53125 2.984375 2.234375q1.75 0.703125 3.96875 0.703125q1.921875 0 3.65625 -0.640625q1.734375 -0.65625 2.953125 -2.171875zm100.5 -11.296875q0 10.359375 -5.71875 16.890625q-5.71875 6.515625 -14.28125 6.515625q-3.671875 0 -6.453125 -0.78125q-2.765625 -0.78125 -5.265625 -2.265625l-0.578125 2.1875l-13.484375 0l0 -60.781246l14.0625 0l0 21.484375q3.25 -2.578125 6.625 -4.171875q3.375 -1.609375 7.796875 -1.609375q8.3125 0 12.796875 6.0q4.5 5.984375 4.5 16.531246zm-14.484375 0.28125q0 -5.859375 -2.0 -9.015625q-1.984375 -3.1718712 -7.109375 -3.1718712q-1.984375 0 -4.09375 0.609375q-2.109375 0.59375 -4.03125 1.7343712l0 22.03125q1.53125 0.546875 2.890625 0.75q1.375 0.1875 3.28125 0.1875q5.59375 0 8.328125 -3.28125q2.734375 -3.28125 2.734375 -9.84375zm38.703125 22.265625l-14.0625 0l0 -43.874996l14.0625 0l0 43.874996zm0.390625 -50.124996l-14.84375 0l0 -10.65625l14.84375 0l0 10.65625zm40.9375 49.73437q-2.265625 0.59375 -4.8125 0.921875q-2.53125 0.328125 -6.203125 0.328125q-8.203125 0 -12.203125 -3.3125q-4.0 -3.328125 -4.0 -11.375l0 -20.515621l-5.78125 0l0 -9.53125l5.78125 0l0 -12.53125l14.0625 0l0 12.53125l13.15625 0l0 9.53125l-13.15625 0l0 15.546871q0 2.3125 0.03125 4.03125q0.046875 1.71875 0.625 3.078125q0.546875 1.375 1.9375 2.171875q1.390625 0.796875 4.046875 0.796875q1.09375 0 2.859375 -0.46875q1.78125 -0.46875 2.484375 -0.859375l1.171875 0l0 9.65625zm34.960938 -11.0625l0 -9.140625q-2.84375 0.234375 -6.171875 0.65625q-3.3125 0.40625 -5.03125 0.953125q-2.109375 0.65625 -3.234375 1.9375q-1.109375 1.265625 -1.109375 3.328125q0 1.375 0.234375 2.234375q0.234375 0.859375 1.171875 1.640625q0.90625 0.78125 2.15625 1.15625q1.25 0.359375 3.90625 0.359375q2.109375 0 4.265625 -0.859375q2.171875 -0.859375 3.8125 -2.265625zm0 6.796875q-1.125 0.859375 -2.8125 2.078125q-1.671875 1.203125 -3.15625 1.90625q-2.078125 0.953125 -4.3125 1.390625q-2.21875 0.453125 -4.875 0.453125q-6.25 0 -10.46875 -3.859375q-4.21875 -3.875 -4.21875 -9.890625q0 -4.8125 2.140625 -7.859375q2.15625 -3.046875 6.109375 -4.796875q3.90625 -1.765625 9.6875 -2.5q5.78125 -0.75 11.984375 -1.09375l0 -0.234375q0 -3.6406212 -2.96875 -5.015621q-2.96875 -1.390625 -8.75 -1.390625q-3.46875 0 -7.421875 1.234375q-3.9375 1.21875 -5.65625 1.8906212l-1.296875 0l0 -10.593746q2.234375 -0.578125 7.25 -1.375q5.015625 -0.8125 10.0625 -0.8125q11.984375 0 17.3125 3.703125q5.34375 3.6875 5.34375 11.578121l0 29.84375l-13.953125 0l0 -4.65625zm58.671875 -25.8125l-1.25 0q-0.890625 -0.3125 -2.890625 -0.46875q-1.984375 -0.15625 -3.3125 -0.15625q-3.015625 0 -5.328125 0.390625q-2.296875 0.390625 -4.953125 1.328125l0 29.375l-14.0625 0l0 -43.874996l14.0625 0l0 6.453125q4.65625 -3.984375 8.09375 -5.296875q3.4375 -1.3125 6.328125 -1.3125q0.734375 0 1.671875 0.046875q0.9375 0.03125 1.640625 0.109375l0 13.406246zm39.765625 0l-1.25 0q-0.890625 -0.3125 -2.890625 -0.46875q-1.984375 -0.15625 -3.3125 -0.15625q-3.015625 0 -5.328125 0.390625q-2.296875 0.390625 -4.953125 1.328125l0 29.375l-14.0625 0l0 -43.874996l14.0625 0l0 6.453125q4.65625 -3.984375 8.09375 -5.296875q3.4375 -1.3125 6.328125 -1.3125q0.734375 0 1.671875 0.046875q0.9375 0.03125 1.640625 0.109375l0 13.406246zm34.53125 19.015625l0 -9.140625q-2.84375 0.234375 -6.171875 0.65625q-3.3125 0.40625 -5.03125 0.953125q-2.109375 0.65625 -3.234375 1.9375q-1.109375 1.265625 -1.109375 3.328125q0 1.375 0.234375 2.234375q0.234375 0.859375 1.171875 1.640625q0.90625 0.78125 2.15625 1.15625q1.25 0.359375 3.90625 0.359375q2.109375 0 4.265625 -0.859375q2.171875 -0.859375 3.8125 -2.265625zm0 6.796875q-1.125 0.859375 -2.8125 2.078125q-1.671875 1.203125 -3.15625 1.90625q-2.078125 0.953125 -4.3125 1.390625q-2.21875 0.453125 -4.875 0.453125q-6.25 0 -10.46875 -3.859375q-4.21875 -3.875 -4.21875 -9.890625q0 -4.8125 2.140625 -7.859375q2.15625 -3.046875 6.109375 -4.796875q3.90625 -1.765625 9.6875 -2.5q5.78125 -0.75 11.984375 -1.09375l0 -0.234375q0 -3.6406212 -2.96875 -5.015621q-2.96875 -1.390625 -8.75 -1.390625q-3.46875 0 -7.421875 1.234375q-3.9375 1.21875 -5.65625 1.8906212l-1.296875 0l0 -10.593746q2.234375 -0.578125 7.25 -1.375q5.015625 -0.8125 10.0625 -0.8125q11.984375 0 17.3125 3.703125q5.34375 3.6875 5.34375 11.578121l0 29.84375l-13.953125 0l0 -4.65625z" fill-rule="nonzero"/></g></svg>