<?xml version="1.0" standalone="yes"?>

<svg version="1.1" viewBox="0.0 0.0 578.9107611548557 574.7454068241469" fill="none" stroke="none" stroke-linecap="square" stroke-miterlimit="10" xmlns="http://www.w3.org/2000/svg" xmlns:xlink="http://www.w3.org/1999/xlink"><clipPath id="p.0"><path d="m0 0l578.91077 0l0 574.7454l-578.91077 0l0 -574.7454z" clip-rule="nonzero"></path></clipPath><g clip-path="url(#p.0)"><path fill="#000000" fill-opacity="0.0" d="m0 0l578.91077 0l0 574.7454l-578.91077 0z" fill-rule="evenodd"></path><path fill="#000000" fill-opacity="0.0" d="m4.5170603 7.288714l724.31494 0l0 80.09449l-724.31494 0z" fill-rule="evenodd"></path><path fill="#4c1130" d="m92.26706 139.16872l-62.125 0l0 -16.25l19.624998 0l0 -49.1875l-19.624998 0l0 -15.187496q4.499998 0 8.624998 -0.53125q4.125 -0.53125 6.875 -1.84375q3.25 -1.5625 4.875 -4.0625q1.625 -2.5 1.875 -6.25l20.6875 0l0 77.0625l19.1875 0l0 16.25zm91.0 0l-62.125 0l0 -16.25l19.625 0l0 -49.1875l-19.625 0l0 -15.187496q4.5 0 8.625 -0.53125q4.125 -0.53125 6.875 -1.84375q3.25 -1.5625 4.875 -4.0625q1.625 -2.5 1.875 -6.25l20.6875 0l0 77.0625l19.1875 0l0 16.25zm91.0 0l-62.125 0l0 -16.25l19.625 0l0 -49.1875l-19.625 0l0 -15.187496q4.5 0 8.625 -0.53125q4.125 -0.53125 6.875 -1.84375q3.25 -1.5625 4.875 -4.0625q1.625 -2.5 1.875 -6.25l20.6875 0l0 77.0625l19.1875 0l0 16.25zm96.25 -46.5625q0 11.75 -2.125 21.03125q-2.125 9.28125 -6.625 15.21875q-4.625 6.0625 -11.875 9.15625q-7.25 3.09375 -17.875 3.09375q-10.4375 0 -17.8125 -3.125q-7.375 -3.125 -11.9375 -9.25q-4.625 -6.125 -6.6875 -15.21875q-2.0625 -9.09375 -2.0625 -20.84375q0 -12.125 2.125 -21.0625q2.125 -8.937496 6.75 -15.124996q4.625 -6.125 12.0 -9.1875q7.375 -3.0625 17.625 -3.0625q10.6875 0 17.9375 3.15625q7.25 3.15625 11.875 9.40625q4.5625 6.125 6.625 15.093746q2.0625 8.96875 2.0625 20.71875zm-24.1875 0q0 -16.875 -3.3125 -24.03125q-3.3125 -7.156246 -11.0 -7.156246q-7.6875 0 -11.0 7.156246q-3.3125 7.15625 -3.3125 24.15625q0 16.5625 3.375 23.875q3.375 7.3125 10.9375 7.3125q7.5625 0 10.9375 -7.3125q3.375 -7.3125 3.375 -24.0zm109.9375 46.5625l-62.125 0l0 -16.25l19.625 0l0 -49.1875l-19.625 0l0 -15.187496q4.5 0 8.625 -0.53125q4.125 -0.53125 6.875 -1.84375q3.25 -1.5625 4.875 -4.0625q1.625 -2.5 1.875 -6.25l20.6875 0l0 77.0625l19.1875 0l0 16.25zm91.00003 0l-62.12503 0l0 -16.25l19.625 0l0 -49.1875l-19.625 0l0 -15.187496q4.5 0 8.625 -0.53125q4.125 -0.53125 6.875 -1.84375q3.25 -1.5625 4.875 -4.0625q1.625 -2.5 1.875 -6.25l20.68753 0l0 77.0625l19.1875 0l0 16.25z" fill-rule="nonzero"></path><path fill="#000000" fill-opacity="0.0" d="m48.761154 434.958l675.1811 0l0 80.09448l-675.1811 0z" fill-rule="evenodd"></path><path fill="#163d24" d="m140.38615 535.338q0 7.25 -2.71875 13.46875q-2.71875 6.21875 -7.90625 10.65625q-5.75 4.75 -13.21875 7.03125q-7.46875 2.28125 -17.03125 2.28125q-11.1875 -0.0625 -18.90625 -1.78125q-7.71875 -1.71875 -12.59375 -3.84375l0 -20.5625l2.625 0q5.6875 3.375 12.25 5.625q6.5625 2.25 13.0625 2.25q3.9375 0 8.53125 -0.90625q4.59375 -0.90625 7.28125 -3.28125q2.125 -1.9375 3.21875 -3.9375q1.09375 -2.0 1.09375 -6.1875q0 -3.25 -1.46875 -5.59375q-1.46875 -2.34375 -3.78125 -3.78125q-3.375 -2.0625 -8.125 -2.71875q-4.75 -0.65625 -8.625 -0.65625q-5.625 0 -10.78125 0.96875q-5.15625 0.96875 -9.03125 1.90625l-2.75 0l0 -52.5l66.1875 0l0 17.8125l-43.625 0l0 15.1875q1.9375 -0.125 4.90625 -0.21875q2.96875 -0.09375 5.21875 -0.09375q7.6875 0 13.71875 1.46875q6.03125 1.46875 10.40625 4.09375q5.6875 3.4375 8.875 9.09375q3.1875 5.65625 3.1875 14.21875zm91.0 -20.25q0 11.6875 -3.0 21.75q-3.0 10.0625 -9.125 16.9375q-6.625 7.4375 -16.4375 11.15625q-9.8125 3.71875 -22.875 3.71875q-4.625 0 -10.0 -0.5625q-5.375 -0.5625 -7.0625 -1.0l0 -18.3125l2.5 0q1.875 0.875 5.34375 1.875q3.46875 1.0 9.46875 1.0q4.875 0 9.5625 -1.21875q4.6875 -1.21875 8.0625 -3.84375q3.6875 -2.8125 6.0625 -7.03125q2.375 -4.21875 3.1875 -10.15625q-5.4375 3.125 -10.09375 4.78125q-4.65625 1.65625 -11.59375 1.65625q-5.25 0 -10.03125 -1.28125q-4.78125 -1.28125 -8.71875 -3.96875q-5.1875 -3.6875 -8.28125 -9.71875q-3.09375 -6.03125 -3.09375 -15.21875q0 -14.9375 10.40625 -24.34375q10.40625 -9.40625 27.28125 -9.40625q8.6875 0 15.40625 2.28125q6.71875 2.28125 11.59375 6.96875q5.6875 5.375 8.5625 13.6875q2.875 8.3125 2.875 20.25zm-23.9375 -3.5q0 -7.625 -1.46875 -12.53125q-1.46875 -4.90625 -4.03125 -7.59375q-1.8125 -2.0 -4.1875 -2.875q-2.375 -0.875 -5.0 -0.875q-2.4375 0 -4.65625 0.84375q-2.21875 0.84375 -4.28125 2.90625q-1.9375 2.0 -3.15625 5.25q-1.21875 3.25 -1.21875 7.75q0 4.375 1.3125 7.34375q1.3125 2.96875 3.625 4.71875q2.1875 1.6875 5.15625 2.375q2.96875 0.6875 6.46875 0.6875q2.8125 0 6.125 -0.71875q3.3125 -0.71875 5.125 -1.46875q0 -0.6875 0.09375 -1.96875q0.09375 -1.28125 0.09375 -3.84375zm167.56252 26.75q0 6.75 -2.71875 12.0625q-2.71875 5.3125 -7.46875 8.8125q-5.5 4.125 -12.09375 5.875q-6.59375 1.75 -16.71875 1.75l-40.625 0l0 -93.0625l36.125 0q11.25 0 16.46875 0.75q5.21875 0.75 10.34375 3.3125q5.3125 2.6875 7.90625 7.21875q2.59375 4.53125 2.59375 10.34375q0 6.75 -3.5625 11.90625q-3.5625 5.15625 -10.0625 8.03125l0 0.5q9.125 1.8125 14.46875 7.5q5.34375 5.6875 5.34375 15.0zm-30.75 -38.25q0 -2.3125 -1.15625 -4.625q-1.15625 -2.3125 -4.09375 -3.4375q-2.625 -1.0 -6.53125 -1.09375q-3.90625 -0.09375 -10.96875 -0.09375l-2.25 0l0 19.6875l3.75 0q5.6875 0 9.6875 -0.1875q4.0 -0.1875 6.3125 -1.25q3.25 -1.4375 4.25 -3.71875q1.0 -2.28125 1.0 -5.28125zm5.875 37.875q0 -4.4375 -1.71875 -6.84375q-1.71875 -2.40625 -5.84375 -3.59375q-2.8125 -0.8125 -7.75 -0.875q-4.9375 -0.0625 -10.3125 -0.0625l-5.25 0l0 23.1875l1.75 0q10.125 0 14.5 -0.0625q4.375 -0.0625 8.0625 -1.625q3.75 -1.5625 5.15625 -4.15625q1.40625 -2.59375 1.40625 -5.96875zm84.8125 30.6875q-10.375 0 -19.15625 -3.0625q-8.78125 -3.0625 -15.09375 -9.125q-6.3125 -6.0625 -9.78125 -15.125q-3.46875 -9.0625 -3.46875 -20.9375q0 -11.0625 3.3125 -20.0625q3.3125 -9.0 9.625 -15.4375q6.0625 -6.1875 15.03125 -9.5625q8.96875 -3.375 19.59375 -3.375q5.875 0 10.59375 0.65625q4.71875 0.65625 8.71875 1.71875q4.1875 1.1875 7.59375 2.65625q3.40625 1.46875 5.96875 2.71875l0 22.5625l-2.75 0q-1.75 -1.5 -4.40625 -3.5625q-2.65625 -2.0625 -6.03125 -4.0625q-3.4375 -2.0 -7.4375 -3.375q-4.0 -1.375 -8.5625 -1.375q-5.0625 0 -9.625 1.59375q-4.5625 1.59375 -8.4375 5.28125q-3.6875 3.5625 -5.96875 9.4375q-2.28125 5.875 -2.28125 14.25q0 8.75 2.46875 14.625q2.46875 5.875 6.21875 9.25q3.8125 3.4375 8.5 4.90625q4.6875 1.46875 9.25 1.46875q4.375 0 8.65625 -1.3125q4.28125 -1.3125 7.90625 -3.5625q3.0625 -1.8125 5.6875 -3.875q2.625 -2.0625 4.3125 -3.5625l2.5 0l0 22.25q-3.5 1.5625 -6.6875 2.9375q-3.1875 1.375 -6.6875 2.375q-4.5625 1.3125 -8.5625 2.0q-4.0 0.6875 -11.0 0.6875zm138.5 -48.25q0 13.0 -5.9375 23.28125q-5.9375 10.28125 -15.0 15.78125q-6.8125 4.125 -14.9375 5.75q-8.125 1.625 -19.25 1.625l-32.8125 0l0 -93.0625l33.75 0q11.375 0 19.625 1.90625q8.25 1.90625 13.875 5.40625q9.625 5.875 15.15625 15.84375q5.53125 9.96875 5.53125 23.46875zm-24.8125 -0.1875q0 -9.1875 -3.34375 -15.71875q-3.34375 -6.53125 -10.59375 -10.21875q-3.6875 -1.8125 -7.53125 -2.46875q-3.84375 -0.65625 -11.59375 -0.65625l-6.0625 0l0 58.25l6.0625 0q8.5625 0 12.5625 -0.78125q4.0 -0.78125 7.8125 -2.84375q6.5625 -3.75 9.625 -10.03125q3.0625 -6.28125 3.0625 -15.53125z" fill-rule="nonzero"></path><path fill="#351c75" d="m230.43307 426.3937l23.842514 0l0 -177.44882l47.685043 0l0 177.44882l23.84253 0l-47.68506 47.685028z" fill-rule="evenodd"></path><path stroke="#20124d" stroke-width="1.0" stroke-linejoin="round" stroke-linecap="butt" d="m230.43307 426.3937l23.842514 0l0 -177.44882l47.685043 0l0 177.44882l23.84253 0l-47.68506 47.685028z" fill-rule="evenodd"></path><path fill="#000000" fill-opacity="0.0" d="m82.20473 136.72441l540.62994 0l0 80.09448l-540.62994 0z" fill-rule="evenodd"></path><path fill="#4c1130" d="m135.59535 257.1969l-17.671875 0q-9.0 -10.546875 -13.34375 -21.703125q-4.328125 -11.15625 -4.328125 -24.421875q0 -13.265625 4.328125 -24.421875q4.34375 -11.15625 13.34375 -21.703125l17.671875 0l0 1.359375q-3.796875 3.421875 -7.25 7.765625q-3.4375 4.328125 -6.390625 10.140625q-2.8125 5.578125 -4.578125 12.375q-1.75 6.796875 -1.75 14.484375q0 8.015625 1.703125 14.53125q1.71875 6.515625 4.625 12.328125q2.8125 5.53125 6.34375 10.046875q3.546875 4.53125 7.296875 7.859375l0 1.359375zm71.15625 -43.078125q0 5.390625 -1.96875 10.125q-1.96875 4.734375 -5.53125 7.96875q-3.796875 3.46875 -8.796875 5.296875q-4.984375 1.828125 -11.6875 1.828125q-6.28125 0 -11.46875 -1.703125q-5.171875 -1.71875 -8.875 -5.234375q-4.265625 -4.03125 -6.515625 -10.40625q-2.25 -6.375 -2.25 -15.234375q0 -9.1875 2.109375 -16.3125q2.109375 -7.125 6.890625 -12.609375q4.59375 -5.25 11.921875 -8.15625q7.34375 -2.90625 17.46875 -2.90625q3.421875 0 7.5 0.46875q4.078125 0.46875 5.296875 0.703125l0 13.734375l-1.78125 0q-1.265625 -0.609375 -4.296875 -1.375q-3.015625 -0.78125 -6.859375 -0.78125q-9.0 0 -14.015625 4.40625q-5.015625 4.40625 -6.046875 12.28125q3.609375 -2.15625 7.609375 -3.484375q4.015625 -1.34375 8.65625 -1.34375q4.078125 0 7.5625 0.9375q3.5 0.9375 6.5 3.0q3.890625 2.71875 6.234375 7.3125q2.34375 4.59375 2.34375 11.484375zm-21.328125 10.546875q1.453125 -1.59375 2.3125 -3.765625q0.875 -2.1875 0.875 -5.9375q0 -3.421875 -0.984375 -5.59375q-0.984375 -2.1875 -2.71875 -3.5q-1.6875 -1.3125 -3.984375 -1.796875q-2.296875 -0.5 -4.734375 -0.5q-2.0625 0 -4.3125 0.46875q-2.25 0.46875 -4.125 1.171875q0 0.46875 -0.046875 1.546875q-0.046875 1.078125 -0.046875 2.71875q0 5.765625 1.140625 9.5q1.15625 3.71875 3.078125 5.6875q1.3125 1.453125 3.09375 2.140625q1.78125 0.671875 3.84375 0.671875q1.546875 0 3.421875 -0.703125q1.875 -0.703125 3.1875 -2.109375zm121.92186 -13.828125q0 12.421875 -6.875 20.25q-6.859375 7.828125 -17.125 7.828125q-4.40625 0 -7.734375 -0.9375q-3.328125 -0.9375 -6.328125 -2.71875l-0.703125 2.625l-16.17186 0l0 -72.9375l16.874985 0l0 25.78125q3.890625 -3.09375 7.9375 -5.015625q4.0625 -1.921875 9.359375 -1.921875q9.984375 0 15.375 7.203125q5.390625 7.1875 5.390625 19.84375zm-17.390625 0.328125q0 -7.03125 -2.390625 -10.828125q-2.390625 -3.796875 -8.53125 -3.796875q-2.390625 0 -4.921875 0.734375q-2.53125 0.71875 -4.828125 2.078125l0 26.4375q1.828125 0.65625 3.46875 0.890625q1.640625 0.234375 3.9375 0.234375q6.703125 0 9.984375 -3.9375q3.28125 -3.9375 3.28125 -11.8125zm46.453125 26.71875l-16.875 0l0 -52.640625l16.875 0l0 52.640625zm0.46875 -60.140625l-17.8125 0l0 -12.796875l17.8125 0l0 12.796875zm49.125 59.671875q-2.71875 0.703125 -5.765625 1.09375q-3.046875 0.40625 -7.453125 0.40625q-9.84375 0 -14.65625 -3.984375q-4.796875 -3.984375 -4.796875 -13.640625l0 -24.609375l-6.9375 0l0 -11.4375l6.9375 0l0 -15.046875l16.875 0l0 15.046875l15.796875 0l0 11.4375l-15.796875 0l0 18.65625q0 2.765625 0.046875 4.828125q0.046875 2.0625 0.75 3.703125q0.65625 1.640625 2.3125 2.609375q1.671875 0.953125 4.859375 0.953125q1.3125 0 3.4375 -0.5625q2.140625 -0.5625 2.984375 -1.03125l1.40625 0l0 11.578125zm45.234375 -26.34375q0 13.265625 -4.34375 24.421875q-4.328125 11.15625 -13.328125 21.703125l-17.671875 0l0 -1.359375q3.75 -3.328125 7.3125 -7.828125q3.5625 -4.5 6.328125 -10.078125q2.90625 -5.8125 4.609375 -12.328125q1.71875 -6.515625 1.71875 -14.53125q0 -7.6875 -1.765625 -14.484375q-1.75 -6.796875 -4.5625 -12.375q-2.953125 -5.8125 -6.40625 -10.140625q-3.4375 -4.34375 -7.234375 -7.765625l0 -1.359375l17.671875 0q9.0 10.546875 13.328125 21.703125q4.34375 11.15625 4.34375 24.421875z" fill-rule="nonzero"></path></g></svg>

