<?xml version="1.0" standalone="yes"?>

<svg version="1.1" viewBox="0.0 0.0 808.0551181102362 577.8687664041995" fill="none" stroke="none" stroke-linecap="square" stroke-miterlimit="10" xmlns="http://www.w3.org/2000/svg" xmlns:xlink="http://www.w3.org/1999/xlink"><clipPath id="p.0"><path d="m0 0l808.0551 0l0 577.8688l-808.0551 0l0 -577.8688z" clip-rule="nonzero"></path></clipPath><g clip-path="url(#p.0)"><path fill="#000000" fill-opacity="0.0" d="m0 0l808.0551 0l0 577.8688l-808.0551 0z" fill-rule="evenodd"></path><path fill="#000000" fill-opacity="0.0" d="m32.32546 0l787.937 0l0 80.09449l-787.937 0z" fill-rule="evenodd"></path><path fill="#4c1130" d="m125.32546 85.317505q0 11.75 -2.125 21.03125q-2.125 9.28125 -6.625 15.21875q-4.625 6.0625 -11.875 9.15625q-7.25 3.09375 -17.875 3.09375q-10.4375 0 -17.8125 -3.125q-7.375004 -3.125 -11.937504 -9.25q-4.625 -6.125 -6.6875 -15.21875q-2.0625 -9.09375 -2.0625 -20.84375q0 -12.125 2.125 -21.0625q2.125 -8.9375 6.75 -15.125q4.625 -6.125 12.000004 -9.1875q7.375 -3.0625 17.625 -3.0625q10.6875 0 17.9375 3.15625q7.25 3.15625 11.875 9.40625q4.5625 6.125 6.625 15.09375q2.0625 8.96875 2.0625 20.71875zm-24.1875 0q0 -16.875 -3.3125 -24.03125q-3.3125 -7.15625 -11.0 -7.15625q-7.6875 0 -11.0 7.15625q-3.3125 7.15625 -3.3125 24.15625q0 16.5625 3.375 23.875q3.375 7.3125 10.9375 7.3125q7.5625 0 10.9375 -7.3125q3.375 -7.3125 3.375 -24.0zm109.93749 46.5625l-62.125 0l0 -16.25l19.625 0l0 -49.1875l-19.625 0l0 -15.1875q4.5 0 8.625 -0.53125q4.125 -0.53125 6.875 -1.84375q3.25 -1.5625 4.875 -4.0625q1.625 -2.5 1.875 -6.25l20.6875 0l0 77.0625l19.1875 0l0 16.25zm91.000015 0l-62.125015 0l0 -16.25l19.625015 0l0 -49.1875l-19.625015 0l0 -15.1875q4.5 0 8.625 -0.53125q4.125 -0.53125 6.875 -1.84375q3.2500153 -1.5625 4.8750153 -4.0625q1.625 -2.5 1.875 -6.25l20.6875 0l0 77.0625l19.1875 0l0 16.25zm91.0 0l-62.125 0l0 -16.25l19.625 0l0 -49.1875l-19.625 0l0 -15.1875q4.5 0 8.625 -0.53125q4.125 -0.53125 6.875 -1.84375q3.25 -1.5625 4.875 -4.0625q1.625 -2.5 1.875 -6.25l20.6875 0l0 77.0625l19.1875 0l0 16.25zm91.0 0l-62.125 0l0 -16.25l19.625 0l0 -49.1875l-19.625 0l0 -15.1875q4.5 0 8.625 -0.53125q4.125 -0.53125 6.875 -1.84375q3.25 -1.5625 4.875 -4.0625q1.625 -2.5 1.875 -6.25l20.6875 0l0 77.0625l19.1875 0l0 16.25zm96.24997 -46.5625q0 11.75 -2.125 21.03125q-2.125 9.28125 -6.625 15.21875q-4.625 6.0625 -11.875 9.15625q-7.25 3.09375 -17.875 3.09375q-10.4375 0 -17.8125 -3.125q-7.375 -3.125 -11.9375 -9.25q-4.6249695 -6.125 -6.6874695 -15.21875q-2.0625 -9.09375 -2.0625 -20.84375q0 -12.125 2.125 -21.0625q2.125 -8.9375 6.7499695 -15.125q4.625 -6.125 12.0 -9.1875q7.375 -3.0625 17.625 -3.0625q10.6875 0 17.9375 3.15625q7.25 3.15625 11.875 9.40625q4.5625 6.125 6.625 15.09375q2.0625 8.96875 2.0625 20.71875zm-24.1875 0q0 -16.875 -3.3125 -24.03125q-3.3125 -7.15625 -11.0 -7.15625q-7.6875 0 -11.0 7.15625q-3.3125 7.15625 -3.3125 24.15625q0 16.5625 3.375 23.875q3.375 7.3125 10.9375 7.3125q7.5625 0 10.9375 -7.3125q3.375 -7.3125 3.375 -24.0zm109.9375 46.5625l-62.125 0l0 -16.25l19.625 0l0 -49.1875l-19.625 0l0 -15.1875q4.5 0 8.625 -0.53125q4.125 -0.53125 6.875 -1.84375q3.25 -1.5625 4.875 -4.0625q1.625 -2.5 1.875 -6.25l20.6875 0l0 77.0625l19.1875 0l0 16.25zm91.0 0l-62.125 0l0 -16.25l19.625 0l0 -49.1875l-19.625 0l0 -15.1875q4.5 0 8.625 -0.53125q4.125 -0.53125 6.875 -1.84375q3.25 -1.5625 4.875 -4.0625q1.625 -2.5 1.875 -6.25l20.6875 0l0 77.0625l19.1875 0l0 16.25z" fill-rule="nonzero"></path><path fill="#000000" fill-opacity="0.0" d="m61.984253 433.91077l869.0079 0l0 80.09448l-869.0079 0z" fill-rule="evenodd"></path><path fill="#163d24" d="m149.73425 565.7908l-62.125 0l0 -16.25l19.625 0l0 -49.1875l-19.625 0l0 -15.1875q4.5 0 8.625 -0.53125q4.125 -0.53125 6.875 -1.84375q3.25 -1.5625 4.875 -4.0625q1.625 -2.5 1.875 -6.25l20.6875 0l0 77.0625l19.1875 0l0 16.25zm96.875 0l-73.0625 0l0 -15.375q8.375 -6.0625 16.78125 -12.875q8.40625 -6.8125 13.46875 -11.75q7.5625 -7.3125 10.75 -12.75q3.1875 -5.4375 3.1875 -10.75q0 -6.375 -4.09375 -9.84375q-4.09375 -3.46875 -11.78125 -3.46875q-5.75 0 -12.09375 2.375q-6.34375 2.375 -11.78125 6.0625l-2.0 0l0 -20.6875q4.4375 -1.9375 13.09375 -3.875q8.65625 -1.9375 17.34375 -1.9375q17.5 0 26.6875 7.34375q9.1875 7.34375 9.1875 20.78125q0 8.8125 -4.40625 16.75q-4.40625 7.9375 -13.46875 16.375q-5.6875 5.25 -11.4375 9.65625q-5.75 4.40625 -8.1875 6.15625l41.8125 0l0 17.8125zm81.875 -43.625q3.0625 2.625 4.875 6.125q1.8125 3.5 1.8125 9.3125q0 6.5625 -2.59375 12.25q-2.59375 5.6875 -7.96875 9.75q-5.25 3.9375 -12.34375 6.03125q-7.09375 2.09375 -17.21875 2.09375q-11.5625 0 -19.84375 -1.8125q-8.28125 -1.8125 -13.46875 -4.0625l0 -20.4375l2.4375 0q5.375 3.25 12.84375 5.625q7.46875 2.375 13.65625 2.375q3.625 0 7.875 -0.59375q4.25 -0.59375 7.1875 -2.59375q2.3125 -1.5625 3.6875 -3.78125q1.375 -2.21875 1.375 -6.40625q0 -4.0625 -1.875 -6.28125q-1.875 -2.21875 -4.9375 -3.15625q-3.0625 -1.0 -7.375 -1.09375q-4.3125 -0.09375 -8.0 -0.09375l-5.125 0l0 -16.625l5.3125 0q4.875 0 8.625 -0.3125q3.75 -0.3125 6.375 -1.4375q2.75 -1.1875 4.125 -3.15625q1.375 -1.96875 1.375 -5.78125q0 -2.8125 -1.4375 -4.53125q-1.4375 -1.71875 -3.625 -2.71875q-2.4375 -1.125 -5.75 -1.5q-3.3125 -0.375 -5.6875 -0.375q-5.875 0 -12.75 2.03125q-6.875 2.03125 -13.3125 5.84375l-2.3125 0l0 -20.1875q5.125 -2.0625 13.9375 -3.96875q8.8125 -1.90625 17.875 -1.90625q8.8125 0 15.4375 1.53125q6.625 1.53125 10.9375 4.09375q5.125 3.0625 7.625 7.4375q2.5 4.375 2.5 10.25q0 7.75 -4.8125 13.84375q-4.8125 6.09375 -12.6875 7.78125l0 0.875q3.1875 0.4375 6.75 1.75q3.5625 1.3125 6.5 3.8125zm150.75 15.125q0 6.75 -2.71875 12.0625q-2.71875 5.3125 -7.46875 8.8125q-5.5 4.125 -12.09375 5.875q-6.59375 1.75 -16.71875 1.75l-40.625 0l0 -93.0625l36.125 0q11.25 0 16.46875 0.75q5.21875 0.75 10.34375 3.3125q5.3125 2.6875 7.90625 7.21875q2.59375 4.53125 2.59375 10.34375q0 6.75 -3.5625 11.90625q-3.5625 5.15625 -10.0625 8.03125l0 0.5q9.125 1.8125 14.46875 7.5q5.34375 5.6875 5.34375 15.0zm-30.75 -38.25q0 -2.3125 -1.15625 -4.625q-1.15625 -2.3125 -4.09375 -3.4375q-2.625 -1.0 -6.53125 -1.09375q-3.90625 -0.09375 -10.96875 -0.09375l-2.25 0l0 19.6875l3.75 0q5.6875 0 9.6875 -0.1875q4.0 -0.1875 6.3125 -1.25q3.25 -1.4375 4.25 -3.71875q1.0 -2.28125 1.0 -5.28125zm5.875 37.875q0 -4.4375 -1.71875 -6.84375q-1.71875 -2.40625 -5.84375 -3.59375q-2.8125 -0.8125 -7.75 -0.875q-4.9375 -0.0625 -10.3125 -0.0625l-5.25 0l0 23.1875l1.75 0q10.125 0 14.5 -0.0625q4.375 -0.0625 8.0625 -1.625q3.75 -1.5625 5.15625 -4.15625q1.40625 -2.59375 1.40625 -5.96875zm84.8125 30.6875q-10.375 0 -19.15625 -3.0625q-8.78125 -3.0625 -15.09375 -9.125q-6.3125 -6.0625 -9.78125 -15.125q-3.46875 -9.0625 -3.46875 -20.9375q0 -11.0625 3.3125 -20.0625q3.3125 -9.0 9.625 -15.4375q6.0625 -6.1875 15.03125 -9.5625q8.96875 -3.375 19.59375 -3.375q5.875 0 10.59375 0.65625q4.71875 0.65625 8.71875 1.71875q4.1875 1.1875 7.59375 2.65625q3.40625 1.46875 5.96875 2.71875l0 22.5625l-2.75 0q-1.75 -1.5 -4.40625 -3.5625q-2.65625 -2.0625 -6.03125 -4.0625q-3.4375 -2.0 -7.4375 -3.375q-4.0 -1.375 -8.5625 -1.375q-5.0625 0 -9.625 1.59375q-4.5625 1.59375 -8.4375 5.28125q-3.6875 3.5625 -5.96875 9.4375q-2.28125 5.875 -2.28125 14.25q0 8.75 2.46875 14.625q2.46875 5.875 6.21875 9.25q3.8125 3.4375 8.5 4.90625q4.6875 1.46875 9.25 1.46875q4.375 0 8.65625 -1.3125q4.28125 -1.3125 7.90625 -3.5625q3.0625 -1.8125 5.6875 -3.875q2.625 -2.0625 4.3125 -3.5625l2.5 0l0 22.25q-3.5 1.5625 -6.6875 2.9375q-3.1875 1.375 -6.6875 2.375q-4.5625 1.3125 -8.5625 2.0q-4.0 0.6875 -11.0 0.6875zm138.5 -48.25q0 13.0 -5.9375 23.28125q-5.9375 10.28125 -15.0 15.78125q-6.8125 4.125 -14.9375 5.75q-8.125 1.625 -19.25 1.625l-32.8125 0l0 -93.0625l33.75 0q11.375 0 19.625 1.90625q8.25 1.90625 13.875 5.40625q9.625 5.875 15.15625 15.84375q5.53125 9.96875 5.53125 23.46875zm-24.8125 -0.1875q0 -9.1875 -3.34375 -15.71875q-3.34375 -6.53125 -10.59375 -10.21875q-3.6875 -1.8125 -7.53125 -2.46875q-3.84375 -0.65625 -11.59375 -0.65625l-6.0625 0l0 58.25l6.0625 0q8.5625 0 12.5625 -0.78125q4.0 -0.78125 7.8125 -2.84375q6.5625 -3.75 9.625 -10.03125q3.0625 -6.28125 3.0625 -15.53125z" fill-rule="nonzero"></path><path fill="#351c75" d="m315.0 420.15485l23.84253 0l0 -177.4488l47.685028 0l0 177.4488l23.84253 0l-47.68506 47.68506z" fill-rule="evenodd"></path><path stroke="#20124d" stroke-width="1.0" stroke-linejoin="round" stroke-linecap="butt" d="m315.0 420.15485l23.84253 0l0 -177.4488l47.685028 0l0 177.4488l23.84253 0l-47.68506 47.68506z" fill-rule="evenodd"></path><path fill="#000000" fill-opacity="0.0" d="m221.88452 133.60104l540.62994 0l0 80.0945l-540.62994 0z" fill-rule="evenodd"></path><path fill="#4c1130" d="m267.88452 235.4948l-14.734375 0q-7.5 -8.78125 -11.109375 -18.078125q-3.609375 -9.3125 -3.609375 -20.359375q0 -11.0625 3.609375 -20.359375q3.609375 -9.296875 11.109375 -18.078125l14.734375 0l0 1.125q-3.171875 2.859375 -6.046875 6.46875q-2.859375 3.609375 -5.328125 8.453125q-2.34375 4.65625 -3.8125 10.328125q-1.453125 5.65625 -1.453125 12.0625q0 6.671875 1.421875 12.109375q1.421875 5.421875 3.84375 10.28125q2.34375 4.609375 5.296875 8.375q2.953125 3.765625 6.078125 6.546875l0 1.125zm59.492188 -32.34375q0 7.734375 -6.59375 12.65625q-6.578125 4.921875 -18.0625 4.921875q-6.4375 0 -11.046875 -1.328125q-4.609375 -1.328125 -7.625 -3.671875q-2.96875 -2.3125 -4.390625 -5.390625q-1.421875 -3.09375 -1.421875 -6.640625q0 -4.375 2.546875 -7.75q2.5625 -3.390625 8.859375 -5.921875l0 -0.234375q-5.078125 -2.34375 -7.46875 -5.890625q-2.375 -3.5625 -2.375 -8.25q0 -6.921875 6.40625 -11.328125q6.40625 -4.421875 16.671875 -4.421875q10.78125 0 16.890625 4.015625q6.125 4.0 6.125 10.671875q0 4.140625 -2.578125 7.390625q-2.578125 3.234375 -7.890625 5.5l0 0.234375q6.09375 2.3125 9.015625 6.21875q2.9375 3.90625 2.9375 9.21875zm-16.140625 -26.875q0 -2.96875 -2.28125 -4.71875q-2.28125 -1.765625 -6.078125 -1.765625q-1.40625 0 -2.875 0.359375q-1.453125 0.34375 -2.671875 1.0q-1.125 0.671875 -1.875 1.75q-0.734375 1.0625 -0.734375 2.4375q0 2.296875 1.296875 3.59375q1.3125 1.28125 4.28125 2.578125q1.09375 0.46875 2.984375 1.15625q1.90625 0.671875 4.59375 1.53125q1.796875 -2.109375 2.578125 -3.78125q0.78125 -1.6875 0.78125 -4.140625zm1.21875 27.53125q0 -2.8125 -1.40625 -4.25q-1.40625 -1.453125 -5.78125 -3.328125q-1.296875 -0.578125 -3.765625 -1.4375q-2.453125 -0.859375 -4.125 -1.484375q-1.6875 1.515625 -3.03125 3.6875q-1.34375 2.171875 -1.34375 4.859375q0 4.0625 2.90625 6.46875q2.90625 2.40625 7.59375 2.40625q1.25 0 2.921875 -0.375q1.6875 -0.375 2.90625 -1.15625q1.40625 -0.890625 2.265625 -2.09375q0.859375 -1.21875 0.859375 -3.296875zm98.546875 -6.953125q0 10.359375 -5.71875 16.890625q-5.71875 6.515625 -14.28125 6.515625q-3.671875 0 -6.453125 -0.78125q-2.765625 -0.78125 -5.265625 -2.265625l-0.578125 2.1875l-13.484375 0l0 -60.78125l14.0625 0l0 21.484375q3.25 -2.578125 6.625 -4.171875q3.375 -1.609375 7.796875 -1.609375q8.3125 0 12.796875 6.0q4.5 5.984375 4.5 16.53125zm-14.484375 0.28125q0 -5.859375 -2.0 -9.015625q-1.984375 -3.171875 -7.109375 -3.171875q-1.984375 0 -4.09375 0.609375q-2.109375 0.59375 -4.03125 1.734375l0 22.03125q1.53125 0.546875 2.890625 0.75q1.375 0.1875 3.28125 0.1875q5.59375 0 8.328125 -3.28125q2.734375 -3.28125 2.734375 -9.84375zm38.703125 22.265625l-14.0625 0l0 -43.875l14.0625 0l0 43.875zm0.390625 -50.125l-14.84375 0l0 -10.65625l14.84375 0l0 10.65625zm40.9375 49.734375q-2.265625 0.59375 -4.8125 0.921875q-2.53125 0.328125 -6.203125 0.328125q-8.203125 0 -12.203125 -3.3125q-4.0 -3.328125 -4.0 -11.375l0 -20.515625l-5.78125 0l0 -9.53125l5.78125 0l0 -12.53125l14.0625 0l0 12.53125l13.15625 0l0 9.53125l-13.15625 0l0 15.546875q0 2.3125 0.03125 4.03125q0.046875 1.71875 0.625 3.078125q0.546875 1.375 1.9375 2.171875q1.390625 0.796875 4.046875 0.796875q1.09375 0 2.859375 -0.46875q1.78125 -0.46875 2.484375 -0.859375l1.171875 0l0 9.65625zm37.695312 -21.953125q0 11.046875 -3.609375 20.359375q-3.609375 9.296875 -11.109375 18.078125l-14.734375 0l0 -1.125q3.125 -2.78125 6.09375 -6.53125q2.96875 -3.75 5.28125 -8.390625q2.421875 -4.859375 3.84375 -10.28125q1.421875 -5.4375 1.421875 -12.109375q0 -6.40625 -1.46875 -12.0625q-1.453125 -5.671875 -3.796875 -10.328125q-2.46875 -4.84375 -5.34375 -8.453125q-2.859375 -3.609375 -6.03125 -6.46875l0 -1.125l14.734375 0q7.5 8.78125 11.109375 18.078125q3.609375 9.296875 3.609375 20.359375z" fill-rule="nonzero"></path></g></svg>

