<?xml version="1.0" standalone="yes"?>

<svg version="1.1" viewBox="0.0 0.0 2576.4671916010498 1543.1233595800525" fill="none" stroke="none" stroke-linecap="square" stroke-miterlimit="10" xmlns="http://www.w3.org/2000/svg" xmlns:xlink="http://www.w3.org/1999/xlink"><clipPath id="p.0"><path d="m0 0l2576.4673 0l0 1543.1234l-2576.4673 0l0 -1543.1234z" clip-rule="nonzero"></path></clipPath><g clip-path="url(#p.0)"><path fill="#000000" fill-opacity="0.0" d="m0 0l2576.4673 0l0 1543.1234l-2576.4673 0z" fill-rule="evenodd"></path><path fill="#666666" d="m5.0839896 598.4856l0 0c0 -50.666687 41.07348 -91.740204 91.74017 -91.740204l2382.8188 0c24.331055 0 47.665527 9.665497 64.87012 26.870087c17.20459 17.20465 26.870117 40.539124 26.870117 64.87012l0 852.8976c0 50.666748 -41.073486 91.740234 -91.740234 91.740234l-2382.8188 0c-50.6667 0 -91.74017 -41.073486 -91.74017 -91.740234z" fill-rule="evenodd"></path><path stroke="#434343" stroke-width="1.0" stroke-linejoin="round" stroke-linecap="butt" d="m5.0839896 598.4856l0 0c0 -50.666687 41.07348 -91.740204 91.74017 -91.740204l2382.8188 0c24.331055 0 47.665527 9.665497 64.87012 26.870087c17.20459 17.20465 26.870117 40.539124 26.870117 64.87012l0 852.8976c0 50.666748 -41.073486 91.740234 -91.740234 91.740234l-2382.8188 0c-50.6667 0 -91.74017 -41.073486 -91.74017 -91.740234z" fill-rule="evenodd"></path><path fill="#efefef" d="m258.69543 550.357l378.12006 0l0 65.32031l-378.12006 0z" fill-rule="evenodd"></path><path stroke="#cccccc" stroke-width="1.0" stroke-linejoin="round" stroke-linecap="butt" d="m258.69543 550.357l378.12006 0l0 65.32031l-378.12006 0z" fill-rule="evenodd"></path><path fill="#efefef" d="m636.8155 550.3961l44.7406 32.62097l-44.7406 32.62091z" fill-rule="evenodd"></path><path stroke="#cccccc" stroke-width="1.0" stroke-linejoin="round" stroke-linecap="butt" d="m636.8155 550.3961l44.7406 32.62097l-44.7406 32.62091z" fill-rule="evenodd"></path><path fill="#efefef" d="m258.69543 615.638l-44.74063 -32.62091l44.74063 -32.62097z" fill-rule="evenodd"></path><path stroke="#cccccc" stroke-width="1.0" stroke-linejoin="round" stroke-linecap="butt" d="m258.69543 615.638l-44.74063 -32.62091l44.74063 -32.62097z" fill-rule="evenodd"></path><path fill="#efefef" d="m186.60059 994.9714l378.12006 0l0 65.32037l-378.12006 0z" fill-rule="evenodd"></path><path stroke="#cccccc" stroke-width="1.0" stroke-linejoin="round" stroke-linecap="butt" d="m186.60059 994.9714l378.12006 0l0 65.32037l-378.12006 0z" fill-rule="evenodd"></path><path fill="#efefef" d="m564.72064 995.01056l44.7406 32.62091l-44.7406 32.62097z" fill-rule="evenodd"></path><path stroke="#cccccc" stroke-width="1.0" stroke-linejoin="round" stroke-linecap="butt" d="m564.72064 995.01056l44.7406 32.62091l-44.7406 32.62097z" fill-rule="evenodd"></path><path fill="#efefef" d="m186.60059 1060.2524l-44.74063 -32.62097l44.74063 -32.62091z" fill-rule="evenodd"></path><path stroke="#cccccc" stroke-width="1.0" stroke-linejoin="round" stroke-linecap="butt" d="m186.60059 1060.2524l-44.74063 -32.62097l44.74063 -32.62091z" fill-rule="evenodd"></path><path fill="#efefef" d="m231.19388 635.9612l-55.36656 352.7539l-64.257744 -10.08783l55.366554 -352.7539z" fill-rule="evenodd"></path><path stroke="#cccccc" stroke-width="1.0" stroke-linejoin="round" stroke-linecap="butt" d="m231.19388 635.9612l-55.36656 352.7539l-64.257744 -10.08783l55.366554 -352.7539z" fill-rule="evenodd"></path><path fill="#efefef" d="m175.78882 988.70905l-38.641495 36.701355l-25.539116 -46.7771z" fill-rule="evenodd"></path><path stroke="#cccccc" stroke-width="1.0" stroke-linejoin="round" stroke-linecap="butt" d="m175.78882 988.70905l-38.641495 36.701355l-25.539116 -46.7771z" fill-rule="evenodd"></path><path fill="#efefef" d="m166.97476 625.8794l38.641495 -36.701294l25.539108 46.77704z" fill-rule="evenodd"></path><path stroke="#cccccc" stroke-width="1.0" stroke-linejoin="round" stroke-linecap="butt" d="m166.97476 625.8794l38.641495 -36.701294l25.539108 46.77704z" fill-rule="evenodd"></path><path fill="#efefef" d="m705.3934 635.9612l-55.366577 352.7539l-64.25775 -10.08783l55.366577 -352.7539z" fill-rule="evenodd"></path><path stroke="#cccccc" stroke-width="1.0" stroke-linejoin="round" stroke-linecap="butt" d="m705.3934 635.9612l-55.366577 352.7539l-64.25775 -10.08783l55.366577 -352.7539z" fill-rule="evenodd"></path><path fill="#efefef" d="m649.9883 988.70905l-38.64148 36.701355l-25.539124 -46.7771z" fill-rule="evenodd"></path><path stroke="#cccccc" stroke-width="1.0" stroke-linejoin="round" stroke-linecap="butt" d="m649.9883 988.70905l-38.64148 36.701355l-25.539124 -46.7771z" fill-rule="evenodd"></path><path fill="#efefef" d="m641.17426 625.8794l38.64148 -36.701294l25.539124 46.77704z" fill-rule="evenodd"></path><path stroke="#cccccc" stroke-width="1.0" stroke-linejoin="round" stroke-linecap="butt" d="m641.17426 625.8794l38.64148 -36.701294l25.539124 46.77704z" fill-rule="evenodd"></path><path fill="#efefef" d="m110.731316 1443.181l378.12006 0l0 65.32031l-378.12006 0z" fill-rule="evenodd"></path><path stroke="#cccccc" stroke-width="1.0" stroke-linejoin="round" stroke-linecap="butt" d="m110.731316 1443.181l378.12006 0l0 65.32031l-378.12006 0z" fill-rule="evenodd"></path><path fill="#efefef" d="m488.85138 1443.2202l44.7406 32.62085l-44.7406 32.62097z" fill-rule="evenodd"></path><path stroke="#cccccc" stroke-width="1.0" stroke-linejoin="round" stroke-linecap="butt" d="m488.85138 1443.2202l44.7406 32.62085l-44.7406 32.62097z" fill-rule="evenodd"></path><path fill="#efefef" d="m110.731316 1508.462l-44.74063 -32.62097l44.74063 -32.62085z" fill-rule="evenodd"></path><path stroke="#cccccc" stroke-width="1.0" stroke-linejoin="round" stroke-linecap="butt" d="m110.731316 1508.462l-44.74063 -32.62097l44.74063 -32.62085z" fill-rule="evenodd"></path><path fill="#efefef" d="m159.5482 1082.2814l-55.366547 352.7539l-64.25775 -10.087769l55.366547 -352.7539z" fill-rule="evenodd"></path><path stroke="#cccccc" stroke-width="1.0" stroke-linejoin="round" stroke-linecap="butt" d="m159.5482 1082.2814l-55.366547 352.7539l-64.25775 -10.087769l55.366547 -352.7539z" fill-rule="evenodd"></path><path fill="#efefef" d="m104.14315 1435.0292l-38.641487 36.701416l-25.539124 -46.7771z" fill-rule="evenodd"></path><path stroke="#cccccc" stroke-width="1.0" stroke-linejoin="round" stroke-linecap="butt" d="m104.14315 1435.0292l-38.641487 36.701416l-25.539124 -46.7771z" fill-rule="evenodd"></path><path fill="#efefef" d="m95.329094 1072.1996l38.641487 -36.701294l25.539124 46.7771z" fill-rule="evenodd"></path><path stroke="#cccccc" stroke-width="1.0" stroke-linejoin="round" stroke-linecap="butt" d="m95.329094 1072.1996l38.641487 -36.701294l25.539124 46.7771z" fill-rule="evenodd"></path><path fill="#efefef" d="m633.7477 1082.2814l-55.366577 352.7539l-64.25775 -10.087769l55.366577 -352.7539z" fill-rule="evenodd"></path><path stroke="#cccccc" stroke-width="1.0" stroke-linejoin="round" stroke-linecap="butt" d="m633.7477 1082.2814l-55.366577 352.7539l-64.25775 -10.087769l55.366577 -352.7539z" fill-rule="evenodd"></path><path fill="#efefef" d="m578.34265 1435.0292l-38.64154 36.701416l-25.539124 -46.7771z" fill-rule="evenodd"></path><path stroke="#cccccc" stroke-width="1.0" stroke-linejoin="round" stroke-linecap="butt" d="m578.34265 1435.0292l-38.64154 36.701416l-25.539124 -46.7771z" fill-rule="evenodd"></path><path fill="#efefef" d="m569.52856 1072.1996l38.64148 -36.701294l25.539124 46.7771z" fill-rule="evenodd"></path><path stroke="#cccccc" stroke-width="1.0" stroke-linejoin="round" stroke-linecap="butt" d="m569.52856 1072.1996l38.64148 -36.701294l25.539124 46.7771z" fill-rule="evenodd"></path><path fill="#efefef" d="m865.6193 548.5591l378.12006 0l0 65.32031l-378.12006 0z" fill-rule="evenodd"></path><path stroke="#cccccc" stroke-width="1.0" stroke-linejoin="round" stroke-linecap="butt" d="m865.6193 548.5591l378.12006 0l0 65.32031l-378.12006 0z" fill-rule="evenodd"></path><path fill="#efefef" d="m1243.7394 548.5982l44.7406 32.62097l-44.7406 32.62097z" fill-rule="evenodd"></path><path stroke="#cccccc" stroke-width="1.0" stroke-linejoin="round" stroke-linecap="butt" d="m1243.7394 548.5982l44.7406 32.62097l-44.7406 32.62097z" fill-rule="evenodd"></path><path fill="#efefef" d="m865.6193 613.84015l-44.74066 -32.62097l44.74066 -32.62097z" fill-rule="evenodd"></path><path stroke="#cccccc" stroke-width="1.0" stroke-linejoin="round" stroke-linecap="butt" d="m865.6193 613.84015l-44.74066 -32.62097l44.74066 -32.62097z" fill-rule="evenodd"></path><path fill="#efefef" d="m793.5245 993.1735l378.12006 0l0 65.32025l-378.12006 0z" fill-rule="evenodd"></path><path stroke="#cccccc" stroke-width="1.0" stroke-linejoin="round" stroke-linecap="butt" d="m793.5245 993.1735l378.12006 0l0 65.32025l-378.12006 0z" fill-rule="evenodd"></path><path fill="#efefef" d="m1171.6445 993.21265l44.7406 32.62097l-44.7406 32.62097z" fill-rule="evenodd"></path><path stroke="#cccccc" stroke-width="1.0" stroke-linejoin="round" stroke-linecap="butt" d="m1171.6445 993.21265l44.7406 32.62097l-44.7406 32.62097z" fill-rule="evenodd"></path><path fill="#efefef" d="m793.5245 1058.4546l-44.74066 -32.62097l44.74066 -32.62097z" fill-rule="evenodd"></path><path stroke="#cccccc" stroke-width="1.0" stroke-linejoin="round" stroke-linecap="butt" d="m793.5245 1058.4546l-44.74066 -32.62097l44.74066 -32.62097z" fill-rule="evenodd"></path><path fill="#efefef" d="m838.11774 634.16327l-55.366516 352.7539l-64.25775 -10.08783l55.366516 -352.7539z" fill-rule="evenodd"></path><path stroke="#cccccc" stroke-width="1.0" stroke-linejoin="round" stroke-linecap="butt" d="m838.11774 634.16327l-55.366516 352.7539l-64.25775 -10.08783l55.366516 -352.7539z" fill-rule="evenodd"></path><path fill="#efefef" d="m782.7127 986.91113l-38.64148 36.701355l-25.539124 -46.7771z" fill-rule="evenodd"></path><path stroke="#cccccc" stroke-width="1.0" stroke-linejoin="round" stroke-linecap="butt" d="m782.7127 986.91113l-38.64148 36.701355l-25.539124 -46.7771z" fill-rule="evenodd"></path><path fill="#efefef" d="m773.8986 624.08154l38.64154 -36.701355l25.539124 46.77704z" fill-rule="evenodd"></path><path stroke="#cccccc" stroke-width="1.0" stroke-linejoin="round" stroke-linecap="butt" d="m773.8986 624.08154l38.64154 -36.701355l25.539124 46.77704z" fill-rule="evenodd"></path><path fill="#efefef" d="m1312.3173 634.16327l-55.366577 352.7539l-64.25781 -10.08783l55.366577 -352.7539z" fill-rule="evenodd"></path><path stroke="#cccccc" stroke-width="1.0" stroke-linejoin="round" stroke-linecap="butt" d="m1312.3173 634.16327l-55.366577 352.7539l-64.25781 -10.08783l55.366577 -352.7539z" fill-rule="evenodd"></path><path fill="#efefef" d="m1256.9122 986.91113l-38.6416 36.701355l-25.539062 -46.7771z" fill-rule="evenodd"></path><path stroke="#cccccc" stroke-width="1.0" stroke-linejoin="round" stroke-linecap="butt" d="m1256.9122 986.91113l-38.6416 36.701355l-25.539062 -46.7771z" fill-rule="evenodd"></path><path fill="#efefef" d="m1248.0981 624.08154l38.64148 -36.701355l25.539062 46.77704z" fill-rule="evenodd"></path><path stroke="#cccccc" stroke-width="1.0" stroke-linejoin="round" stroke-linecap="butt" d="m1248.0981 624.08154l38.64148 -36.701355l25.539062 46.77704z" fill-rule="evenodd"></path><path fill="#efefef" d="m717.6552 1441.3832l378.12006 0l0 65.32031l-378.12006 0z" fill-rule="evenodd"></path><path stroke="#cccccc" stroke-width="1.0" stroke-linejoin="round" stroke-linecap="butt" d="m717.6552 1441.3832l378.12006 0l0 65.32031l-378.12006 0z" fill-rule="evenodd"></path><path fill="#efefef" d="m1095.7753 1441.4222l44.7406 32.62097l-44.7406 32.62097z" fill-rule="evenodd"></path><path stroke="#cccccc" stroke-width="1.0" stroke-linejoin="round" stroke-linecap="butt" d="m1095.7753 1441.4222l44.7406 32.62097l-44.7406 32.62097z" fill-rule="evenodd"></path><path fill="#efefef" d="m717.6552 1506.6642l-44.74066 -32.62097l44.74066 -32.62097z" fill-rule="evenodd"></path><path stroke="#cccccc" stroke-width="1.0" stroke-linejoin="round" stroke-linecap="butt" d="m717.6552 1506.6642l-44.74066 -32.62097l44.74066 -32.62097z" fill-rule="evenodd"></path><path fill="#efefef" d="m766.4721 1080.4835l-55.366577 352.7539l-64.25775 -10.087891l55.366577 -352.7539z" fill-rule="evenodd"></path><path stroke="#cccccc" stroke-width="1.0" stroke-linejoin="round" stroke-linecap="butt" d="m766.4721 1080.4835l-55.366577 352.7539l-64.25775 -10.087891l55.366577 -352.7539z" fill-rule="evenodd"></path><path fill="#efefef" d="m711.067 1433.2313l-38.64148 36.701294l-25.539124 -46.776978z" fill-rule="evenodd"></path><path stroke="#cccccc" stroke-width="1.0" stroke-linejoin="round" stroke-linecap="butt" d="m711.067 1433.2313l-38.64148 36.701294l-25.539124 -46.776978z" fill-rule="evenodd"></path><path fill="#efefef" d="m702.253 1070.4017l38.64148 -36.701294l25.539124 46.776978z" fill-rule="evenodd"></path><path stroke="#cccccc" stroke-width="1.0" stroke-linejoin="round" stroke-linecap="butt" d="m702.253 1070.4017l38.64148 -36.701294l25.539124 46.776978z" fill-rule="evenodd"></path><path fill="#efefef" d="m1240.6715 1080.4835l-55.366455 352.7539l-64.25781 -10.087891l55.366577 -352.7539z" fill-rule="evenodd"></path><path stroke="#cccccc" stroke-width="1.0" stroke-linejoin="round" stroke-linecap="butt" d="m1240.6715 1080.4835l-55.366455 352.7539l-64.25781 -10.087891l55.366577 -352.7539z" fill-rule="evenodd"></path><path fill="#efefef" d="m1185.2665 1433.2313l-38.64148 36.701294l-25.539062 -46.776978z" fill-rule="evenodd"></path><path stroke="#cccccc" stroke-width="1.0" stroke-linejoin="round" stroke-linecap="butt" d="m1185.2665 1433.2313l-38.64148 36.701294l-25.539062 -46.776978z" fill-rule="evenodd"></path><path fill="#efefef" d="m1176.4524 1070.4017l38.6416 -36.701294l25.539062 46.776978z" fill-rule="evenodd"></path><path stroke="#cccccc" stroke-width="1.0" stroke-linejoin="round" stroke-linecap="butt" d="m1176.4524 1070.4017l38.6416 -36.701294l25.539062 46.776978z" fill-rule="evenodd"></path><path fill="#ff0000" d="m2079.467 547.66016l378.12012 0l0 65.32031l-378.12012 0z" fill-rule="evenodd"></path><path stroke="#ff0000" stroke-width="1.0" stroke-linejoin="round" stroke-linecap="butt" d="m2079.467 547.66016l378.12012 0l0 65.32031l-378.12012 0z" fill-rule="evenodd"></path><path fill="#ff0000" d="m2457.5872 547.6993l44.740723 32.62097l-44.740723 32.62091z" fill-rule="evenodd"></path><path stroke="#ff0000" stroke-width="1.0" stroke-linejoin="round" stroke-linecap="butt" d="m2457.5872 547.6993l44.740723 32.62097l-44.740723 32.62091z" fill-rule="evenodd"></path><path fill="#ff0000" d="m2079.467 612.94116l-44.7406 -32.62091l44.7406 -32.62097z" fill-rule="evenodd"></path><path stroke="#ff0000" stroke-width="1.0" stroke-linejoin="round" stroke-linecap="butt" d="m2079.467 612.94116l-44.7406 -32.62091l44.7406 -32.62097z" fill-rule="evenodd"></path><path fill="#ff0000" d="m2007.3722 992.27454l378.12 0l0 65.32031l-378.12 0z" fill-rule="evenodd"></path><path stroke="#ff0000" stroke-width="1.0" stroke-linejoin="round" stroke-linecap="butt" d="m2007.3722 992.27454l378.12 0l0 65.32031l-378.12 0z" fill-rule="evenodd"></path><path fill="#ff0000" d="m2385.4922 992.3137l44.740723 32.62097l-44.740723 32.62085z" fill-rule="evenodd"></path><path stroke="#ff0000" stroke-width="1.0" stroke-linejoin="round" stroke-linecap="butt" d="m2385.4922 992.3137l44.740723 32.62097l-44.740723 32.62085z" fill-rule="evenodd"></path><path fill="#ff0000" d="m2007.3722 1057.5555l-44.7406 -32.62085l44.7406 -32.62097z" fill-rule="evenodd"></path><path stroke="#ff0000" stroke-width="1.0" stroke-linejoin="round" stroke-linecap="butt" d="m2007.3722 1057.5555l-44.7406 -32.62085l44.7406 -32.62097z" fill-rule="evenodd"></path><path fill="#ff0000" d="m2051.9656 633.26434l-55.366577 352.75385l-64.25781 -10.087769l55.366577 -352.7539z" fill-rule="evenodd"></path><path stroke="#ff0000" stroke-width="1.0" stroke-linejoin="round" stroke-linecap="butt" d="m2051.9656 633.26434l-55.366577 352.75385l-64.25781 -10.087769l55.366577 -352.7539z" fill-rule="evenodd"></path><path fill="#ff0000" d="m1996.5604 986.01215l-38.64148 36.701355l-25.539062 -46.77704z" fill-rule="evenodd"></path><path stroke="#ff0000" stroke-width="1.0" stroke-linejoin="round" stroke-linecap="butt" d="m1996.5604 986.01215l-38.64148 36.701355l-25.539062 -46.77704z" fill-rule="evenodd"></path><path fill="#ff0000" d="m1987.7465 623.18256l38.64148 -36.701355l25.539062 46.7771z" fill-rule="evenodd"></path><path stroke="#ff0000" stroke-width="1.0" stroke-linejoin="round" stroke-linecap="butt" d="m1987.7465 623.18256l38.64148 -36.701355l25.539062 46.7771z" fill-rule="evenodd"></path><path fill="#ff0000" d="m2526.165 633.26434l-55.3667 352.75385l-64.25757 -10.087769l55.366455 -352.7539z" fill-rule="evenodd"></path><path stroke="#ff0000" stroke-width="1.0" stroke-linejoin="round" stroke-linecap="butt" d="m2526.165 633.26434l-55.3667 352.75385l-64.25757 -10.087769l55.366455 -352.7539z" fill-rule="evenodd"></path><path fill="#ff0000" d="m2470.76 986.01215l-38.6416 36.701355l-25.539062 -46.77704z" fill-rule="evenodd"></path><path stroke="#ff0000" stroke-width="1.0" stroke-linejoin="round" stroke-linecap="butt" d="m2470.76 986.01215l-38.6416 36.701355l-25.539062 -46.77704z" fill-rule="evenodd"></path><path fill="#ff0000" d="m2461.9458 623.18256l38.6416 -36.701355l25.539062 46.7771z" fill-rule="evenodd"></path><path stroke="#ff0000" stroke-width="1.0" stroke-linejoin="round" stroke-linecap="butt" d="m2461.9458 623.18256l38.6416 -36.701355l25.539062 46.7771z" fill-rule="evenodd"></path><path fill="#ff0000" d="m1931.5029 1440.4841l378.12012 0l0 65.32031l-378.12012 0z" fill-rule="evenodd"></path><path stroke="#ff0000" stroke-width="1.0" stroke-linejoin="round" stroke-linecap="butt" d="m1931.5029 1440.4841l378.12012 0l0 65.32031l-378.12012 0z" fill-rule="evenodd"></path><path fill="#ff0000" d="m2309.623 1440.5233l44.740723 32.62097l-44.740723 32.62097z" fill-rule="evenodd"></path><path stroke="#ff0000" stroke-width="1.0" stroke-linejoin="round" stroke-linecap="butt" d="m2309.623 1440.5233l44.740723 32.62097l-44.740723 32.62097z" fill-rule="evenodd"></path><path fill="#ff0000" d="m1931.5029 1505.7653l-44.7406 -32.62097l44.7406 -32.62097z" fill-rule="evenodd"></path><path stroke="#ff0000" stroke-width="1.0" stroke-linejoin="round" stroke-linecap="butt" d="m1931.5029 1505.7653l-44.7406 -32.62097l44.7406 -32.62097z" fill-rule="evenodd"></path><path fill="#ff0000" d="m1980.3198 1079.5846l-55.366577 352.75378l-64.25769 -10.087769l55.366577 -352.7539z" fill-rule="evenodd"></path><path stroke="#ff0000" stroke-width="1.0" stroke-linejoin="round" stroke-linecap="butt" d="m1980.3198 1079.5846l-55.366577 352.75378l-64.25769 -10.087769l55.366577 -352.7539z" fill-rule="evenodd"></path><path fill="#ff0000" d="m1924.9148 1432.3324l-38.64148 36.701294l-25.539062 -46.776978z" fill-rule="evenodd"></path><path stroke="#ff0000" stroke-width="1.0" stroke-linejoin="round" stroke-linecap="butt" d="m1924.9148 1432.3324l-38.64148 36.701294l-25.539062 -46.776978z" fill-rule="evenodd"></path><path fill="#ff0000" d="m1916.1007 1069.5028l38.64148 -36.701416l25.539185 46.7771z" fill-rule="evenodd"></path><path stroke="#ff0000" stroke-width="1.0" stroke-linejoin="round" stroke-linecap="butt" d="m1916.1007 1069.5028l38.64148 -36.701416l25.539185 46.7771z" fill-rule="evenodd"></path><path fill="#ff0000" d="m2454.5193 1079.5846l-55.366455 352.75378l-64.25781 -10.087769l55.366455 -352.7539z" fill-rule="evenodd"></path><path stroke="#ff0000" stroke-width="1.0" stroke-linejoin="round" stroke-linecap="butt" d="m2454.5193 1079.5846l-55.366455 352.75378l-64.25781 -10.087769l55.366455 -352.7539z" fill-rule="evenodd"></path><path fill="#ff0000" d="m2399.1143 1432.3324l-38.641357 36.701294l-25.539307 -46.776978z" fill-rule="evenodd"></path><path stroke="#ff0000" stroke-width="1.0" stroke-linejoin="round" stroke-linecap="butt" d="m2399.1143 1432.3324l-38.641357 36.701294l-25.539307 -46.776978z" fill-rule="evenodd"></path><path fill="#ff0000" d="m2390.3003 1069.5028l38.641357 -36.701416l25.539062 46.7771z" fill-rule="evenodd"></path><path stroke="#ff0000" stroke-width="1.0" stroke-linejoin="round" stroke-linecap="butt" d="m2390.3003 1069.5028l38.641357 -36.701416l25.539062 46.7771z" fill-rule="evenodd"></path><path fill="#efefef" d="m1475.5446 548.5591l378.12 0l0 65.32031l-378.12 0z" fill-rule="evenodd"></path><path stroke="#cccccc" stroke-width="1.0" stroke-linejoin="round" stroke-linecap="butt" d="m1475.5446 548.5591l378.12 0l0 65.32031l-378.12 0z" fill-rule="evenodd"></path><path fill="#efefef" d="m1853.6646 548.5982l44.7406 32.62097l-44.7406 32.62097z" fill-rule="evenodd"></path><path stroke="#cccccc" stroke-width="1.0" stroke-linejoin="round" stroke-linecap="butt" d="m1853.6646 548.5982l44.7406 32.62097l-44.7406 32.62097z" fill-rule="evenodd"></path><path fill="#efefef" d="m1475.5446 613.84015l-44.740723 -32.62097l44.740723 -32.62097z" fill-rule="evenodd"></path><path stroke="#cccccc" stroke-width="1.0" stroke-linejoin="round" stroke-linecap="butt" d="m1475.5446 613.84015l-44.740723 -32.62097l44.740723 -32.62097z" fill-rule="evenodd"></path><path fill="#efefef" d="m1403.4497 993.1735l378.12 0l0 65.32025l-378.12 0z" fill-rule="evenodd"></path><path stroke="#cccccc" stroke-width="1.0" stroke-linejoin="round" stroke-linecap="butt" d="m1403.4497 993.1735l378.12 0l0 65.32025l-378.12 0z" fill-rule="evenodd"></path><path fill="#efefef" d="m1781.5697 993.21265l44.7406 32.62097l-44.7406 32.62097z" fill-rule="evenodd"></path><path stroke="#cccccc" stroke-width="1.0" stroke-linejoin="round" stroke-linecap="butt" d="m1781.5697 993.21265l44.7406 32.62097l-44.7406 32.62097z" fill-rule="evenodd"></path><path fill="#efefef" d="m1403.4497 1058.4546l-44.740723 -32.62097l44.740723 -32.62097z" fill-rule="evenodd"></path><path stroke="#cccccc" stroke-width="1.0" stroke-linejoin="round" stroke-linecap="butt" d="m1403.4497 1058.4546l-44.740723 -32.62097l44.740723 -32.62097z" fill-rule="evenodd"></path><path fill="#efefef" d="m1448.043 634.16327l-55.366577 352.7539l-64.25769 -10.08783l55.366455 -352.7539z" fill-rule="evenodd"></path><path stroke="#cccccc" stroke-width="1.0" stroke-linejoin="round" stroke-linecap="butt" d="m1448.043 634.16327l-55.366577 352.7539l-64.25769 -10.08783l55.366455 -352.7539z" fill-rule="evenodd"></path><path fill="#efefef" d="m1392.638 986.91113l-38.64148 36.701355l-25.539185 -46.7771z" fill-rule="evenodd"></path><path stroke="#cccccc" stroke-width="1.0" stroke-linejoin="round" stroke-linecap="butt" d="m1392.638 986.91113l-38.64148 36.701355l-25.539185 -46.7771z" fill-rule="evenodd"></path><path fill="#efefef" d="m1383.8239 624.08154l38.64148 -36.701355l25.539062 46.77704z" fill-rule="evenodd"></path><path stroke="#cccccc" stroke-width="1.0" stroke-linejoin="round" stroke-linecap="butt" d="m1383.8239 624.08154l38.64148 -36.701355l25.539062 46.77704z" fill-rule="evenodd"></path><path fill="#efefef" d="m1922.2424 634.16327l-55.366577 352.7539l-64.25769 -10.08783l55.366455 -352.7539z" fill-rule="evenodd"></path><path stroke="#cccccc" stroke-width="1.0" stroke-linejoin="round" stroke-linecap="butt" d="m1922.2424 634.16327l-55.366577 352.7539l-64.25769 -10.08783l55.366455 -352.7539z" fill-rule="evenodd"></path><path fill="#efefef" d="m1866.8374 986.91113l-38.64148 36.701355l-25.539185 -46.7771z" fill-rule="evenodd"></path><path stroke="#cccccc" stroke-width="1.0" stroke-linejoin="round" stroke-linecap="butt" d="m1866.8374 986.91113l-38.64148 36.701355l-25.539185 -46.7771z" fill-rule="evenodd"></path><path fill="#efefef" d="m1858.0233 624.08154l38.64148 -36.701355l25.539185 46.77704z" fill-rule="evenodd"></path><path stroke="#cccccc" stroke-width="1.0" stroke-linejoin="round" stroke-linecap="butt" d="m1858.0233 624.08154l38.64148 -36.701355l25.539185 46.77704z" fill-rule="evenodd"></path><path fill="#efefef" d="m1327.5804 1441.3832l378.12 0l0 65.32031l-378.12 0z" fill-rule="evenodd"></path><path stroke="#cccccc" stroke-width="1.0" stroke-linejoin="round" stroke-linecap="butt" d="m1327.5804 1441.3832l378.12 0l0 65.32031l-378.12 0z" fill-rule="evenodd"></path><path fill="#efefef" d="m1705.7004 1441.4222l44.7406 32.62097l-44.7406 32.62097z" fill-rule="evenodd"></path><path stroke="#cccccc" stroke-width="1.0" stroke-linejoin="round" stroke-linecap="butt" d="m1705.7004 1441.4222l44.7406 32.62097l-44.7406 32.62097z" fill-rule="evenodd"></path><path fill="#efefef" d="m1327.5804 1506.6642l-44.740723 -32.62097l44.740723 -32.62097z" fill-rule="evenodd"></path><path stroke="#cccccc" stroke-width="1.0" stroke-linejoin="round" stroke-linecap="butt" d="m1327.5804 1506.6642l-44.740723 -32.62097l44.740723 -32.62097z" fill-rule="evenodd"></path><path fill="#efefef" d="m1376.3973 1080.4835l-55.366577 352.7539l-64.25781 -10.087891l55.366577 -352.7539z" fill-rule="evenodd"></path><path stroke="#cccccc" stroke-width="1.0" stroke-linejoin="round" stroke-linecap="butt" d="m1376.3973 1080.4835l-55.366577 352.7539l-64.25781 -10.087891l55.366577 -352.7539z" fill-rule="evenodd"></path><path fill="#efefef" d="m1320.9922 1433.2313l-38.64148 36.701294l-25.539062 -46.776978z" fill-rule="evenodd"></path><path stroke="#cccccc" stroke-width="1.0" stroke-linejoin="round" stroke-linecap="butt" d="m1320.9922 1433.2313l-38.64148 36.701294l-25.539062 -46.776978z" fill-rule="evenodd"></path><path fill="#efefef" d="m1312.1782 1070.4017l38.64148 -36.701294l25.539062 46.776978z" fill-rule="evenodd"></path><path stroke="#cccccc" stroke-width="1.0" stroke-linejoin="round" stroke-linecap="butt" d="m1312.1782 1070.4017l38.64148 -36.701294l25.539062 46.776978z" fill-rule="evenodd"></path><path fill="#efefef" d="m1850.5968 1080.4835l-55.366577 352.7539l-64.25781 -10.087891l55.366577 -352.7539z" fill-rule="evenodd"></path><path stroke="#cccccc" stroke-width="1.0" stroke-linejoin="round" stroke-linecap="butt" d="m1850.5968 1080.4835l-55.366577 352.7539l-64.25781 -10.087891l55.366577 -352.7539z" fill-rule="evenodd"></path><path fill="#efefef" d="m1795.1917 1433.2313l-38.64148 36.701294l-25.539062 -46.776978z" fill-rule="evenodd"></path><path stroke="#cccccc" stroke-width="1.0" stroke-linejoin="round" stroke-linecap="butt" d="m1795.1917 1433.2313l-38.64148 36.701294l-25.539062 -46.776978z" fill-rule="evenodd"></path><path fill="#efefef" d="m1786.3777 1070.4017l38.64148 -36.701294l25.539062 46.776978z" fill-rule="evenodd"></path><path stroke="#cccccc" stroke-width="1.0" stroke-linejoin="round" stroke-linecap="butt" d="m1786.3777 1070.4017l38.64148 -36.701294l25.539062 46.776978z" fill-rule="evenodd"></path><path fill="#741b47" d="m119.61528 16.1601l0 53.938385l171.32674 0c-10.053406 15.381271 -20.665344 33.46466 -31.835785 54.250168l-157.29385 292.76382l0 56.12088l242.74777 0l0 -53.938385l-196.04134 0l18.640686 -32.113617l172.37395 -317.0829l0 -53.938385z" fill-rule="evenodd"></path><path fill="#741b47" d="m475.2544 180.78131c19.129364 0 34.69818 10.808456 46.70642 32.425385c7.819336 13.926285 12.566772 34.81572 14.24231 62.668304l-124.201385 0c1.2566528 -28.891861 7.772766 -51.963776 19.548279 -69.215744c11.822052 -17.251968 26.390167 -25.877945 43.704376 -25.877945zm-0.4189148 -46.14383c-30.71872 0 -55.712585 15.381271 -74.98163 46.14383c-19.269012 30.762543 -28.903503 73.9964 -28.903503 129.70154c0 53.834473 9.518158 95.68262 28.554443 125.544464c19.082855 29.792542 44.891235 44.688843 77.42517 44.688843c25.831635 0 47.05551 -9.353485 63.67154 -28.060425c16.616028 -18.70697 27.99591 -45.00064 34.13965 -78.88101l-38.95691 -7.17099c-5.7248535 23.695465 -13.474365 40.94745 -23.248474 51.75589c-9.77417 10.808472 -21.572937 16.212708 -35.396362 16.212708c-18.570892 0 -34.069885 -9.665253 -46.49701 -28.995789c-12.427124 -19.330505 -19.338837 -47.183075 -20.735138 -83.55771l165.88113 0c0.13964844 -6.651367 0.20947266 -11.639893 0.20947266 -14.965576c0 -54.66588 -9.42511 -97.06831 -28.275208 -127.20729c-18.850159 -30.138992 -43.145844 -45.20848 -72.88718 -45.20848z" fill-rule="evenodd"></path><path fill="#741b47" d="m726.7989 134.63748c-30.858398 0 -54.455933 18.187317 -70.792725 54.56195l0 -47.079163l-33.930237 0l0 331.1131l37.700256 0l0 -180.8339c0 -42.402435 5.817932 -71.19037 17.453857 -86.363785c11.682373 -15.173416 25.552368 -22.760132 41.609924 -22.760132c10.053345 0 18.803528 3.394989 26.25055 10.184906c7.493469 6.7206573 12.70636 15.762344 15.638611 27.125076c2.932251 11.293472 4.3983765 28.372223 4.3983765 51.236267l0 201.41156l37.700256 0l0 -203.59402c0 -25.981888 -0.69818115 -44.169205 -2.0944824 -54.56195c-2.2340698 -16.004837 -6.143738 -29.82721 -11.728943 -41.467087c-5.585266 -11.639877 -14.009644 -21.028 -25.273193 -28.164352c-11.21698 -7.2056427 -23.52771 -10.808472 -36.93225 -10.808472z" fill-rule="evenodd"></path><path fill="#741b47" d="m955.7232 180.78131c16.336792 0 30.253296 10.288818 41.749573 30.86647c11.542786 20.577652 17.314209 52.483414 17.314209 95.71724c0 42.19458 -6.0041504 73.96176 -18.01239 95.301544c-12.00824 21.270508 -26.25055 31.905762 -42.72693 31.905762c-20.24646 0 -36.303955 -14.445923 -48.172546 -43.33777c-7.260803 -17.667694 -10.891174 -46.351685 -10.891174 -86.052c0 -40.323883 6.0040894 -71.12106 18.01233 -92.39157c12.00824 -21.339783 26.25055 -32.009674 42.72693 -32.009674zm-95.29785 -164.62122l0 457.07327l34.977478 0l0 -41.46707c14.94043 32.63324 35.53595 48.94986 61.7865 48.94986c26.390198 0 49.010376 -15.485199 67.86047 -46.455597c18.850098 -30.970428 28.275146 -74.82782 28.275146 -131.57227c0 -23.90332 -2.2340088 -46.351685 -6.7022705 -67.34503c-4.4681396 -20.993362 -10.658447 -38.903534 -18.5708 -53.73053c-7.865906 -14.896271 -17.919312 -26.432236 -30.160217 -34.60788c-12.194458 -8.244904 -25.133484 -12.367371 -38.81732 -12.367371c-24.7146 0 -45.030823 14.861633 -60.94873 44.584915l0 -163.0623z" fill-rule="evenodd"></path><path fill="#741b47" d="m1241.198 307.05325l0 20.577637c0 24.734772 -2.0246582 43.44171 -6.0739746 56.12088c-5.305908 16.420532 -13.614014 29.376831 -24.924072 38.868896c-11.310059 9.4227295 -24.225952 14.134125 -38.747437 14.134125c-14.661255 0 -25.808472 -4.988495 -33.44153 -14.965546c-7.58667 -9.977051 -11.379883 -22.448364 -11.379883 -37.41391c0 -9.769196 1.7453613 -18.637695 5.236084 -26.605438c3.4908447 -8.037079 8.447632 -14.134155 14.870728 -18.29126c6.4229736 -4.1571045 17.383911 -7.8984985 32.882935 -11.224182c27.367554 -5.819916 47.89331 -12.886993 61.57715 -21.201202zm-47.963135 -172.41577c-19.129395 0 -35.954834 3.9146118 -50.47644 11.743805c-14.521606 7.7599335 -25.622192 18.880188 -33.30188 33.36075c-7.6796875 14.411285 -13.19519 33.360733 -16.546265 56.84836l36.862427 7.482773c4.0493164 -23.487625 10.286133 -39.838867 18.710571 -49.053787c8.470825 -9.28418 21.572876 -13.926285 39.30603 -13.926285c18.989746 0 33.30188 6.339569 42.9364 19.018738c7.1210938 9.35347 10.681641 25.462234 10.681641 48.326294c0 2.0785522 -0.06982422 6.96315 -0.20935059 14.653793c-14.381958 7.4827576 -36.792725 13.92627 -67.23218 19.330505c-14.94043 2.702118 -26.110962 5.508148 -33.511353 8.418121c-10.053345 4.1571045 -19.10608 10.288849 -27.158081 18.395172c-8.005615 8.106354 -14.498413 18.880157 -19.478516 32.321472c-4.9335938 13.371979 -7.4003906 28.164368 -7.4003906 44.377045c0 27.644745 6.562622 50.37021 19.687866 68.17645c13.125244 17.736969 31.90564 26.605469 56.340942 26.605469c14.800903 0 28.647583 -3.6374817 41.54016 -10.912384c12.939087 -7.274933 26.390137 -19.746246 40.35315 -37.41391c1.1170654 15.589111 3.6304932 29.203613 7.540039 40.843506l39.375854 0c-4.7474365 -12.679169 -7.935547 -25.912628 -9.564697 -39.700317c-1.5823975 -13.857025 -2.3736572 -46.871307 -2.3736572 -99.04294l0 -74.82782c0 -24.942596 -0.62841797 -42.194565 -1.8850098 -51.755905c-2.2341309 -15.381271 -6.143799 -28.095062 -11.729004 -38.141403c-5.585205 -10.115601 -14.312134 -18.4991 -26.180786 -25.150452c-11.86853 -6.651367 -27.29773 -9.977051 -46.287476 -9.977051z" fill-rule="evenodd"></path><path fill="#741b47" d="m1382.155 26.448927l-37.490845 33.672516l0 81.998825l-27.64685 0l0 43.64955l27.64685 0l0 190.49916c0 33.672516 1.5360107 55.774414 4.607788 66.305756c3.0718994 10.462036 8.37793 18.914825 15.917969 25.358337c7.540039 6.4434814 18.151978 9.665253 31.835693 9.665253c8.37793 0 17.872803 -1.6628418 28.484741 -4.9885254l-5.4456787 -49.573425c-6.841919 1.4549866 -12.3573 2.1824646 -16.546143 2.1824646c-5.585327 0 -9.890503 -1.3510437 -12.915894 -4.0531616c-2.9787598 -2.702118 -5.1429443 -6.339569 -6.492798 -10.912384c-1.3032227 -4.572815 -1.954834 -14.861633 -1.954834 -30.866486l0 -193.61699l37.909668 0l0 -43.64955l-37.909668 0l0 -115.67134z" fill-rule="evenodd"></path><path fill="#741b47" d="m1445.4077 142.12027l0 45.52025l90.69006 0c12.287476 0 26.45996 -0.6235657 42.517456 -1.870697l0 0l-141.58533 241.94328l0 45.520264l196.87903 0l0 -48.326294l-102.83789 0c-14.800781 0 -30.648926 0.93533325 -47.54419 2.8060303l23.248413 -38.349243l120.4314 -210.14146l0 -37.102127z" fill-rule="evenodd"></path><path fill="#741b47" d="m1813.404 307.05325l0 20.577637c0 24.734772 -2.0246582 43.44171 -6.0738525 56.12088c-5.3060303 16.420532 -13.614014 29.376831 -24.924072 38.868896c-11.310059 9.4227295 -24.225952 14.134125 -38.74756 14.134125c-14.661133 0 -25.80835 -4.988495 -33.44153 -14.965546c-7.586548 -9.977051 -11.379883 -22.448364 -11.379883 -37.41391c0 -9.769196 1.7453613 -18.637695 5.236206 -26.605438c3.4907227 -8.037079 8.447632 -14.134155 14.870605 -18.29126c6.4230957 -4.1571045 17.384033 -7.8984985 32.883057 -11.224182c27.367554 -5.819916 47.89331 -12.886993 61.577026 -21.201202zm-47.963013 -172.41577c-19.129395 0 -35.954956 3.9146118 -50.476562 11.743805c-14.521484 7.7599335 -25.622192 18.880188 -33.30188 33.36075c-7.6796875 14.411285 -13.195068 33.360733 -16.546143 56.84836l36.862427 7.482773c4.0493164 -23.487625 10.286133 -39.838867 18.71045 -49.053787c8.471069 -9.28418 21.572998 -13.926285 39.30603 -13.926285c18.989746 0 33.30188 6.339569 42.9364 19.018738c7.121216 9.35347 10.681763 25.462234 10.681763 48.326294c0 2.0785522 -0.06982422 6.96315 -0.20947266 14.653793c-14.381958 7.4827576 -36.792603 13.92627 -67.232056 19.330505c-14.940552 2.702118 -26.110962 5.508148 -33.511353 8.418121c-10.053467 4.1571045 -19.10608 10.288849 -27.158203 18.395172c-8.005371 8.106354 -14.498169 18.880157 -19.478394 32.321472c-4.9335938 13.371979 -7.4005127 28.164368 -7.4005127 44.377045c0 27.644745 6.562744 50.37021 19.687988 68.17645c13.125244 17.736969 31.905518 26.605469 56.340942 26.605469c14.800781 0 28.647583 -3.6374817 41.54004 -10.912384c12.939209 -7.274933 26.390259 -19.746246 40.35327 -37.41391c1.1170654 15.589111 3.630371 29.203613 7.540039 40.843506l39.375854 0c-4.7474365 -12.679169 -7.935669 -25.912628 -9.564697 -39.700317c-1.5823975 -13.857025 -2.3737793 -46.871307 -2.3737793 -99.04294l0 -74.82782c0 -24.942596 -0.6282959 -42.194565 -1.8850098 -51.755905c-2.2340088 -15.381271 -6.1436768 -28.095062 -11.728882 -38.141403c-5.585205 -10.115601 -14.312134 -18.4991 -26.180786 -25.150452c-11.86853 -6.651367 -27.29773 -9.977051 -46.287476 -9.977051z" fill-rule="evenodd"></path><path fill="#741b47" d="m1910.1681 16.1601l0 64.538994l37.700195 0l0 -64.538994zm0 125.96017l0 331.1131l37.700195 0l0 -331.1131z" fill-rule="evenodd"></path><path fill="#741b47" d="m2004.4187 16.1601l0 457.07327l37.700317 0l0 -457.07327z" fill-rule="evenodd"></path><path fill="#741b47" d="m2192.2917 180.78131c19.129395 0 34.698242 10.808456 46.7063 32.425385c7.819336 13.926285 12.566895 34.81572 14.242432 62.668304l-124.201416 0c1.2565918 -28.891861 7.772705 -51.963776 19.54834 -69.215744c11.8220215 -17.251968 26.390137 -25.877945 43.704346 -25.877945zm-0.4189453 -46.14383c-30.71875 0 -55.712646 15.381271 -74.98169 46.14383c-19.269043 30.762543 -28.903564 73.9964 -28.903564 129.70154c0 53.834473 9.518311 95.68262 28.554443 125.544464c19.083008 29.792542 44.891357 44.688843 77.42529 44.688843c25.831543 0 47.05542 -9.353485 63.67163 -28.060425c16.615967 -18.70697 27.99585 -45.00064 34.13965 -78.88101l-38.95703 -7.17099c-5.7248535 23.695465 -13.474365 40.94745 -23.248535 51.75589c-9.77417 10.808472 -21.572754 16.212708 -35.39624 16.212708c-18.571045 0 -34.069824 -9.665253 -46.49707 -28.995789c-12.427002 -19.330505 -19.338867 -47.183075 -20.735107 -83.55771l165.8811 0c0.13964844 -6.651367 0.20947266 -11.639893 0.20947266 -14.965576c0 -54.66588 -9.425049 -97.06831 -28.275146 -127.20729c-18.850098 -30.138992 -43.145996 -45.20848 -72.88721 -45.20848z" fill-rule="evenodd"></path><path fill="#741b47" d="m2481.1174 307.05325l0 20.577637c0 24.734772 -2.024414 43.44171 -6.0737305 56.12088c-5.3061523 16.420532 -13.614014 29.376831 -24.924072 38.868896c-11.310059 9.4227295 -24.226074 14.134125 -38.74756 14.134125c-14.661133 0 -25.808594 -4.988495 -33.441406 -14.965546c-7.58667 -9.977051 -11.380127 -22.448364 -11.380127 -37.41391c0 -9.769196 1.7456055 -18.637695 5.236328 -26.605438c3.4907227 -8.037079 8.44751 -14.134155 14.870605 -18.29126c6.4230957 -4.1571045 17.384033 -7.8984985 32.883057 -11.224182c27.367432 -5.819916 47.89331 -12.886993 61.576904 -21.201202zm-47.96289 -172.41577c-19.129395 0 -35.95508 3.9146118 -50.476562 11.743805c-14.521484 7.7599335 -25.622314 18.880188 -33.302002 33.36075c-7.6794434 14.411285 -13.195068 33.360733 -16.546143 56.84836l36.86255 7.482773c4.0493164 -23.487625 10.286133 -39.838867 18.71045 -49.053787c8.470947 -9.28418 21.572998 -13.926285 39.30591 -13.926285c18.98999 0 33.302002 6.339569 42.936523 19.018738c7.1210938 9.35347 10.681641 25.462234 10.681641 48.326294c0 2.0785522 -0.06982422 6.96315 -0.20947266 14.653793c-14.381836 7.4827576 -36.79248 13.92627 -67.23193 19.330505c-14.94043 2.702118 -26.111084 5.508148 -33.511475 8.418121c-10.053223 4.1571045 -19.105957 10.288849 -27.158203 18.395172c-8.005371 8.106354 -14.498047 18.880157 -19.478271 32.321472c-4.9335938 13.371979 -7.4003906 28.164368 -7.4003906 44.377045c0 27.644745 6.5625 50.37021 19.687744 68.17645c13.125244 17.736969 31.905762 26.605469 56.341064 26.605469c14.800781 0 28.64746 -3.6374817 41.54004 -10.912384c12.938965 -7.274933 26.390137 -19.746246 40.35327 -37.41391c1.1169434 15.589111 3.630371 29.203613 7.540039 40.843506l39.375732 0c-4.7473145 -12.679169 -7.935791 -25.912628 -9.564697 -39.700317c-1.5825195 -13.857025 -2.3735352 -46.871307 -2.3735352 -99.04294l0 -74.82782c0 -24.942596 -0.62841797 -42.194565 -1.8850098 -51.755905c-2.2341309 -15.381271 -6.143799 -28.095062 -11.729004 -38.141403c-5.585205 -10.115601 -14.312256 -18.4991 -26.180908 -25.150452c-11.868408 -6.651367 -27.297607 -9.977051 -46.287354 -9.977051z" fill-rule="evenodd"></path><path stroke="#000000" stroke-width="1.0" stroke-linejoin="round" stroke-linecap="butt" d="m119.61528 16.1601l0 53.938385l171.32674 0c-10.053406 15.381271 -20.665344 33.46466 -31.835785 54.250168l-157.29385 292.76382l0 56.12088l242.74777 0l0 -53.938385l-196.04134 0l18.640686 -32.113617l172.37395 -317.0829l0 -53.938385z" fill-rule="evenodd"></path><path stroke="#000000" stroke-width="1.0" stroke-linejoin="round" stroke-linecap="butt" d="m475.2544 180.78131c19.129364 0 34.69818 10.808456 46.70642 32.425385c7.819336 13.926285 12.566772 34.81572 14.24231 62.668304l-124.201385 0c1.2566528 -28.891861 7.772766 -51.963776 19.548279 -69.215744c11.822052 -17.251968 26.390167 -25.877945 43.704376 -25.877945zm-0.4189148 -46.14383c-30.71872 0 -55.712585 15.381271 -74.98163 46.14383c-19.269012 30.762543 -28.903503 73.9964 -28.903503 129.70154c0 53.834473 9.518158 95.68262 28.554443 125.544464c19.082855 29.792542 44.891235 44.688843 77.42517 44.688843c25.831635 0 47.05551 -9.353485 63.67154 -28.060425c16.616028 -18.70697 27.99591 -45.00064 34.13965 -78.88101l-38.95691 -7.17099c-5.7248535 23.695465 -13.474365 40.94745 -23.248474 51.75589c-9.77417 10.808472 -21.572937 16.212708 -35.396362 16.212708c-18.570892 0 -34.069885 -9.665253 -46.49701 -28.995789c-12.427124 -19.330505 -19.338837 -47.183075 -20.735138 -83.55771l165.88113 0c0.13964844 -6.651367 0.20947266 -11.639893 0.20947266 -14.965576c0 -54.66588 -9.42511 -97.06831 -28.275208 -127.20729c-18.850159 -30.138992 -43.145844 -45.20848 -72.88718 -45.20848z" fill-rule="evenodd"></path><path stroke="#000000" stroke-width="1.0" stroke-linejoin="round" stroke-linecap="butt" d="m726.7989 134.63748c-30.858398 0 -54.455933 18.187317 -70.792725 54.56195l0 -47.079163l-33.930237 0l0 331.1131l37.700256 0l0 -180.8339c0 -42.402435 5.817932 -71.19037 17.453857 -86.363785c11.682373 -15.173416 25.552368 -22.760132 41.609924 -22.760132c10.053345 0 18.803528 3.394989 26.25055 10.184906c7.493469 6.7206573 12.70636 15.762344 15.638611 27.125076c2.932251 11.293472 4.3983765 28.372223 4.3983765 51.236267l0 201.41156l37.700256 0l0 -203.59402c0 -25.981888 -0.69818115 -44.169205 -2.0944824 -54.56195c-2.2340698 -16.004837 -6.143738 -29.82721 -11.728943 -41.467087c-5.585266 -11.639877 -14.009644 -21.028 -25.273193 -28.164352c-11.21698 -7.2056427 -23.52771 -10.808472 -36.93225 -10.808472z" fill-rule="evenodd"></path><path stroke="#000000" stroke-width="1.0" stroke-linejoin="round" stroke-linecap="butt" d="m955.7232 180.78131c16.336792 0 30.253296 10.288818 41.749573 30.86647c11.542786 20.577652 17.314209 52.483414 17.314209 95.71724c0 42.19458 -6.0041504 73.96176 -18.01239 95.301544c-12.00824 21.270508 -26.25055 31.905762 -42.72693 31.905762c-20.24646 0 -36.303955 -14.445923 -48.172546 -43.33777c-7.260803 -17.667694 -10.891174 -46.351685 -10.891174 -86.052c0 -40.323883 6.0040894 -71.12106 18.01233 -92.39157c12.00824 -21.339783 26.25055 -32.009674 42.72693 -32.009674zm-95.29785 -164.62122l0 457.07327l34.977478 0l0 -41.46707c14.94043 32.63324 35.53595 48.94986 61.7865 48.94986c26.390198 0 49.010376 -15.485199 67.86047 -46.455597c18.850098 -30.970428 28.275146 -74.82782 28.275146 -131.57227c0 -23.90332 -2.2340088 -46.351685 -6.7022705 -67.34503c-4.4681396 -20.993362 -10.658447 -38.903534 -18.5708 -53.73053c-7.865906 -14.896271 -17.919312 -26.432236 -30.160217 -34.60788c-12.194458 -8.244904 -25.133484 -12.367371 -38.81732 -12.367371c-24.7146 0 -45.030823 14.861633 -60.94873 44.584915l0 -163.0623z" fill-rule="evenodd"></path><path stroke="#000000" stroke-width="1.0" stroke-linejoin="round" stroke-linecap="butt" d="m1241.198 307.05325l0 20.577637c0 24.734772 -2.0246582 43.44171 -6.0739746 56.12088c-5.305908 16.420532 -13.614014 29.376831 -24.924072 38.868896c-11.310059 9.4227295 -24.225952 14.134125 -38.747437 14.134125c-14.661255 0 -25.808472 -4.988495 -33.44153 -14.965546c-7.58667 -9.977051 -11.379883 -22.448364 -11.379883 -37.41391c0 -9.769196 1.7453613 -18.637695 5.236084 -26.605438c3.4908447 -8.037079 8.447632 -14.134155 14.870728 -18.29126c6.4229736 -4.1571045 17.383911 -7.8984985 32.882935 -11.224182c27.367554 -5.819916 47.89331 -12.886993 61.57715 -21.201202zm-47.963135 -172.41577c-19.129395 0 -35.954834 3.9146118 -50.47644 11.743805c-14.521606 7.7599335 -25.622192 18.880188 -33.30188 33.36075c-7.6796875 14.411285 -13.19519 33.360733 -16.546265 56.84836l36.862427 7.482773c4.0493164 -23.487625 10.286133 -39.838867 18.710571 -49.053787c8.470825 -9.28418 21.572876 -13.926285 39.30603 -13.926285c18.989746 0 33.30188 6.339569 42.9364 19.018738c7.1210938 9.35347 10.681641 25.462234 10.681641 48.326294c0 2.0785522 -0.06982422 6.96315 -0.20935059 14.653793c-14.381958 7.4827576 -36.792725 13.92627 -67.23218 19.330505c-14.94043 2.702118 -26.110962 5.508148 -33.511353 8.418121c-10.053345 4.1571045 -19.10608 10.288849 -27.158081 18.395172c-8.005615 8.106354 -14.498413 18.880157 -19.478516 32.321472c-4.9335938 13.371979 -7.4003906 28.164368 -7.4003906 44.377045c0 27.644745 6.562622 50.37021 19.687866 68.17645c13.125244 17.736969 31.90564 26.605469 56.340942 26.605469c14.800903 0 28.647583 -3.6374817 41.54016 -10.912384c12.939087 -7.274933 26.390137 -19.746246 40.35315 -37.41391c1.1170654 15.589111 3.6304932 29.203613 7.540039 40.843506l39.375854 0c-4.7474365 -12.679169 -7.935547 -25.912628 -9.564697 -39.700317c-1.5823975 -13.857025 -2.3736572 -46.871307 -2.3736572 -99.04294l0 -74.82782c0 -24.942596 -0.62841797 -42.194565 -1.8850098 -51.755905c-2.2341309 -15.381271 -6.143799 -28.095062 -11.729004 -38.141403c-5.585205 -10.115601 -14.312134 -18.4991 -26.180786 -25.150452c-11.86853 -6.651367 -27.29773 -9.977051 -46.287476 -9.977051z" fill-rule="evenodd"></path><path stroke="#000000" stroke-width="1.0" stroke-linejoin="round" stroke-linecap="butt" d="m1382.155 26.448927l-37.490845 33.672516l0 81.998825l-27.64685 0l0 43.64955l27.64685 0l0 190.49916c0 33.672516 1.5360107 55.774414 4.607788 66.305756c3.0718994 10.462036 8.37793 18.914825 15.917969 25.358337c7.540039 6.4434814 18.151978 9.665253 31.835693 9.665253c8.37793 0 17.872803 -1.6628418 28.484741 -4.9885254l-5.4456787 -49.573425c-6.841919 1.4549866 -12.3573 2.1824646 -16.546143 2.1824646c-5.585327 0 -9.890503 -1.3510437 -12.915894 -4.0531616c-2.9787598 -2.702118 -5.1429443 -6.339569 -6.492798 -10.912384c-1.3032227 -4.572815 -1.954834 -14.861633 -1.954834 -30.866486l0 -193.61699l37.909668 0l0 -43.64955l-37.909668 0l0 -115.67134z" fill-rule="evenodd"></path><path stroke="#000000" stroke-width="1.0" stroke-linejoin="round" stroke-linecap="butt" d="m1445.4077 142.12027l0 45.52025l90.69006 0c12.287476 0 26.45996 -0.6235657 42.517456 -1.870697l0 0l-141.58533 241.94328l0 45.520264l196.87903 0l0 -48.326294l-102.83789 0c-14.800781 0 -30.648926 0.93533325 -47.54419 2.8060303l23.248413 -38.349243l120.4314 -210.14146l0 -37.102127z" fill-rule="evenodd"></path><path stroke="#000000" stroke-width="1.0" stroke-linejoin="round" stroke-linecap="butt" d="m1813.404 307.05325l0 20.577637c0 24.734772 -2.0246582 43.44171 -6.0738525 56.12088c-5.3060303 16.420532 -13.614014 29.376831 -24.924072 38.868896c-11.310059 9.4227295 -24.225952 14.134125 -38.74756 14.134125c-14.661133 0 -25.80835 -4.988495 -33.44153 -14.965546c-7.586548 -9.977051 -11.379883 -22.448364 -11.379883 -37.41391c0 -9.769196 1.7453613 -18.637695 5.236206 -26.605438c3.4907227 -8.037079 8.447632 -14.134155 14.870605 -18.29126c6.4230957 -4.1571045 17.384033 -7.8984985 32.883057 -11.224182c27.367554 -5.819916 47.89331 -12.886993 61.577026 -21.201202zm-47.963013 -172.41577c-19.129395 0 -35.954956 3.9146118 -50.476562 11.743805c-14.521484 7.7599335 -25.622192 18.880188 -33.30188 33.36075c-7.6796875 14.411285 -13.195068 33.360733 -16.546143 56.84836l36.862427 7.482773c4.0493164 -23.487625 10.286133 -39.838867 18.71045 -49.053787c8.471069 -9.28418 21.572998 -13.926285 39.30603 -13.926285c18.989746 0 33.30188 6.339569 42.9364 19.018738c7.121216 9.35347 10.681763 25.462234 10.681763 48.326294c0 2.0785522 -0.06982422 6.96315 -0.20947266 14.653793c-14.381958 7.4827576 -36.792603 13.92627 -67.232056 19.330505c-14.940552 2.702118 -26.110962 5.508148 -33.511353 8.418121c-10.053467 4.1571045 -19.10608 10.288849 -27.158203 18.395172c-8.005371 8.106354 -14.498169 18.880157 -19.478394 32.321472c-4.9335938 13.371979 -7.4005127 28.164368 -7.4005127 44.377045c0 27.644745 6.562744 50.37021 19.687988 68.17645c13.125244 17.736969 31.905518 26.605469 56.340942 26.605469c14.800781 0 28.647583 -3.6374817 41.54004 -10.912384c12.939209 -7.274933 26.390259 -19.746246 40.35327 -37.41391c1.1170654 15.589111 3.630371 29.203613 7.540039 40.843506l39.375854 0c-4.7474365 -12.679169 -7.935669 -25.912628 -9.564697 -39.700317c-1.5823975 -13.857025 -2.3737793 -46.871307 -2.3737793 -99.04294l0 -74.82782c0 -24.942596 -0.6282959 -42.194565 -1.8850098 -51.755905c-2.2340088 -15.381271 -6.1436768 -28.095062 -11.728882 -38.141403c-5.585205 -10.115601 -14.312134 -18.4991 -26.180786 -25.150452c-11.86853 -6.651367 -27.29773 -9.977051 -46.287476 -9.977051z" fill-rule="evenodd"></path><path stroke="#000000" stroke-width="1.0" stroke-linejoin="round" stroke-linecap="butt" d="m1910.1681 16.1601l0 64.538994l37.700195 0l0 -64.538994zm0 125.96017l0 331.1131l37.700195 0l0 -331.1131z" fill-rule="evenodd"></path><path stroke="#000000" stroke-width="1.0" stroke-linejoin="round" stroke-linecap="butt" d="m2004.4187 16.1601l0 457.07327l37.700317 0l0 -457.07327z" fill-rule="evenodd"></path><path stroke="#000000" stroke-width="1.0" stroke-linejoin="round" stroke-linecap="butt" d="m2192.2917 180.78131c19.129395 0 34.698242 10.808456 46.7063 32.425385c7.819336 13.926285 12.566895 34.81572 14.242432 62.668304l-124.201416 0c1.2565918 -28.891861 7.772705 -51.963776 19.54834 -69.215744c11.8220215 -17.251968 26.390137 -25.877945 43.704346 -25.877945zm-0.4189453 -46.14383c-30.71875 0 -55.712646 15.381271 -74.98169 46.14383c-19.269043 30.762543 -28.903564 73.9964 -28.903564 129.70154c0 53.834473 9.518311 95.68262 28.554443 125.544464c19.083008 29.792542 44.891357 44.688843 77.42529 44.688843c25.831543 0 47.05542 -9.353485 63.67163 -28.060425c16.615967 -18.70697 27.99585 -45.00064 34.13965 -78.88101l-38.95703 -7.17099c-5.7248535 23.695465 -13.474365 40.94745 -23.248535 51.75589c-9.77417 10.808472 -21.572754 16.212708 -35.39624 16.212708c-18.571045 0 -34.069824 -9.665253 -46.49707 -28.995789c-12.427002 -19.330505 -19.338867 -47.183075 -20.735107 -83.55771l165.8811 0c0.13964844 -6.651367 0.20947266 -11.639893 0.20947266 -14.965576c0 -54.66588 -9.425049 -97.06831 -28.275146 -127.20729c-18.850098 -30.138992 -43.145996 -45.20848 -72.88721 -45.20848z" fill-rule="evenodd"></path><path stroke="#000000" stroke-width="1.0" stroke-linejoin="round" stroke-linecap="butt" d="m2481.1174 307.05325l0 20.577637c0 24.734772 -2.024414 43.44171 -6.0737305 56.12088c-5.3061523 16.420532 -13.614014 29.376831 -24.924072 38.868896c-11.310059 9.4227295 -24.226074 14.134125 -38.74756 14.134125c-14.661133 0 -25.808594 -4.988495 -33.441406 -14.965546c-7.58667 -9.977051 -11.380127 -22.448364 -11.380127 -37.41391c0 -9.769196 1.7456055 -18.637695 5.236328 -26.605438c3.4907227 -8.037079 8.44751 -14.134155 14.870605 -18.29126c6.4230957 -4.1571045 17.384033 -7.8984985 32.883057 -11.224182c27.367432 -5.819916 47.89331 -12.886993 61.576904 -21.201202zm-47.96289 -172.41577c-19.129395 0 -35.95508 3.9146118 -50.476562 11.743805c-14.521484 7.7599335 -25.622314 18.880188 -33.302002 33.36075c-7.6794434 14.411285 -13.195068 33.360733 -16.546143 56.84836l36.86255 7.482773c4.0493164 -23.487625 10.286133 -39.838867 18.71045 -49.053787c8.470947 -9.28418 21.572998 -13.926285 39.30591 -13.926285c18.98999 0 33.302002 6.339569 42.936523 19.018738c7.1210938 9.35347 10.681641 25.462234 10.681641 48.326294c0 2.0785522 -0.06982422 6.96315 -0.20947266 14.653793c-14.381836 7.4827576 -36.79248 13.92627 -67.23193 19.330505c-14.94043 2.702118 -26.111084 5.508148 -33.511475 8.418121c-10.053223 4.1571045 -19.105957 10.288849 -27.158203 18.395172c-8.005371 8.106354 -14.498047 18.880157 -19.478271 32.321472c-4.9335938 13.371979 -7.4003906 28.164368 -7.4003906 44.377045c0 27.644745 6.5625 50.37021 19.687744 68.17645c13.125244 17.736969 31.905762 26.605469 56.341064 26.605469c14.800781 0 28.64746 -3.6374817 41.54004 -10.912384c12.938965 -7.274933 26.390137 -19.746246 40.35327 -37.41391c1.1169434 15.589111 3.630371 29.203613 7.540039 40.843506l39.375732 0c-4.7473145 -12.679169 -7.935791 -25.912628 -9.564697 -39.700317c-1.5825195 -13.857025 -2.3735352 -46.871307 -2.3735352 -99.04294l0 -74.82782c0 -24.942596 -0.62841797 -42.194565 -1.8850098 -51.755905c-2.2341309 -15.381271 -6.143799 -28.095062 -11.729004 -38.141403c-5.585205 -10.115601 -14.312256 -18.4991 -26.180908 -25.150452c-11.868408 -6.651367 -27.297607 -9.977051 -46.287354 -9.977051z" fill-rule="evenodd"></path></g></svg>

