<?xml version="1.0" standalone="yes"?>

<svg version="1.1" viewBox="0.0 0.0 2574.6535433070867 1543.1233595800525" fill="none" stroke="none" stroke-linecap="square" stroke-miterlimit="10" xmlns="http://www.w3.org/2000/svg" xmlns:xlink="http://www.w3.org/1999/xlink"><clipPath id="p.0"><path d="m0 0l2574.6536 0l0 1543.1234l-2574.6536 0l0 -1543.1234z" clip-rule="nonzero"></path></clipPath><g clip-path="url(#p.0)"><path fill="#000000" fill-opacity="0.0" d="m0 0l2574.6536 0l0 1543.1234l-2574.6536 0z" fill-rule="evenodd"></path><path fill="#666666" d="m0 583.4554l0 0c0 -50.666687 41.073475 -91.74017 91.74017 -91.74017l2382.8188 0c24.331055 0 47.665527 9.665466 64.87012 26.870117c17.20459 17.20459 26.870117 40.539062 26.870117 64.870056l0 852.89764c0 50.666626 -41.073486 91.74011 -91.740234 91.74011l-2382.8188 0c-50.6667 0 -91.74017 -41.073486 -91.74017 -91.74011z" fill-rule="evenodd"></path><path stroke="#434343" stroke-width="1.0" stroke-linejoin="round" stroke-linecap="butt" d="m0 583.4554l0 0c0 -50.666687 41.073475 -91.74017 91.74017 -91.74017l2382.8188 0c24.331055 0 47.665527 9.665466 64.87012 26.870117c17.20459 17.20459 26.870117 40.539062 26.870117 64.870056l0 852.89764c0 50.666626 -41.073486 91.74011 -91.740234 91.74011l-2382.8188 0c-50.6667 0 -91.74017 -41.073486 -91.74017 -91.74011z" fill-rule="evenodd"></path><path fill="#efefef" d="m861.2217 532.62994l378.12 0l0 65.32031l-378.12 0z" fill-rule="evenodd"></path><path stroke="#cccccc" stroke-width="1.0" stroke-linejoin="round" stroke-linecap="butt" d="m861.2217 532.62994l378.12 0l0 65.32031l-378.12 0z" fill-rule="evenodd"></path><path fill="#efefef" d="m1239.3417 532.66907l44.740723 32.62097l-44.740723 32.62097z" fill-rule="evenodd"></path><path stroke="#cccccc" stroke-width="1.0" stroke-linejoin="round" stroke-linecap="butt" d="m1239.3417 532.66907l44.740723 32.62097l-44.740723 32.62097z" fill-rule="evenodd"></path><path fill="#efefef" d="m861.2217 597.911l-44.74066 -32.62097l44.74066 -32.62097z" fill-rule="evenodd"></path><path stroke="#cccccc" stroke-width="1.0" stroke-linejoin="round" stroke-linecap="butt" d="m861.2217 597.911l-44.74066 -32.62097l44.74066 -32.62097z" fill-rule="evenodd"></path><path fill="#efefef" d="m789.12683 977.2444l378.12012 0l0 65.32031l-378.12012 0z" fill-rule="evenodd"></path><path stroke="#cccccc" stroke-width="1.0" stroke-linejoin="round" stroke-linecap="butt" d="m789.12683 977.2444l378.12012 0l0 65.32031l-378.12012 0z" fill-rule="evenodd"></path><path fill="#efefef" d="m1167.247 977.2835l44.7406 32.62097l-44.7406 32.62091z" fill-rule="evenodd"></path><path stroke="#cccccc" stroke-width="1.0" stroke-linejoin="round" stroke-linecap="butt" d="m1167.247 977.2835l44.7406 32.62097l-44.7406 32.62091z" fill-rule="evenodd"></path><path fill="#efefef" d="m789.12683 1042.5254l-44.7406 -32.62091l44.7406 -32.62097z" fill-rule="evenodd"></path><path stroke="#cccccc" stroke-width="1.0" stroke-linejoin="round" stroke-linecap="butt" d="m789.12683 1042.5254l-44.7406 -32.62091l44.7406 -32.62097z" fill-rule="evenodd"></path><path fill="#efefef" d="m833.7201 618.23413l-55.366516 352.7539l-64.25775 -10.08783l55.366516 -352.7539z" fill-rule="evenodd"></path><path stroke="#cccccc" stroke-width="1.0" stroke-linejoin="round" stroke-linecap="butt" d="m833.7201 618.23413l-55.366516 352.7539l-64.25775 -10.08783l55.366516 -352.7539z" fill-rule="evenodd"></path><path fill="#efefef" d="m778.31506 970.982l-38.64148 36.701355l-25.539124 -46.7771z" fill-rule="evenodd"></path><path stroke="#cccccc" stroke-width="1.0" stroke-linejoin="round" stroke-linecap="butt" d="m778.31506 970.982l-38.64148 36.701355l-25.539124 -46.7771z" fill-rule="evenodd"></path><path fill="#efefef" d="m769.501 608.1524l38.64154 -36.701355l25.539124 46.77704z" fill-rule="evenodd"></path><path stroke="#cccccc" stroke-width="1.0" stroke-linejoin="round" stroke-linecap="butt" d="m769.501 608.1524l38.64154 -36.701355l25.539124 46.77704z" fill-rule="evenodd"></path><path fill="#efefef" d="m1307.9196 618.23413l-55.366455 352.7539l-64.25781 -10.08783l55.366577 -352.7539z" fill-rule="evenodd"></path><path stroke="#cccccc" stroke-width="1.0" stroke-linejoin="round" stroke-linecap="butt" d="m1307.9196 618.23413l-55.366455 352.7539l-64.25781 -10.08783l55.366577 -352.7539z" fill-rule="evenodd"></path><path fill="#efefef" d="m1252.5145 970.982l-38.64148 36.701355l-25.539062 -46.7771z" fill-rule="evenodd"></path><path stroke="#cccccc" stroke-width="1.0" stroke-linejoin="round" stroke-linecap="butt" d="m1252.5145 970.982l-38.64148 36.701355l-25.539062 -46.7771z" fill-rule="evenodd"></path><path fill="#efefef" d="m1243.7004 608.1524l38.64148 -36.701355l25.539185 46.77704z" fill-rule="evenodd"></path><path stroke="#cccccc" stroke-width="1.0" stroke-linejoin="round" stroke-linecap="butt" d="m1243.7004 608.1524l38.64148 -36.701355l25.539185 46.77704z" fill-rule="evenodd"></path><path fill="#efefef" d="m713.25757 1425.454l378.12 0l0 65.32031l-378.12 0z" fill-rule="evenodd"></path><path stroke="#cccccc" stroke-width="1.0" stroke-linejoin="round" stroke-linecap="butt" d="m713.25757 1425.454l378.12 0l0 65.32031l-378.12 0z" fill-rule="evenodd"></path><path fill="#efefef" d="m1091.3776 1425.4932l44.740723 32.62097l-44.740723 32.62085z" fill-rule="evenodd"></path><path stroke="#cccccc" stroke-width="1.0" stroke-linejoin="round" stroke-linecap="butt" d="m1091.3776 1425.4932l44.740723 32.62097l-44.740723 32.62085z" fill-rule="evenodd"></path><path fill="#efefef" d="m713.25757 1490.735l-44.74066 -32.62085l44.74066 -32.62097z" fill-rule="evenodd"></path><path stroke="#cccccc" stroke-width="1.0" stroke-linejoin="round" stroke-linecap="butt" d="m713.25757 1490.735l-44.74066 -32.62085l44.74066 -32.62097z" fill-rule="evenodd"></path><path fill="#efefef" d="m762.07446 1064.5543l-55.366577 352.7539l-64.25775 -10.087769l55.366577 -352.7539z" fill-rule="evenodd"></path><path stroke="#cccccc" stroke-width="1.0" stroke-linejoin="round" stroke-linecap="butt" d="m762.07446 1064.5543l-55.366577 352.7539l-64.25775 -10.087769l55.366577 -352.7539z" fill-rule="evenodd"></path><path fill="#efefef" d="m706.6694 1417.3022l-38.64148 36.701294l-25.539124 -46.7771z" fill-rule="evenodd"></path><path stroke="#cccccc" stroke-width="1.0" stroke-linejoin="round" stroke-linecap="butt" d="m706.6694 1417.3022l-38.64148 36.701294l-25.539124 -46.7771z" fill-rule="evenodd"></path><path fill="#efefef" d="m697.85535 1054.4725l38.64148 -36.701294l25.539124 46.7771z" fill-rule="evenodd"></path><path stroke="#cccccc" stroke-width="1.0" stroke-linejoin="round" stroke-linecap="butt" d="m697.85535 1054.4725l38.64148 -36.701294l25.539124 46.7771z" fill-rule="evenodd"></path><path fill="#efefef" d="m1236.2739 1064.5543l-55.366577 352.7539l-64.25769 -10.087769l55.366577 -352.7539z" fill-rule="evenodd"></path><path stroke="#cccccc" stroke-width="1.0" stroke-linejoin="round" stroke-linecap="butt" d="m1236.2739 1064.5543l-55.366577 352.7539l-64.25769 -10.087769l55.366577 -352.7539z" fill-rule="evenodd"></path><path fill="#efefef" d="m1180.8689 1417.3022l-38.64148 36.701294l-25.539185 -46.7771z" fill-rule="evenodd"></path><path stroke="#cccccc" stroke-width="1.0" stroke-linejoin="round" stroke-linecap="butt" d="m1180.8689 1417.3022l-38.64148 36.701294l-25.539185 -46.7771z" fill-rule="evenodd"></path><path fill="#efefef" d="m1172.0548 1054.4725l38.64148 -36.701294l25.539185 46.7771z" fill-rule="evenodd"></path><path stroke="#cccccc" stroke-width="1.0" stroke-linejoin="round" stroke-linecap="butt" d="m1172.0548 1054.4725l38.64148 -36.701294l25.539185 46.7771z" fill-rule="evenodd"></path><path fill="#efefef" d="m1468.1455 530.83203l378.12012 0l0 65.32031l-378.12012 0z" fill-rule="evenodd"></path><path stroke="#cccccc" stroke-width="1.0" stroke-linejoin="round" stroke-linecap="butt" d="m1468.1455 530.83203l378.12012 0l0 65.32031l-378.12012 0z" fill-rule="evenodd"></path><path fill="#efefef" d="m1846.2656 530.8712l44.7406 32.62091l-44.7406 32.62097z" fill-rule="evenodd"></path><path stroke="#cccccc" stroke-width="1.0" stroke-linejoin="round" stroke-linecap="butt" d="m1846.2656 530.8712l44.7406 32.62091l-44.7406 32.62097z" fill-rule="evenodd"></path><path fill="#efefef" d="m1468.1455 596.1131l-44.7406 -32.62097l44.7406 -32.62091z" fill-rule="evenodd"></path><path stroke="#cccccc" stroke-width="1.0" stroke-linejoin="round" stroke-linecap="butt" d="m1468.1455 596.1131l-44.7406 -32.62097l44.7406 -32.62091z" fill-rule="evenodd"></path><path fill="#efefef" d="m1396.0507 975.4465l378.12012 0l0 65.32037l-378.12012 0z" fill-rule="evenodd"></path><path stroke="#cccccc" stroke-width="1.0" stroke-linejoin="round" stroke-linecap="butt" d="m1396.0507 975.4465l378.12012 0l0 65.32037l-378.12012 0z" fill-rule="evenodd"></path><path fill="#efefef" d="m1774.1708 975.4856l44.7406 32.62097l-44.7406 32.62097z" fill-rule="evenodd"></path><path stroke="#cccccc" stroke-width="1.0" stroke-linejoin="round" stroke-linecap="butt" d="m1774.1708 975.4856l44.7406 32.62097l-44.7406 32.62097z" fill-rule="evenodd"></path><path fill="#efefef" d="m1396.0507 1040.7275l-44.7406 -32.62097l44.7406 -32.62097z" fill-rule="evenodd"></path><path stroke="#cccccc" stroke-width="1.0" stroke-linejoin="round" stroke-linecap="butt" d="m1396.0507 1040.7275l-44.7406 -32.62097l44.7406 -32.62097z" fill-rule="evenodd"></path><path fill="#efefef" d="m1440.644 616.4362l-55.366577 352.7539l-64.25781 -10.08783l55.366577 -352.7539z" fill-rule="evenodd"></path><path stroke="#cccccc" stroke-width="1.0" stroke-linejoin="round" stroke-linecap="butt" d="m1440.644 616.4362l-55.366577 352.7539l-64.25781 -10.08783l55.366577 -352.7539z" fill-rule="evenodd"></path><path fill="#efefef" d="m1385.2389 969.1841l-38.64148 36.701355l-25.539062 -46.77704z" fill-rule="evenodd"></path><path stroke="#cccccc" stroke-width="1.0" stroke-linejoin="round" stroke-linecap="butt" d="m1385.2389 969.1841l-38.64148 36.701355l-25.539062 -46.77704z" fill-rule="evenodd"></path><path fill="#efefef" d="m1376.4249 606.3545l38.64148 -36.701355l25.539062 46.77704z" fill-rule="evenodd"></path><path stroke="#cccccc" stroke-width="1.0" stroke-linejoin="round" stroke-linecap="butt" d="m1376.4249 606.3545l38.64148 -36.701355l25.539062 46.77704z" fill-rule="evenodd"></path><path fill="#efefef" d="m1914.8435 616.4362l-55.366577 352.7539l-64.25769 -10.08783l55.366455 -352.7539z" fill-rule="evenodd"></path><path stroke="#cccccc" stroke-width="1.0" stroke-linejoin="round" stroke-linecap="butt" d="m1914.8435 616.4362l-55.366577 352.7539l-64.25769 -10.08783l55.366455 -352.7539z" fill-rule="evenodd"></path><path fill="#efefef" d="m1859.4385 969.1841l-38.64148 36.701355l-25.539185 -46.77704z" fill-rule="evenodd"></path><path stroke="#cccccc" stroke-width="1.0" stroke-linejoin="round" stroke-linecap="butt" d="m1859.4385 969.1841l-38.64148 36.701355l-25.539185 -46.77704z" fill-rule="evenodd"></path><path fill="#efefef" d="m1850.6244 606.3545l38.64148 -36.701355l25.539062 46.77704z" fill-rule="evenodd"></path><path stroke="#cccccc" stroke-width="1.0" stroke-linejoin="round" stroke-linecap="butt" d="m1850.6244 606.3545l38.64148 -36.701355l25.539062 46.77704z" fill-rule="evenodd"></path><path fill="#efefef" d="m1320.1814 1423.6561l378.12012 0l0 65.32031l-378.12012 0z" fill-rule="evenodd"></path><path stroke="#cccccc" stroke-width="1.0" stroke-linejoin="round" stroke-linecap="butt" d="m1320.1814 1423.6561l378.12012 0l0 65.32031l-378.12012 0z" fill-rule="evenodd"></path><path fill="#efefef" d="m1698.3015 1423.6952l44.7406 32.62097l-44.7406 32.62097z" fill-rule="evenodd"></path><path stroke="#cccccc" stroke-width="1.0" stroke-linejoin="round" stroke-linecap="butt" d="m1698.3015 1423.6952l44.7406 32.62097l-44.7406 32.62097z" fill-rule="evenodd"></path><path fill="#efefef" d="m1320.1814 1488.9371l-44.7406 -32.62097l44.7406 -32.62097z" fill-rule="evenodd"></path><path stroke="#cccccc" stroke-width="1.0" stroke-linejoin="round" stroke-linecap="butt" d="m1320.1814 1488.9371l-44.7406 -32.62097l44.7406 -32.62097z" fill-rule="evenodd"></path><path fill="#efefef" d="m1368.9983 1062.7565l-55.366455 352.7539l-64.25781 -10.087891l55.366577 -352.7539z" fill-rule="evenodd"></path><path stroke="#cccccc" stroke-width="1.0" stroke-linejoin="round" stroke-linecap="butt" d="m1368.9983 1062.7565l-55.366455 352.7539l-64.25781 -10.087891l55.366577 -352.7539z" fill-rule="evenodd"></path><path fill="#efefef" d="m1313.5933 1415.5043l-38.64148 36.701416l-25.539062 -46.7771z" fill-rule="evenodd"></path><path stroke="#cccccc" stroke-width="1.0" stroke-linejoin="round" stroke-linecap="butt" d="m1313.5933 1415.5043l-38.64148 36.701416l-25.539062 -46.7771z" fill-rule="evenodd"></path><path fill="#efefef" d="m1304.7792 1052.6747l38.64148 -36.701355l25.539185 46.77704z" fill-rule="evenodd"></path><path stroke="#cccccc" stroke-width="1.0" stroke-linejoin="round" stroke-linecap="butt" d="m1304.7792 1052.6747l38.64148 -36.701355l25.539185 46.77704z" fill-rule="evenodd"></path><path fill="#efefef" d="m1843.1978 1062.7565l-55.366455 352.7539l-64.25781 -10.087891l55.366577 -352.7539z" fill-rule="evenodd"></path><path stroke="#cccccc" stroke-width="1.0" stroke-linejoin="round" stroke-linecap="butt" d="m1843.1978 1062.7565l-55.366455 352.7539l-64.25781 -10.087891l55.366577 -352.7539z" fill-rule="evenodd"></path><path fill="#efefef" d="m1787.7927 1415.5043l-38.64148 36.701416l-25.539062 -46.7771z" fill-rule="evenodd"></path><path stroke="#cccccc" stroke-width="1.0" stroke-linejoin="round" stroke-linecap="butt" d="m1787.7927 1415.5043l-38.64148 36.701416l-25.539062 -46.7771z" fill-rule="evenodd"></path><path fill="#efefef" d="m1778.9786 1052.6747l38.6416 -36.701355l25.539062 46.77704z" fill-rule="evenodd"></path><path stroke="#cccccc" stroke-width="1.0" stroke-linejoin="round" stroke-linecap="butt" d="m1778.9786 1052.6747l38.6416 -36.701355l25.539062 46.77704z" fill-rule="evenodd"></path><path fill="#ff0000" d="m260.30304 529.0342l378.12006 0l0 65.32031l-378.12006 0z" fill-rule="evenodd"></path><path stroke="#ff0000" stroke-width="1.0" stroke-linejoin="round" stroke-linecap="butt" d="m260.30304 529.0342l378.12006 0l0 65.32031l-378.12006 0z" fill-rule="evenodd"></path><path fill="#ff0000" d="m638.4231 529.0733l44.7406 32.62091l-44.7406 32.62097z" fill-rule="evenodd"></path><path stroke="#ff0000" stroke-width="1.0" stroke-linejoin="round" stroke-linecap="butt" d="m638.4231 529.0733l44.7406 32.62091l-44.7406 32.62097z" fill-rule="evenodd"></path><path fill="#ff0000" d="m260.30304 594.3152l-44.74063 -32.62097l44.74063 -32.62091z" fill-rule="evenodd"></path><path stroke="#ff0000" stroke-width="1.0" stroke-linejoin="round" stroke-linecap="butt" d="m260.30304 594.3152l-44.74063 -32.62097l44.74063 -32.62091z" fill-rule="evenodd"></path><path fill="#ff0000" d="m188.20819 973.64856l378.12006 0l0 65.32031l-378.12006 0z" fill-rule="evenodd"></path><path stroke="#ff0000" stroke-width="1.0" stroke-linejoin="round" stroke-linecap="butt" d="m188.20819 973.64856l378.12006 0l0 65.32031l-378.12006 0z" fill-rule="evenodd"></path><path fill="#ff0000" d="m566.32825 973.6877l44.74066 32.62097l-44.74066 32.62091z" fill-rule="evenodd"></path><path stroke="#ff0000" stroke-width="1.0" stroke-linejoin="round" stroke-linecap="butt" d="m566.32825 973.6877l44.74066 32.62097l-44.74066 32.62091z" fill-rule="evenodd"></path><path fill="#ff0000" d="m188.20819 1038.9296l-44.74063 -32.62091l44.74063 -32.62097z" fill-rule="evenodd"></path><path stroke="#ff0000" stroke-width="1.0" stroke-linejoin="round" stroke-linecap="butt" d="m188.20819 1038.9296l-44.74063 -32.62091l44.74063 -32.62097z" fill-rule="evenodd"></path><path fill="#ff0000" d="m232.80148 614.63837l-55.366547 352.75385l-64.25775 -10.08783l55.366547 -352.75385z" fill-rule="evenodd"></path><path stroke="#ff0000" stroke-width="1.0" stroke-linejoin="round" stroke-linecap="butt" d="m232.80148 614.63837l-55.366547 352.75385l-64.25775 -10.08783l55.366547 -352.75385z" fill-rule="evenodd"></path><path fill="#ff0000" d="m177.39644 967.38617l-38.641495 36.701355l-25.539124 -46.77704z" fill-rule="evenodd"></path><path stroke="#ff0000" stroke-width="1.0" stroke-linejoin="round" stroke-linecap="butt" d="m177.39644 967.38617l-38.641495 36.701355l-25.539124 -46.77704z" fill-rule="evenodd"></path><path fill="#ff0000" d="m168.58237 604.5566l38.641495 -36.701355l25.539124 46.7771z" fill-rule="evenodd"></path><path stroke="#ff0000" stroke-width="1.0" stroke-linejoin="round" stroke-linecap="butt" d="m168.58237 604.5566l38.641495 -36.701355l25.539124 46.7771z" fill-rule="evenodd"></path><path fill="#ff0000" d="m707.001 614.63837l-55.366577 352.75385l-64.25775 -10.08783l55.366577 -352.75385z" fill-rule="evenodd"></path><path stroke="#ff0000" stroke-width="1.0" stroke-linejoin="round" stroke-linecap="butt" d="m707.001 614.63837l-55.366577 352.75385l-64.25775 -10.08783l55.366577 -352.75385z" fill-rule="evenodd"></path><path fill="#ff0000" d="m651.5959 967.38617l-38.64148 36.701355l-25.539124 -46.77704z" fill-rule="evenodd"></path><path stroke="#ff0000" stroke-width="1.0" stroke-linejoin="round" stroke-linecap="butt" d="m651.5959 967.38617l-38.64148 36.701355l-25.539124 -46.77704z" fill-rule="evenodd"></path><path fill="#ff0000" d="m642.78186 604.5566l38.64148 -36.701355l25.539124 46.7771z" fill-rule="evenodd"></path><path stroke="#ff0000" stroke-width="1.0" stroke-linejoin="round" stroke-linecap="butt" d="m642.78186 604.5566l38.64148 -36.701355l25.539124 46.7771z" fill-rule="evenodd"></path><path fill="#ff0000" d="m112.33893 1421.8582l378.12006 0l0 65.32031l-378.12006 0z" fill-rule="evenodd"></path><path stroke="#ff0000" stroke-width="1.0" stroke-linejoin="round" stroke-linecap="butt" d="m112.33893 1421.8582l378.12006 0l0 65.32031l-378.12006 0z" fill-rule="evenodd"></path><path fill="#ff0000" d="m490.45898 1421.8973l44.74066 32.62097l-44.74066 32.62097z" fill-rule="evenodd"></path><path stroke="#ff0000" stroke-width="1.0" stroke-linejoin="round" stroke-linecap="butt" d="m490.45898 1421.8973l44.74066 32.62097l-44.74066 32.62097z" fill-rule="evenodd"></path><path fill="#ff0000" d="m112.33893 1487.1393l-44.74063 -32.62097l44.74063 -32.62097z" fill-rule="evenodd"></path><path stroke="#ff0000" stroke-width="1.0" stroke-linejoin="round" stroke-linecap="butt" d="m112.33893 1487.1393l-44.74063 -32.62097l44.74063 -32.62097z" fill-rule="evenodd"></path><path fill="#ff0000" d="m161.15582 1060.9585l-55.366554 352.7539l-64.25775 -10.087769l55.36655 -352.7539z" fill-rule="evenodd"></path><path stroke="#ff0000" stroke-width="1.0" stroke-linejoin="round" stroke-linecap="butt" d="m161.15582 1060.9585l-55.366554 352.7539l-64.25775 -10.087769l55.36655 -352.7539z" fill-rule="evenodd"></path><path fill="#ff0000" d="m105.75076 1413.7064l-38.641487 36.701294l-25.539124 -46.776978z" fill-rule="evenodd"></path><path stroke="#ff0000" stroke-width="1.0" stroke-linejoin="round" stroke-linecap="butt" d="m105.75076 1413.7064l-38.641487 36.701294l-25.539124 -46.776978z" fill-rule="evenodd"></path><path fill="#ff0000" d="m96.9367 1050.8768l38.641487 -36.701355l25.539124 46.77704z" fill-rule="evenodd"></path><path stroke="#ff0000" stroke-width="1.0" stroke-linejoin="round" stroke-linecap="butt" d="m96.9367 1050.8768l38.641487 -36.701355l25.539124 46.77704z" fill-rule="evenodd"></path><path fill="#ff0000" d="m635.3553 1060.9585l-55.366516 352.7539l-64.25775 -10.087769l55.366516 -352.7539z" fill-rule="evenodd"></path><path stroke="#ff0000" stroke-width="1.0" stroke-linejoin="round" stroke-linecap="butt" d="m635.3553 1060.9585l-55.366516 352.7539l-64.25775 -10.087769l55.366516 -352.7539z" fill-rule="evenodd"></path><path fill="#ff0000" d="m579.95026 1413.7064l-38.64148 36.701294l-25.539124 -46.776978z" fill-rule="evenodd"></path><path stroke="#ff0000" stroke-width="1.0" stroke-linejoin="round" stroke-linecap="butt" d="m579.95026 1413.7064l-38.64148 36.701294l-25.539124 -46.776978z" fill-rule="evenodd"></path><path fill="#ff0000" d="m571.13617 1050.8768l38.64148 -36.701355l25.539124 46.77704z" fill-rule="evenodd"></path><path stroke="#ff0000" stroke-width="1.0" stroke-linejoin="round" stroke-linecap="butt" d="m571.13617 1050.8768l38.64148 -36.701355l25.539124 46.77704z" fill-rule="evenodd"></path><path fill="#efefef" d="m2078.0708 530.83203l378.12012 0l0 65.32031l-378.12012 0z" fill-rule="evenodd"></path><path stroke="#cccccc" stroke-width="1.0" stroke-linejoin="round" stroke-linecap="butt" d="m2078.0708 530.83203l378.12012 0l0 65.32031l-378.12012 0z" fill-rule="evenodd"></path><path fill="#efefef" d="m2456.191 530.8712l44.74048 32.62091l-44.74048 32.62097z" fill-rule="evenodd"></path><path stroke="#cccccc" stroke-width="1.0" stroke-linejoin="round" stroke-linecap="butt" d="m2456.191 530.8712l44.74048 32.62091l-44.74048 32.62097z" fill-rule="evenodd"></path><path fill="#efefef" d="m2078.0708 596.1131l-44.740723 -32.62097l44.740723 -32.62091z" fill-rule="evenodd"></path><path stroke="#cccccc" stroke-width="1.0" stroke-linejoin="round" stroke-linecap="butt" d="m2078.0708 596.1131l-44.740723 -32.62097l44.740723 -32.62091z" fill-rule="evenodd"></path><path fill="#efefef" d="m2005.976 975.4465l378.12 0l0 65.32037l-378.12 0z" fill-rule="evenodd"></path><path stroke="#cccccc" stroke-width="1.0" stroke-linejoin="round" stroke-linecap="butt" d="m2005.976 975.4465l378.12 0l0 65.32037l-378.12 0z" fill-rule="evenodd"></path><path fill="#efefef" d="m2384.096 975.4856l44.740723 32.62097l-44.740723 32.62097z" fill-rule="evenodd"></path><path stroke="#cccccc" stroke-width="1.0" stroke-linejoin="round" stroke-linecap="butt" d="m2384.096 975.4856l44.740723 32.62097l-44.740723 32.62097z" fill-rule="evenodd"></path><path fill="#efefef" d="m2005.976 1040.7275l-44.740723 -32.62097l44.740723 -32.62097z" fill-rule="evenodd"></path><path stroke="#cccccc" stroke-width="1.0" stroke-linejoin="round" stroke-linecap="butt" d="m2005.976 1040.7275l-44.740723 -32.62097l44.740723 -32.62097z" fill-rule="evenodd"></path><path fill="#efefef" d="m2050.569 616.4362l-55.366455 352.7539l-64.25769 -10.08783l55.366455 -352.7539z" fill-rule="evenodd"></path><path stroke="#cccccc" stroke-width="1.0" stroke-linejoin="round" stroke-linecap="butt" d="m2050.569 616.4362l-55.366455 352.7539l-64.25769 -10.08783l55.366455 -352.7539z" fill-rule="evenodd"></path><path fill="#efefef" d="m1995.1642 969.1841l-38.64148 36.701355l-25.539185 -46.77704z" fill-rule="evenodd"></path><path stroke="#cccccc" stroke-width="1.0" stroke-linejoin="round" stroke-linecap="butt" d="m1995.1642 969.1841l-38.64148 36.701355l-25.539185 -46.77704z" fill-rule="evenodd"></path><path fill="#efefef" d="m1986.3501 606.3545l38.64148 -36.701355l25.539185 46.77704z" fill-rule="evenodd"></path><path stroke="#cccccc" stroke-width="1.0" stroke-linejoin="round" stroke-linecap="butt" d="m1986.3501 606.3545l38.64148 -36.701355l25.539185 46.77704z" fill-rule="evenodd"></path><path fill="#efefef" d="m2524.7688 616.4362l-55.3667 352.7539l-64.25781 -10.08783l55.3667 -352.7539z" fill-rule="evenodd"></path><path stroke="#cccccc" stroke-width="1.0" stroke-linejoin="round" stroke-linecap="butt" d="m2524.7688 616.4362l-55.3667 352.7539l-64.25781 -10.08783l55.3667 -352.7539z" fill-rule="evenodd"></path><path fill="#efefef" d="m2469.3635 969.1841l-38.641357 36.701355l-25.539062 -46.77704z" fill-rule="evenodd"></path><path stroke="#cccccc" stroke-width="1.0" stroke-linejoin="round" stroke-linecap="butt" d="m2469.3635 969.1841l-38.641357 36.701355l-25.539062 -46.77704z" fill-rule="evenodd"></path><path fill="#efefef" d="m2460.5496 606.3545l38.6416 -36.701355l25.539062 46.77704z" fill-rule="evenodd"></path><path stroke="#cccccc" stroke-width="1.0" stroke-linejoin="round" stroke-linecap="butt" d="m2460.5496 606.3545l38.6416 -36.701355l25.539062 46.77704z" fill-rule="evenodd"></path><path fill="#efefef" d="m1930.1067 1423.6561l378.12012 0l0 65.32031l-378.12012 0z" fill-rule="evenodd"></path><path stroke="#cccccc" stroke-width="1.0" stroke-linejoin="round" stroke-linecap="butt" d="m1930.1067 1423.6561l378.12012 0l0 65.32031l-378.12012 0z" fill-rule="evenodd"></path><path fill="#efefef" d="m2308.2268 1423.6952l44.74048 32.62097l-44.74048 32.62097z" fill-rule="evenodd"></path><path stroke="#cccccc" stroke-width="1.0" stroke-linejoin="round" stroke-linecap="butt" d="m2308.2268 1423.6952l44.74048 32.62097l-44.74048 32.62097z" fill-rule="evenodd"></path><path fill="#efefef" d="m1930.1067 1488.9371l-44.740723 -32.62097l44.740723 -32.62097z" fill-rule="evenodd"></path><path stroke="#cccccc" stroke-width="1.0" stroke-linejoin="round" stroke-linecap="butt" d="m1930.1067 1488.9371l-44.740723 -32.62097l44.740723 -32.62097z" fill-rule="evenodd"></path><path fill="#efefef" d="m1978.9236 1062.7565l-55.366577 352.7539l-64.25781 -10.087891l55.366577 -352.7539z" fill-rule="evenodd"></path><path stroke="#cccccc" stroke-width="1.0" stroke-linejoin="round" stroke-linecap="butt" d="m1978.9236 1062.7565l-55.366577 352.7539l-64.25781 -10.087891l55.366577 -352.7539z" fill-rule="evenodd"></path><path fill="#efefef" d="m1923.5184 1415.5043l-38.64148 36.701416l-25.539062 -46.7771z" fill-rule="evenodd"></path><path stroke="#cccccc" stroke-width="1.0" stroke-linejoin="round" stroke-linecap="butt" d="m1923.5184 1415.5043l-38.64148 36.701416l-25.539062 -46.7771z" fill-rule="evenodd"></path><path fill="#efefef" d="m1914.7045 1052.6747l38.64148 -36.701355l25.539062 46.77704z" fill-rule="evenodd"></path><path stroke="#cccccc" stroke-width="1.0" stroke-linejoin="round" stroke-linecap="butt" d="m1914.7045 1052.6747l38.64148 -36.701355l25.539062 46.77704z" fill-rule="evenodd"></path><path fill="#efefef" d="m2453.123 1062.7565l-55.3667 352.7539l-64.25757 -10.087891l55.366455 -352.7539z" fill-rule="evenodd"></path><path stroke="#cccccc" stroke-width="1.0" stroke-linejoin="round" stroke-linecap="butt" d="m2453.123 1062.7565l-55.3667 352.7539l-64.25757 -10.087891l55.366455 -352.7539z" fill-rule="evenodd"></path><path fill="#efefef" d="m2397.718 1415.5043l-38.6416 36.701416l-25.539062 -46.7771z" fill-rule="evenodd"></path><path stroke="#cccccc" stroke-width="1.0" stroke-linejoin="round" stroke-linecap="butt" d="m2397.718 1415.5043l-38.6416 36.701416l-25.539062 -46.7771z" fill-rule="evenodd"></path><path fill="#efefef" d="m2388.9038 1052.6747l38.6416 -36.701355l25.539062 46.77704z" fill-rule="evenodd"></path><path stroke="#cccccc" stroke-width="1.0" stroke-linejoin="round" stroke-linecap="butt" d="m2388.9038 1052.6747l38.6416 -36.701355l25.539062 46.77704z" fill-rule="evenodd"></path><path fill="#741b47" d="m86.17958 15.030181l0 53.938385l171.32674 0c-10.053406 15.381271 -20.665329 33.46466 -31.835785 54.250168l-157.29385 292.76385l0 56.12088l242.74777 0l0 -53.938385l-196.04134 0l18.640686 -32.113617l172.37395 -317.0829l0 -53.938385z" fill-rule="evenodd"></path><path fill="#741b47" d="m441.8187 179.65138c19.129395 0 34.69818 10.808472 46.70642 32.425385c7.8193054 13.9263 12.566742 34.81572 14.24231 62.66832l-124.201385 0c1.2566528 -28.891861 7.772766 -51.963776 19.548279 -69.215744c11.822052 -17.251968 26.390167 -25.87796 43.704376 -25.87796zm-0.4189148 -46.143814c-30.71872 0 -55.712585 15.381271 -74.9816 46.143814c-19.269043 30.762543 -28.903534 73.9964 -28.903534 129.70155c0 53.834473 9.518158 95.68259 28.554443 125.544464c19.082855 29.792542 44.891235 44.688843 77.42517 44.688843c25.831635 0 47.05548 -9.353485 63.67154 -28.060455c16.616058 -18.70694 27.995941 -45.00061 34.13968 -78.88098l-38.95694 -7.17099c-5.7248535 23.695465 -13.474335 40.94742 -23.248505 51.75589c-9.774139 10.808472 -21.572906 16.212708 -35.39633 16.212708c-18.570862 0 -34.069885 -9.665253 -46.49698 -28.995789c-12.427124 -19.330505 -19.338837 -47.183105 -20.735168 -83.55774l165.88116 0c0.1395874 -6.651367 0.20941162 -11.639862 0.20941162 -14.965546c0 -54.665894 -9.425049 -97.06831 -28.275146 -127.207306c-18.850159 -30.138977 -43.145874 -45.208466 -72.88721 -45.208466z" fill-rule="evenodd"></path><path fill="#741b47" d="m693.36316 133.50757c-30.858337 0 -54.455933 18.187317 -70.79266 54.56195l0 -47.079178l-33.930237 0l0 331.1131l37.700256 0l0 -180.8339c0 -42.40245 5.817932 -71.19037 17.453796 -86.363785c11.682434 -15.173416 25.55243 -22.760132 41.609924 -22.760132c10.053406 0 18.803589 3.3949738 26.25055 10.184891c7.493469 6.7206573 12.70636 15.76236 15.638611 27.125092c2.932251 11.293472 4.3983765 28.372208 4.3983765 51.236267l0 201.41156l37.700256 0l0 -203.59402c0 -25.981888 -0.6981201 -44.169205 -2.0944214 -54.561966c-2.2341309 -16.004837 -6.143799 -29.827194 -11.729004 -41.467087c-5.585205 -11.639877 -14.009644 -21.027985 -25.273132 -28.164352c-11.217041 -7.2056274 -23.527771 -10.808456 -36.932312 -10.808456z" fill-rule="evenodd"></path><path fill="#741b47" d="m922.28754 179.65138c16.336792 0 30.253235 10.288834 41.74951 30.86647c11.542786 20.577652 17.314209 52.4834 17.314209 95.717255c0 42.19458 -6.0040894 73.96173 -18.01233 95.301544c-12.00824 21.270477 -26.25055 31.905762 -42.72699 31.905762c-20.246399 0 -36.303955 -14.445923 -48.172546 -43.3378c-7.260803 -17.667664 -10.891174 -46.351654 -10.891174 -86.05197c0 -40.323883 6.0041504 -71.12108 18.01233 -92.39159c12.00824 -21.339767 26.25055 -32.009674 42.72699 -32.009674zm-95.29791 -164.6212l0 457.07327l34.977478 0l0 -41.467102c14.940491 32.63324 35.53601 48.94989 61.78656 48.94989c26.390198 0 49.010315 -15.4852295 67.86047 -46.455627c18.850098 -30.970398 28.275146 -74.82782 28.275146 -131.57224c0 -23.90335 -2.2340698 -46.351685 -6.7022705 -67.34505c-4.4681396 -20.993362 -10.658447 -38.903534 -18.570862 -53.73053c-7.8658447 -14.896271 -17.91925 -26.43222 -30.160156 -34.607864c-12.194458 -8.244904 -25.133545 -12.367371 -38.81732 -12.367371c-24.7146 0 -45.030884 14.861633 -60.94873 44.5849l0 -163.06229z" fill-rule="evenodd"></path><path fill="#741b47" d="m1207.7622 305.92334l0 20.577637c0 24.734741 -2.0245361 43.44171 -6.0738525 56.12088c-5.3060303 16.420532 -13.614014 29.376831 -24.924072 38.868896c-11.310059 9.4227295 -24.225952 14.134125 -38.74756 14.134125c-14.661133 0 -25.80835 -4.9885254 -33.441406 -14.965546c-7.58667 -9.977051 -11.380005 -22.448364 -11.380005 -37.41391c0 -9.769196 1.7454834 -18.637695 5.236206 -26.605469c3.4907227 -8.037079 8.447632 -14.134125 14.870605 -18.29123c6.4230957 -4.1571045 17.384033 -7.8984985 32.883057 -11.224182c27.367554 -5.8199463 47.89331 -12.887024 61.577026 -21.201202zm-47.963013 -172.41577c-19.129395 0 -35.954956 3.9146118 -50.47644 11.743805c-14.521606 7.7599335 -25.622314 18.880173 -33.302002 33.360733c-7.6796875 14.411301 -13.195068 33.360733 -16.546143 56.84836l36.862427 7.482788c4.0493164 -23.487625 10.286133 -39.838882 18.710571 -49.053802c8.470825 -9.28418 21.572876 -13.926285 39.30591 -13.926285c18.989746 0 33.30188 6.3395844 42.9364 19.018738c7.121216 9.353485 10.681763 25.46225 10.681763 48.326294c0 2.0785522 -0.06982422 6.96315 -0.20947266 14.653778c-14.381958 7.482788 -36.792603 13.9263 -67.232056 19.330536c-14.940552 2.702118 -26.110962 5.508148 -33.511353 8.418121c-10.053467 4.1571045 -19.106201 10.288818 -27.158203 18.395172c-8.005493 8.106354 -14.498291 18.880157 -19.478394 32.321472c-4.933716 13.371979 -7.4003906 28.164337 -7.4003906 44.377045c0 27.644714 6.562622 50.37018 19.687866 68.17645c13.125244 17.736969 31.90564 26.605469 56.340942 26.605469c14.800781 0 28.64746 -3.6374817 41.54004 -10.912415c12.939087 -7.2749023 26.390259 -19.746216 40.35327 -37.41391c1.1170654 15.589142 3.630371 29.203644 7.540039 40.843536l39.375854 0c-4.7474365 -12.679169 -7.935669 -25.912628 -9.564697 -39.700317c-1.5823975 -13.857025 -2.3736572 -46.871307 -2.3736572 -99.04294l0 -74.82782c0 -24.942612 -0.62841797 -42.19458 -1.8851318 -51.755905c-2.2340088 -15.381287 -6.1436768 -28.095078 -11.728882 -38.141403c-5.585205 -10.115616 -14.312134 -18.4991 -26.180786 -25.150467c-11.86853 -6.651367 -27.29773 -9.9770355 -46.287476 -9.9770355z" fill-rule="evenodd"></path><path fill="#741b47" d="m1348.7194 25.319006l-37.490845 33.672516l0 81.99882l-27.64685 0l0 43.649567l27.64685 0l0 190.49916c0 33.672516 1.5358887 55.774414 4.607788 66.305756c3.0718994 10.462036 8.377808 18.914825 15.917969 25.358307c7.540039 6.443512 18.151978 9.665283 31.835693 9.665283c8.377808 0 17.87268 -1.6628418 28.48462 -4.9885254l-5.4455566 -49.573425c-6.841919 1.4549866 -12.3573 2.1824646 -16.546265 2.1824646c-5.585205 0 -9.890381 -1.3510437 -12.9157715 -4.0531616c-2.9787598 -2.702118 -5.1430664 -6.3395996 -6.492798 -10.912415c-1.3032227 -4.5727844 -1.954834 -14.861633 -1.954834 -30.866455l0 -193.61699l37.909668 0l0 -43.649567l-37.909668 0l0 -115.67133z" fill-rule="evenodd"></path><path fill="#741b47" d="m1411.972 140.99034l0 45.520264l90.69006 0c12.287476 0 26.45996 -0.6235657 42.517456 -1.870697l0 0l-141.58545 241.94328l0 45.520264l196.87915 0l0 -48.326294l-102.83789 0c-14.800903 0 -30.648926 0.93533325 -47.54419 2.8060303l23.248413 -38.349274l120.4314 -210.14145l0 -37.102127z" fill-rule="evenodd"></path><path fill="#741b47" d="m1779.9684 305.92334l0 20.577637c0 24.734741 -2.0246582 43.44171 -6.0739746 56.12088c-5.305908 16.420532 -13.613892 29.376831 -24.92395 38.868896c-11.310181 9.4227295 -24.225952 14.134125 -38.74756 14.134125c-14.661133 0 -25.80835 -4.9885254 -33.44153 -14.965546c-7.586548 -9.977051 -11.379883 -22.448364 -11.379883 -37.41391c0 -9.769196 1.7453613 -18.637695 5.236206 -26.605469c3.4907227 -8.037079 8.447632 -14.134125 14.870605 -18.29123c6.4229736 -4.1571045 17.384033 -7.8984985 32.883057 -11.224182c27.367554 -5.8199463 47.89319 -12.887024 61.577026 -21.201202zm-47.963135 -172.41577c-19.129395 0 -35.954834 3.9146118 -50.47644 11.743805c-14.521606 7.7599335 -25.622192 18.880173 -33.30188 33.360733c-7.6796875 14.411301 -13.195068 33.360733 -16.546265 56.84836l36.86255 7.482788c4.0493164 -23.487625 10.286133 -39.838882 18.71045 -49.053802c8.470947 -9.28418 21.572998 -13.926285 39.30603 -13.926285c18.989746 0 33.30188 6.3395844 42.9364 19.018738c7.121216 9.353485 10.681763 25.46225 10.681763 48.326294c0 2.0785522 -0.06982422 6.96315 -0.20947266 14.653778c-14.381958 7.482788 -36.792603 13.9263 -67.232056 19.330536c-14.940552 2.702118 -26.110962 5.508148 -33.511353 8.418121c-10.053467 4.1571045 -19.10608 10.288818 -27.158203 18.395172c-8.005493 8.106354 -14.498291 18.880157 -19.478516 32.321472c-4.9334717 13.371979 -7.4003906 28.164337 -7.4003906 44.377045c0 27.644714 6.562622 50.37018 19.687988 68.17645c13.125244 17.736969 31.905518 26.605469 56.340942 26.605469c14.800781 0 28.647583 -3.6374817 41.54004 -10.912415c12.939209 -7.2749023 26.390137 -19.746216 40.35327 -37.41391c1.1170654 15.589142 3.630371 29.203644 7.540039 40.843536l39.375854 0c-4.7474365 -12.679169 -7.935669 -25.912628 -9.564697 -39.700317c-1.5825195 -13.857025 -2.3737793 -46.871307 -2.3737793 -99.04294l0 -74.82782c0 -24.942612 -0.6282959 -42.19458 -1.8850098 -51.755905c-2.2341309 -15.381287 -6.1436768 -28.095078 -11.729004 -38.141403c-5.585205 -10.115616 -14.312134 -18.4991 -26.180664 -25.150467c-11.868652 -6.651367 -27.297852 -9.9770355 -46.287598 -9.9770355z" fill-rule="evenodd"></path><path fill="#741b47" d="m1876.7324 15.030181l0 64.538994l37.700195 0l0 -64.538994zm0 125.96016l0 331.1131l37.700195 0l0 -331.1131z" fill-rule="evenodd"></path><path fill="#741b47" d="m1970.983 15.030181l0 457.07327l37.700317 0l0 -457.07327z" fill-rule="evenodd"></path><path fill="#741b47" d="m2158.856 179.65138c19.129395 0 34.698242 10.808472 46.706543 32.425385c7.819336 13.9263 12.56665 34.81572 14.2421875 62.66832l-124.201416 0c1.2568359 -28.891861 7.772949 -51.963776 19.54834 -69.215744c11.8220215 -17.251968 26.390137 -25.87796 43.704346 -25.87796zm-0.4189453 -46.143814c-30.71875 0 -55.712402 15.381271 -74.981445 46.143814c-19.269043 30.762543 -28.903564 73.9964 -28.903564 129.70155c0 53.834473 9.518066 95.68259 28.554443 125.544464c19.082764 29.792542 44.891113 44.688843 77.42505 44.688843c25.831787 0 47.055664 -9.353485 63.67163 -28.060455c16.615967 -18.70694 27.99585 -45.00061 34.13965 -78.88098l-38.95703 -7.17099c-5.7248535 23.695465 -13.474365 40.94742 -23.248291 51.75589c-9.77417 10.808472 -21.572998 16.212708 -35.396484 16.212708c-18.5708 0 -34.069824 -9.665253 -46.49707 -28.995789c-12.427002 -19.330505 -19.338623 -47.183105 -20.735107 -83.55774l165.8811 0c0.13964844 -6.651367 0.20947266 -11.639862 0.20947266 -14.965546c0 -54.665894 -9.425049 -97.06831 -28.275146 -127.207306c-18.850098 -30.138977 -43.145752 -45.208466 -72.88721 -45.208466z" fill-rule="evenodd"></path><path fill="#741b47" d="m2447.682 305.92334l0 20.577637c0 24.734741 -2.0246582 43.44171 -6.0739746 56.12088c-5.305908 16.420532 -13.614014 29.376831 -24.924072 38.868896c-11.310059 9.4227295 -24.22583 14.134125 -38.74756 14.134125c-14.661133 0 -25.80835 -4.9885254 -33.441406 -14.965546c-7.58667 -9.977051 -11.379883 -22.448364 -11.379883 -37.41391c0 -9.769196 1.7453613 -18.637695 5.236084 -26.605469c3.4907227 -8.037079 8.447754 -14.134125 14.870605 -18.29123c6.4230957 -4.1571045 17.384033 -7.8984985 32.883057 -11.224182c27.367676 -5.8199463 47.89331 -12.887024 61.57715 -21.201202zm-47.963135 -172.41577c-19.129395 0 -35.954834 3.9146118 -50.476562 11.743805c-14.521484 7.7599335 -25.62207 18.880173 -33.301758 33.360733c-7.6796875 14.411301 -13.195068 33.360733 -16.546143 56.84836l36.862305 7.482788c4.0493164 -23.487625 10.286133 -39.838882 18.71045 -49.053802c8.470947 -9.28418 21.572998 -13.926285 39.306152 -13.926285c18.989746 0 33.301758 6.3395844 42.93628 19.018738c7.121338 9.353485 10.681885 25.46225 10.681885 48.326294c0 2.0785522 -0.06982422 6.96315 -0.20947266 14.653778c-14.38208 7.482788 -36.792725 13.9263 -67.23218 19.330536c-14.94043 2.702118 -26.11084 5.508148 -33.51123 8.418121c-10.053467 4.1571045 -19.106201 10.288818 -27.158203 18.395172c-8.005371 8.106354 -14.498291 18.880157 -19.478516 32.321472c-4.9335938 13.371979 -7.4003906 28.164337 -7.4003906 44.377045c0 27.644714 6.5625 50.37018 19.687988 68.17645c13.125244 17.736969 31.905518 26.605469 56.34082 26.605469c14.800781 0 28.64746 -3.6374817 41.54004 -10.912415c12.939209 -7.2749023 26.39038 -19.746216 40.35327 -37.41391c1.1171875 15.589142 3.630371 29.203644 7.540039 40.843536l39.375977 0c-4.7475586 -12.679169 -7.935791 -25.912628 -9.564697 -39.700317c-1.5827637 -13.857025 -2.3737793 -46.871307 -2.3737793 -99.04294l0 -74.82782c0 -24.942612 -0.62841797 -42.19458 -1.8850098 -51.755905c-2.2341309 -15.381287 -6.143799 -28.095078 -11.729004 -38.141403c-5.585205 -10.115616 -14.312012 -18.4991 -26.180664 -25.150467c-11.868652 -6.651367 -27.297852 -9.9770355 -46.287598 -9.9770355z" fill-rule="evenodd"></path><path stroke="#000000" stroke-width="1.0" stroke-linejoin="round" stroke-linecap="butt" d="m86.17958 15.030181l0 53.938385l171.32674 0c-10.053406 15.381271 -20.665329 33.46466 -31.835785 54.250168l-157.29385 292.76385l0 56.12088l242.74777 0l0 -53.938385l-196.04134 0l18.640686 -32.113617l172.37395 -317.0829l0 -53.938385z" fill-rule="evenodd"></path><path stroke="#000000" stroke-width="1.0" stroke-linejoin="round" stroke-linecap="butt" d="m441.8187 179.65138c19.129395 0 34.69818 10.808472 46.70642 32.425385c7.8193054 13.9263 12.566742 34.81572 14.24231 62.66832l-124.201385 0c1.2566528 -28.891861 7.772766 -51.963776 19.548279 -69.215744c11.822052 -17.251968 26.390167 -25.87796 43.704376 -25.87796zm-0.4189148 -46.143814c-30.71872 0 -55.712585 15.381271 -74.9816 46.143814c-19.269043 30.762543 -28.903534 73.9964 -28.903534 129.70155c0 53.834473 9.518158 95.68259 28.554443 125.544464c19.082855 29.792542 44.891235 44.688843 77.42517 44.688843c25.831635 0 47.05548 -9.353485 63.67154 -28.060455c16.616058 -18.70694 27.995941 -45.00061 34.13968 -78.88098l-38.95694 -7.17099c-5.7248535 23.695465 -13.474335 40.94742 -23.248505 51.75589c-9.774139 10.808472 -21.572906 16.212708 -35.39633 16.212708c-18.570862 0 -34.069885 -9.665253 -46.49698 -28.995789c-12.427124 -19.330505 -19.338837 -47.183105 -20.735168 -83.55774l165.88116 0c0.1395874 -6.651367 0.20941162 -11.639862 0.20941162 -14.965546c0 -54.665894 -9.425049 -97.06831 -28.275146 -127.207306c-18.850159 -30.138977 -43.145874 -45.208466 -72.88721 -45.208466z" fill-rule="evenodd"></path><path stroke="#000000" stroke-width="1.0" stroke-linejoin="round" stroke-linecap="butt" d="m693.36316 133.50757c-30.858337 0 -54.455933 18.187317 -70.79266 54.56195l0 -47.079178l-33.930237 0l0 331.1131l37.700256 0l0 -180.8339c0 -42.40245 5.817932 -71.19037 17.453796 -86.363785c11.682434 -15.173416 25.55243 -22.760132 41.609924 -22.760132c10.053406 0 18.803589 3.3949738 26.25055 10.184891c7.493469 6.7206573 12.70636 15.76236 15.638611 27.125092c2.932251 11.293472 4.3983765 28.372208 4.3983765 51.236267l0 201.41156l37.700256 0l0 -203.59402c0 -25.981888 -0.6981201 -44.169205 -2.0944214 -54.561966c-2.2341309 -16.004837 -6.143799 -29.827194 -11.729004 -41.467087c-5.585205 -11.639877 -14.009644 -21.027985 -25.273132 -28.164352c-11.217041 -7.2056274 -23.527771 -10.808456 -36.932312 -10.808456z" fill-rule="evenodd"></path><path stroke="#000000" stroke-width="1.0" stroke-linejoin="round" stroke-linecap="butt" d="m922.28754 179.65138c16.336792 0 30.253235 10.288834 41.74951 30.86647c11.542786 20.577652 17.314209 52.4834 17.314209 95.717255c0 42.19458 -6.0040894 73.96173 -18.01233 95.301544c-12.00824 21.270477 -26.25055 31.905762 -42.72699 31.905762c-20.246399 0 -36.303955 -14.445923 -48.172546 -43.3378c-7.260803 -17.667664 -10.891174 -46.351654 -10.891174 -86.05197c0 -40.323883 6.0041504 -71.12108 18.01233 -92.39159c12.00824 -21.339767 26.25055 -32.009674 42.72699 -32.009674zm-95.29791 -164.6212l0 457.07327l34.977478 0l0 -41.467102c14.940491 32.63324 35.53601 48.94989 61.78656 48.94989c26.390198 0 49.010315 -15.4852295 67.86047 -46.455627c18.850098 -30.970398 28.275146 -74.82782 28.275146 -131.57224c0 -23.90335 -2.2340698 -46.351685 -6.7022705 -67.34505c-4.4681396 -20.993362 -10.658447 -38.903534 -18.570862 -53.73053c-7.8658447 -14.896271 -17.91925 -26.43222 -30.160156 -34.607864c-12.194458 -8.244904 -25.133545 -12.367371 -38.81732 -12.367371c-24.7146 0 -45.030884 14.861633 -60.94873 44.5849l0 -163.06229z" fill-rule="evenodd"></path><path stroke="#000000" stroke-width="1.0" stroke-linejoin="round" stroke-linecap="butt" d="m1207.7622 305.92334l0 20.577637c0 24.734741 -2.0245361 43.44171 -6.0738525 56.12088c-5.3060303 16.420532 -13.614014 29.376831 -24.924072 38.868896c-11.310059 9.4227295 -24.225952 14.134125 -38.74756 14.134125c-14.661133 0 -25.80835 -4.9885254 -33.441406 -14.965546c-7.58667 -9.977051 -11.380005 -22.448364 -11.380005 -37.41391c0 -9.769196 1.7454834 -18.637695 5.236206 -26.605469c3.4907227 -8.037079 8.447632 -14.134125 14.870605 -18.29123c6.4230957 -4.1571045 17.384033 -7.8984985 32.883057 -11.224182c27.367554 -5.8199463 47.89331 -12.887024 61.577026 -21.201202zm-47.963013 -172.41577c-19.129395 0 -35.954956 3.9146118 -50.47644 11.743805c-14.521606 7.7599335 -25.622314 18.880173 -33.302002 33.360733c-7.6796875 14.411301 -13.195068 33.360733 -16.546143 56.84836l36.862427 7.482788c4.0493164 -23.487625 10.286133 -39.838882 18.710571 -49.053802c8.470825 -9.28418 21.572876 -13.926285 39.30591 -13.926285c18.989746 0 33.30188 6.3395844 42.9364 19.018738c7.121216 9.353485 10.681763 25.46225 10.681763 48.326294c0 2.0785522 -0.06982422 6.96315 -0.20947266 14.653778c-14.381958 7.482788 -36.792603 13.9263 -67.232056 19.330536c-14.940552 2.702118 -26.110962 5.508148 -33.511353 8.418121c-10.053467 4.1571045 -19.106201 10.288818 -27.158203 18.395172c-8.005493 8.106354 -14.498291 18.880157 -19.478394 32.321472c-4.933716 13.371979 -7.4003906 28.164337 -7.4003906 44.377045c0 27.644714 6.562622 50.37018 19.687866 68.17645c13.125244 17.736969 31.90564 26.605469 56.340942 26.605469c14.800781 0 28.64746 -3.6374817 41.54004 -10.912415c12.939087 -7.2749023 26.390259 -19.746216 40.35327 -37.41391c1.1170654 15.589142 3.630371 29.203644 7.540039 40.843536l39.375854 0c-4.7474365 -12.679169 -7.935669 -25.912628 -9.564697 -39.700317c-1.5823975 -13.857025 -2.3736572 -46.871307 -2.3736572 -99.04294l0 -74.82782c0 -24.942612 -0.62841797 -42.19458 -1.8851318 -51.755905c-2.2340088 -15.381287 -6.1436768 -28.095078 -11.728882 -38.141403c-5.585205 -10.115616 -14.312134 -18.4991 -26.180786 -25.150467c-11.86853 -6.651367 -27.29773 -9.9770355 -46.287476 -9.9770355z" fill-rule="evenodd"></path><path stroke="#000000" stroke-width="1.0" stroke-linejoin="round" stroke-linecap="butt" d="m1348.7194 25.319006l-37.490845 33.672516l0 81.99882l-27.64685 0l0 43.649567l27.64685 0l0 190.49916c0 33.672516 1.5358887 55.774414 4.607788 66.305756c3.0718994 10.462036 8.377808 18.914825 15.917969 25.358307c7.540039 6.443512 18.151978 9.665283 31.835693 9.665283c8.377808 0 17.87268 -1.6628418 28.48462 -4.9885254l-5.4455566 -49.573425c-6.841919 1.4549866 -12.3573 2.1824646 -16.546265 2.1824646c-5.585205 0 -9.890381 -1.3510437 -12.9157715 -4.0531616c-2.9787598 -2.702118 -5.1430664 -6.3395996 -6.492798 -10.912415c-1.3032227 -4.5727844 -1.954834 -14.861633 -1.954834 -30.866455l0 -193.61699l37.909668 0l0 -43.649567l-37.909668 0l0 -115.67133z" fill-rule="evenodd"></path><path stroke="#000000" stroke-width="1.0" stroke-linejoin="round" stroke-linecap="butt" d="m1411.972 140.99034l0 45.520264l90.69006 0c12.287476 0 26.45996 -0.6235657 42.517456 -1.870697l0 0l-141.58545 241.94328l0 45.520264l196.87915 0l0 -48.326294l-102.83789 0c-14.800903 0 -30.648926 0.93533325 -47.54419 2.8060303l23.248413 -38.349274l120.4314 -210.14145l0 -37.102127z" fill-rule="evenodd"></path><path stroke="#000000" stroke-width="1.0" stroke-linejoin="round" stroke-linecap="butt" d="m1779.9684 305.92334l0 20.577637c0 24.734741 -2.0246582 43.44171 -6.0739746 56.12088c-5.305908 16.420532 -13.613892 29.376831 -24.92395 38.868896c-11.310181 9.4227295 -24.225952 14.134125 -38.74756 14.134125c-14.661133 0 -25.80835 -4.9885254 -33.44153 -14.965546c-7.586548 -9.977051 -11.379883 -22.448364 -11.379883 -37.41391c0 -9.769196 1.7453613 -18.637695 5.236206 -26.605469c3.4907227 -8.037079 8.447632 -14.134125 14.870605 -18.29123c6.4229736 -4.1571045 17.384033 -7.8984985 32.883057 -11.224182c27.367554 -5.8199463 47.89319 -12.887024 61.577026 -21.201202zm-47.963135 -172.41577c-19.129395 0 -35.954834 3.9146118 -50.47644 11.743805c-14.521606 7.7599335 -25.622192 18.880173 -33.30188 33.360733c-7.6796875 14.411301 -13.195068 33.360733 -16.546265 56.84836l36.86255 7.482788c4.0493164 -23.487625 10.286133 -39.838882 18.71045 -49.053802c8.470947 -9.28418 21.572998 -13.926285 39.30603 -13.926285c18.989746 0 33.30188 6.3395844 42.9364 19.018738c7.121216 9.353485 10.681763 25.46225 10.681763 48.326294c0 2.0785522 -0.06982422 6.96315 -0.20947266 14.653778c-14.381958 7.482788 -36.792603 13.9263 -67.232056 19.330536c-14.940552 2.702118 -26.110962 5.508148 -33.511353 8.418121c-10.053467 4.1571045 -19.10608 10.288818 -27.158203 18.395172c-8.005493 8.106354 -14.498291 18.880157 -19.478516 32.321472c-4.9334717 13.371979 -7.4003906 28.164337 -7.4003906 44.377045c0 27.644714 6.562622 50.37018 19.687988 68.17645c13.125244 17.736969 31.905518 26.605469 56.340942 26.605469c14.800781 0 28.647583 -3.6374817 41.54004 -10.912415c12.939209 -7.2749023 26.390137 -19.746216 40.35327 -37.41391c1.1170654 15.589142 3.630371 29.203644 7.540039 40.843536l39.375854 0c-4.7474365 -12.679169 -7.935669 -25.912628 -9.564697 -39.700317c-1.5825195 -13.857025 -2.3737793 -46.871307 -2.3737793 -99.04294l0 -74.82782c0 -24.942612 -0.6282959 -42.19458 -1.8850098 -51.755905c-2.2341309 -15.381287 -6.1436768 -28.095078 -11.729004 -38.141403c-5.585205 -10.115616 -14.312134 -18.4991 -26.180664 -25.150467c-11.868652 -6.651367 -27.297852 -9.9770355 -46.287598 -9.9770355z" fill-rule="evenodd"></path><path stroke="#000000" stroke-width="1.0" stroke-linejoin="round" stroke-linecap="butt" d="m1876.7324 15.030181l0 64.538994l37.700195 0l0 -64.538994zm0 125.96016l0 331.1131l37.700195 0l0 -331.1131z" fill-rule="evenodd"></path><path stroke="#000000" stroke-width="1.0" stroke-linejoin="round" stroke-linecap="butt" d="m1970.983 15.030181l0 457.07327l37.700317 0l0 -457.07327z" fill-rule="evenodd"></path><path stroke="#000000" stroke-width="1.0" stroke-linejoin="round" stroke-linecap="butt" d="m2158.856 179.65138c19.129395 0 34.698242 10.808472 46.706543 32.425385c7.819336 13.9263 12.56665 34.81572 14.2421875 62.66832l-124.201416 0c1.2568359 -28.891861 7.772949 -51.963776 19.54834 -69.215744c11.8220215 -17.251968 26.390137 -25.87796 43.704346 -25.87796zm-0.4189453 -46.143814c-30.71875 0 -55.712402 15.381271 -74.981445 46.143814c-19.269043 30.762543 -28.903564 73.9964 -28.903564 129.70155c0 53.834473 9.518066 95.68259 28.554443 125.544464c19.082764 29.792542 44.891113 44.688843 77.42505 44.688843c25.831787 0 47.055664 -9.353485 63.67163 -28.060455c16.615967 -18.70694 27.99585 -45.00061 34.13965 -78.88098l-38.95703 -7.17099c-5.7248535 23.695465 -13.474365 40.94742 -23.248291 51.75589c-9.77417 10.808472 -21.572998 16.212708 -35.396484 16.212708c-18.5708 0 -34.069824 -9.665253 -46.49707 -28.995789c-12.427002 -19.330505 -19.338623 -47.183105 -20.735107 -83.55774l165.8811 0c0.13964844 -6.651367 0.20947266 -11.639862 0.20947266 -14.965546c0 -54.665894 -9.425049 -97.06831 -28.275146 -127.207306c-18.850098 -30.138977 -43.145752 -45.208466 -72.88721 -45.208466z" fill-rule="evenodd"></path><path stroke="#000000" stroke-width="1.0" stroke-linejoin="round" stroke-linecap="butt" d="m2447.682 305.92334l0 20.577637c0 24.734741 -2.0246582 43.44171 -6.0739746 56.12088c-5.305908 16.420532 -13.614014 29.376831 -24.924072 38.868896c-11.310059 9.4227295 -24.22583 14.134125 -38.74756 14.134125c-14.661133 0 -25.80835 -4.9885254 -33.441406 -14.965546c-7.58667 -9.977051 -11.379883 -22.448364 -11.379883 -37.41391c0 -9.769196 1.7453613 -18.637695 5.236084 -26.605469c3.4907227 -8.037079 8.447754 -14.134125 14.870605 -18.29123c6.4230957 -4.1571045 17.384033 -7.8984985 32.883057 -11.224182c27.367676 -5.8199463 47.89331 -12.887024 61.57715 -21.201202zm-47.963135 -172.41577c-19.129395 0 -35.954834 3.9146118 -50.476562 11.743805c-14.521484 7.7599335 -25.62207 18.880173 -33.301758 33.360733c-7.6796875 14.411301 -13.195068 33.360733 -16.546143 56.84836l36.862305 7.482788c4.0493164 -23.487625 10.286133 -39.838882 18.71045 -49.053802c8.470947 -9.28418 21.572998 -13.926285 39.306152 -13.926285c18.989746 0 33.301758 6.3395844 42.93628 19.018738c7.121338 9.353485 10.681885 25.46225 10.681885 48.326294c0 2.0785522 -0.06982422 6.96315 -0.20947266 14.653778c-14.38208 7.482788 -36.792725 13.9263 -67.23218 19.330536c-14.94043 2.702118 -26.11084 5.508148 -33.51123 8.418121c-10.053467 4.1571045 -19.106201 10.288818 -27.158203 18.395172c-8.005371 8.106354 -14.498291 18.880157 -19.478516 32.321472c-4.9335938 13.371979 -7.4003906 28.164337 -7.4003906 44.377045c0 27.644714 6.5625 50.37018 19.687988 68.17645c13.125244 17.736969 31.905518 26.605469 56.34082 26.605469c14.800781 0 28.64746 -3.6374817 41.54004 -10.912415c12.939209 -7.2749023 26.39038 -19.746216 40.35327 -37.41391c1.1171875 15.589142 3.630371 29.203644 7.540039 40.843536l39.375977 0c-4.7475586 -12.679169 -7.935791 -25.912628 -9.564697 -39.700317c-1.5827637 -13.857025 -2.3737793 -46.871307 -2.3737793 -99.04294l0 -74.82782c0 -24.942612 -0.62841797 -42.19458 -1.8850098 -51.755905c-2.2341309 -15.381287 -6.143799 -28.095078 -11.729004 -38.141403c-5.585205 -10.115616 -14.312012 -18.4991 -26.180664 -25.150467c-11.868652 -6.651367 -27.297852 -9.9770355 -46.287598 -9.9770355z" fill-rule="evenodd"></path></g></svg>

