<?xml version="1.0" encoding="UTF-8" standalone="no"?>
<svg
   xmlns:dc="http://purl.org/dc/elements/1.1/"
   xmlns:cc="http://creativecommons.org/ns#"
   xmlns:rdf="http://www.w3.org/1999/02/22-rdf-syntax-ns#"
   xmlns:svg="http://www.w3.org/2000/svg"
   xmlns="http://www.w3.org/2000/svg"
   xmlns:sodipodi="http://sodipodi.sourceforge.net/DTD/sodipodi-0.dtd"
   xmlns:inkscape="http://www.inkscape.org/namespaces/inkscape"
   version="1.1"
   viewBox="0.0 0.0 364.00787401574803 302.37270341207346"
   fill="none"
   stroke="none"
   stroke-linecap="square"
   stroke-miterlimit="10"
   id="svg4502"
   sodipodi:docname="Zenb-5bit.svg"
   inkscape:version="0.92.1 r15371">
  <metadata
     id="metadata4508">
    <rdf:RDF>
      <cc:Work
         rdf:about="">
        <dc:format>image/svg+xml</dc:format>
        <dc:type
           rdf:resource="http://purl.org/dc/dcmitype/StillImage" />
        <dc:title></dc:title>
      </cc:Work>
    </rdf:RDF>
  </metadata>
  <defs
     id="defs4506" />
  <sodipodi:namedview
     pagecolor="#ffffff"
     bordercolor="#666666"
     borderopacity="1"
     objecttolerance="10"
     gridtolerance="10"
     guidetolerance="10"
     inkscape:pageopacity="0"
     inkscape:pageshadow="2"
     inkscape:window-width="1920"
     inkscape:window-height="1001"
     id="namedview4504"
     showgrid="false"
     inkscape:zoom="2.6721988"
     inkscape:cx="182.00394"
     inkscape:cy="151.18636"
     inkscape:window-x="-9"
     inkscape:window-y="-9"
     inkscape:window-maximized="1"
     inkscape:current-layer="g4500" />
  <clipPath
     id="p.0">
    <path
       d="m0 0l364.00787 0l0 302.3727l-364.00787 0l0 -302.3727z"
       clip-rule="nonzero"
       id="path4485" />
  </clipPath>
  <g
     clip-path="url(#p.0)"
     id="g4500">
    <path
       fill="#000000"
       fill-opacity="0.0"
       d="m0 0l364.00787 0l0 302.3727l-364.00787 0z"
       fill-rule="evenodd"
       id="path4488" />
    <path
       fill="#000000"
       fill-opacity="0.0"
       d="m0 9.272965l475.59055 0l0 140.22047l-475.59055 0z"
       fill-rule="evenodd"
       id="path4490" />
    <path
       d="M 79.233984,117.21869 H 3.4029485 V 103.59267 L 62.984477,19.98516 H 5.6217568 V 6.951571 H 77.798285 V 20.207323 L 17.629426,104.1851 H 79.233984 Z M 159.82893,77.303327 h -53.70821 q 0,7.627611 2.02303,13.292779 2.02303,5.665168 5.54702,9.293837 3.39347,3.554617 8.0595,5.331927 4.66602,1.7773 10.2783,1.7773 7.43953,0 14.97696,-3.36948 7.53742,-3.36947 10.73511,-6.627872 h 0.65259 v 15.181172 q -6.19961,2.96218 -12.66026,4.96165 -6.46064,1.99947 -13.57388,1.99947 -18.14202,0 -28.32244,-11.1452 -10.180412,-11.145201 -10.180412,-31.658291 0,-20.290928 9.756232,-32.213699 9.75623,-11.922771 25.67944,-11.922771 14.74855,0 22.74279,9.775191 7.99423,9.775191 7.99423,27.77043 z M 147.88652,66.639482 q -0.0653,-10.960063 -4.8618,-16.958476 -4.79654,-5.998413 -14.5854,-5.998413 -9.85412,0 -15.6948,6.590849 -5.84069,6.590848 -6.6238,16.36604 z m 91.49322,50.579208 H 227.11103 V 70.120042 q 0,-5.702195 -0.58733,-10.700872 -0.58733,-4.998677 -2.15355,-7.812748 -1.63148,-3.110288 -4.69865,-4.628405 -3.06718,-1.518116 -7.96161,-1.518116 -5.02495,0 -10.50671,2.81407 -5.48176,2.81407 -10.50671,7.183284 v 61.761435 h -12.2687 V 34.499838 h 12.2687 v 9.182755 q 5.7428,-5.405977 11.87715,-8.442211 6.13435,-3.036233 12.595,-3.036233 11.81189,0 18.0115,8.071938 6.19962,8.071938 6.19962,23.253107 z m 87.77344,-41.988889 q 0,10.367627 -2.57773,18.661729 -2.57774,8.2941 -6.95009,13.92224 -4.6334,5.85031 -10.18042,8.77546 -5.54702,2.92515 -12.20344,2.92515 -6.19962,0 -10.83301,-1.66623 -4.63339,-1.66622 -9.13627,-4.48029 l -0.78311,3.85083 H 263.00352 V 1.9899209 h 12.2687 V 43.164212 q 5.15547,-4.813541 10.96352,-7.886802 5.80806,-3.073261 13.05182,-3.073261 12.92129,0 20.39346,11.256281 7.47216,11.25628 7.47216,31.769371 z m -12.66026,0.370273 q 0,-14.810896 -4.3071,-22.475535 -4.3071,-7.664638 -13.90018,-7.664638 -5.35124,0 -10.833,2.628934 -5.48177,2.628934 -10.18042,6.775984 v 47.394871 q 5.22073,2.66596 8.97312,3.70272 3.7524,1.03676 8.51631,1.03676 10.18042,0 15.95584,-7.590581 5.77543,-7.590584 5.77543,-23.808515 z m 51.8157,41.618616 H 350.7117 V 96.113165 h 15.59692 z"
       id="path4492"
       inkscape:connector-curvature="0"
       style="fill:#2012ba;fill-rule:nonzero;stroke-width:1.11228502;fill-opacity:1" />
    <path
       fill="#000000"
       d="m381.96875 141.15297l0 -1.90625l1.90625 0l0 1.90625l-1.90625 0z"
       fill-rule="nonzero"
       id="path4494" />
    <path
       fill="#000000"
       fill-opacity="0.0"
       d="m36.88714 161.38846l440.9449 0l0 87.18109l-440.9449 0z"
       fill-rule="evenodd"
       id="path4496" />
    <path
       d="M 1.7167364,247.45267 19.07807,245.41056 q -0.18871,4.42457 -0.18871,5.33218 0,7.48773 3.160895,15.08893 3.160895,7.60119 8.586311,11.62869 5.425418,4.0275 11.464142,4.0275 7.925827,0 16.134719,-6.58014 8.208891,-6.58014 13.304065,-19.17315 5.095175,-12.59302 5.095175,-24.95915 0,-13.95442 -6.840743,-22.34977 -6.840743,-8.39535 -17.974643,-8.39535 -7.45405,0 -14.106084,4.31112 -6.652032,4.31113 -12.407692,12.93338 l -14.908102,-1.24796 20.852472,-85.08797 h 67.55823 l -3.302423,18.8328 H 42.949904 l -10.379058,42.31709 q 5.850015,-5.10528 12.030272,-7.65792 6.180257,-2.55264 12.690758,-2.55264 15.851652,0 26.042001,12.59303 10.190344,12.59301 10.190344,34.48898 0,19.17317 -6.982272,35.33988 -6.982275,16.16672 -19.201258,24.84569 -12.218982,8.67897 -26.372243,8.67897 -11.888739,0 -21.041182,-6.46668 Q 10.774824,284.89138 6.1986024,273.54631 1.622381,262.20125 1.622381,250.85619 q 0,-1.13451 0.094354,-3.40352 z M 155.79859,294.98849 184.67125,128.66985 h 17.07827 l -10.28471,59.44814 q 8.11454,-8.9626 14.71939,-12.64976 6.60486,-3.68714 13.77585,-3.68714 14.0589,0 23.44723,12.59303 9.38832,12.59301 9.38832,36.64455 0,15.99654 -3.77419,29.27026 -3.7742,13.27373 -9.34116,22.29305 -5.56695,9.01933 -11.51131,14.40824 -5.94438,5.3889 -12.17181,8.05499 -6.22743,2.66609 -11.9831,2.66609 -9.90728,0 -17.45569,-6.29651 -7.5484,-6.29651 -11.79438,-19.22988 l -3.96291,22.80358 z m 25.28716,-49.46448 -0.0943,3.85732 q 0,15.42928 6.13308,23.48428 6.13307,8.055 15.28552,8.055 8.96373,0 16.46496,-7.54447 7.50122,-7.54447 12.31334,-23.54101 4.81211,-15.99654 4.81211,-29.49717 0,-15.20238 -6.08591,-23.59773 -6.0859,-8.39534 -15.04963,-8.39534 -9.24679,0 -16.98391,8.56552 -7.73712,8.56552 -12.92665,26.37728 -3.86856,13.27372 -3.86856,22.23632 z m 106.43253,-93.59678 4.05727,-23.25738 h 16.98391 l -4.05727,23.25738 z m -24.90974,143.06126 20.94683,-120.48458 h 17.07826 l -20.94682,120.48458 z m 83.50424,-16.67725 -2.83065,16.7907 q -6.13308,1.92865 -11.88874,1.92865 -10.19035,0 -16.22907,-6.01287 -4.52905,-4.53803 -4.52905,-12.36613 0,-3.97077 2.45323,-18.26555 l 12.1718,-69.99905 h -13.49277 l 2.7363,-15.88308 h 13.49278 l 5.18953,-29.61062 19.53149,-14.18132 -7.64275,43.79194 h 16.79519 l -2.83065,15.88308 h -16.70085 l -11.60566,66.59553 q -2.17017,12.70647 -2.17017,15.20239 0,3.63042 1.74556,5.55907 1.74558,1.92867 5.70849,1.92867 5.6613,0 10.09599,-1.36141 z"
       id="path4498"
       inkscape:connector-curvature="0"
       style="fill:#065a08;fill-opacity:1;fill-rule:nonzero;stroke-width:1.65541196" />
  </g>
</svg>
