<?xml version="1.0" encoding="UTF-8" standalone="no"?>
<svg
   xmlns:dc="http://purl.org/dc/elements/1.1/"
   xmlns:cc="http://creativecommons.org/ns#"
   xmlns:rdf="http://www.w3.org/1999/02/22-rdf-syntax-ns#"
   xmlns:svg="http://www.w3.org/2000/svg"
   xmlns="http://www.w3.org/2000/svg"
   xmlns:sodipodi="http://sodipodi.sourceforge.net/DTD/sodipodi-0.dtd"
   xmlns:inkscape="http://www.inkscape.org/namespaces/inkscape"
   version="1.1"
   viewBox="0.0 0.0 364.00787401574803 302.37270341207346"
   fill="none"
   stroke="none"
   stroke-linecap="square"
   stroke-miterlimit="10"
   id="svg4515"
   sodipodi:docname="Zenb-6bit.svg"
   inkscape:version="0.92.1 r15371">
  <metadata
     id="metadata4521">
    <rdf:RDF>
      <cc:Work
         rdf:about="">
        <dc:format>image/svg+xml</dc:format>
        <dc:type
           rdf:resource="http://purl.org/dc/dcmitype/StillImage" />
        <dc:title></dc:title>
      </cc:Work>
    </rdf:RDF>
  </metadata>
  <defs
     id="defs4519" />
  <sodipodi:namedview
     pagecolor="#ffffff"
     bordercolor="#666666"
     borderopacity="1"
     objecttolerance="10"
     gridtolerance="10"
     guidetolerance="10"
     inkscape:pageopacity="0"
     inkscape:pageshadow="2"
     inkscape:window-width="1920"
     inkscape:window-height="1001"
     id="namedview4517"
     showgrid="false"
     inkscape:zoom="0.78049371"
     inkscape:cx="182.00394"
     inkscape:cy="151.18636"
     inkscape:window-x="-9"
     inkscape:window-y="-9"
     inkscape:window-maximized="1"
     inkscape:current-layer="g4513" />
  <clipPath
     id="p.0">
    <path
       d="m0 0l364.00787 0l0 302.3727l-364.00787 0l0 -302.3727z"
       clip-rule="nonzero"
       id="path4498" />
  </clipPath>
  <g
     clip-path="url(#p.0)"
     id="g4513">
    <path
       fill="#000000"
       fill-opacity="0.0"
       d="m0 0l364.00787 0l0 302.3727l-364.00787 0z"
       fill-rule="evenodd"
       id="path4501" />
    <path
       fill="#000000"
       fill-opacity="0.0"
       d="m0 9.272965l475.59055 0l0 140.22047l-475.59055 0z"
       fill-rule="evenodd"
       id="path4503" />
    <path
       d="m 83.093798,127.68986 h -72.625 v -15.36229 l 57.0625,-94.26101 h -54.9375 V 3.372196 h 69.125 v 14.944836 l -57.625,94.678458 h 59 z M 160.2813,82.688366 h -51.4375 q 0,8.599541 1.9375,14.986581 1.9375,6.387043 5.3125,10.478083 3.25,4.00756 7.71875,6.01133 4.46875,2.00378 9.84375,2.00378 7.125,0 14.34375,-3.79883 7.21875,-3.79882 10.28125,-7.47241 h 0.625 v 17.11559 q -5.9375,3.33963 -12.125,5.59388 -6.1875,2.25425 -13,2.25425 -17.375,0 -27.125,-12.56535 -9.750002,-12.56536 -9.750002,-35.692284 0,-22.876453 9.343752,-36.318456 9.34375,-13.442003 24.59375,-13.442003 14.125,0 21.78125,11.020773 7.65625,11.020772 7.65625,31.309014 z M 148.8438,70.665704 q -0.0625,-12.356624 -4.65625,-19.119371 -4.59375,-6.762747 -13.96875,-6.762747 -9.4375,0 -15.03125,7.430672 -5.59375,7.430673 -6.34375,18.451446 z m 87.625,57.024156 h -11.75 V 74.589767 q 0,-6.428784 -0.5625,-12.064407 -0.5625,-5.635622 -2.0625,-8.808269 -1.5625,-3.506609 -4.5,-5.218169 -2.9375,-1.711559 -7.625,-1.711559 -4.8125,0 -10.0625,3.172646 -5.25,3.172647 -10.0625,8.098599 v 69.631252 h -11.75 V 34.430738 h 11.75 v 10.352848 q 5.5,-6.094822 11.375,-9.517941 5.875,-3.423118 12.0625,-3.423118 11.3125,0 17.25,9.100486 5.9375,9.100487 5.9375,26.216081 z m 84.0625,-47.339234 q 0,11.688701 -2.46875,21.039664 -2.46875,9.35096 -6.65625,15.69625 -4.4375,6.59576 -9.75,9.89365 -5.3125,3.29788 -11.6875,3.29788 -5.9375,0 -10.375,-1.87854 -4.4375,-1.87854 -8.75,-5.05119 l -0.75,4.34152 h -11 V -2.221681 h 11.75 v 46.420832 q 4.9375,-5.426896 10.5,-8.89176 5.5625,-3.464864 12.5,-3.464864 12.375,0 19.53125,12.690587 7.15625,12.690587 7.15625,35.817512 z m -12.125,0.417453 q 0,-16.698141 -4.125,-25.339428 -4.125,-8.641288 -13.3125,-8.641288 -5.125,0 -10.375,2.96392 -5.25,2.96392 -9.75,7.639399 v 53.434058 q 5,3.00566 8.59375,4.17453 3.59375,1.16887 8.15625,1.16887 9.75,0 15.28125,-8.5578 5.53125,-8.557793 5.53125,-26.842261 z m 49.625,46.921781 h -14.9375 v -23.79485 h 14.9375 z"
       id="path4505"
       style="fill:#20127a;fill-opacity:1;fill-rule:nonzero;stroke-width:1.15579033"
       inkscape:connector-curvature="0" />
    <path
       fill="#000000"
       d="m381.96875 141.15297l0 -1.90625l1.90625 0l0 1.90625l-1.90625 0z"
       fill-rule="nonzero"
       id="path4507" />
    <path
       fill="#000000"
       fill-opacity="0.0"
       d="m36.88714 161.38846l440.9449 0l0 87.18109l-440.9449 0z"
       fill-rule="evenodd"
       id="path4509" />
    <path
       d="m 25.56693,211.68573 q 7.191424,-5.98646 14.335535,-8.97969 7.144114,-2.99323 14.146289,-2.99323 15.802203,0 26.116227,10.83262 10.314013,10.83264 10.314013,29.1721 0,23.66077 -15.329084,40.57489 -13.247369,14.53854 -32.172164,14.53854 -17.221568,0 -28.718383,-12.6856 -11.4968161,-12.68557 -11.4968161,-36.15629 0,-21.00012 7.3806731,-43.42558 5.677439,-17.19918 14.051663,-28.3644 8.374224,-11.16522 17.789311,-16.39148 9.415087,-5.22628 21.243091,-5.22628 14.193593,0 23.182872,8.88466 8.989283,8.88466 10.219403,25.41869 l -15.89684,1.52038 q -1.324732,-11.30777 -6.387123,-16.34398 -5.062378,-5.03623 -12.34843,-5.03623 -7.664541,0 -15.423709,5.98646 -7.759168,5.98646 -13.341984,17.72181 -5.582816,11.73535 -7.664544,20.95261 z m -5.961312,41.62012 q 0,11.78288 7.286049,19.81232 7.286047,8.02946 16.464575,8.02946 6.434431,0 13.625854,-4.8937 7.191424,-4.89368 12.206495,-14.87111 5.015071,-9.97744 5.015071,-19.85983 0,-12.7331 -6.954861,-20.38247 -6.954862,-7.64936 -16.795759,-7.64936 -11.354879,0 -21.101152,11.16522 -9.746272,11.16522 -9.746272,28.64947 z m 135.028462,39.14953 28.95494,-139.30392 h 17.12694 l -10.31401,49.79213 q 8.13766,-7.50684 14.76134,-10.59507 6.62368,-3.08826 13.8151,-3.08826 14.09897,0 23.51407,10.54756 9.41509,10.54758 9.41509,30.69247 0,13.39827 -3.78497,24.51598 -3.78495,11.11771 -9.36777,18.67205 -5.58281,7.55433 -11.54413,12.06792 -5.96131,4.51361 -12.20649,6.74665 -6.24519,2.23304 -12.01726,2.23304 -9.93551,0 -17.50543,-5.27378 -7.56992,-5.27378 -11.828,-16.10642 l -3.9742,19.09965 z m 25.35923,-41.43008 -0.0946,3.23079 q 0,12.92314 6.15055,19.66978 6.15057,6.74665 15.3291,6.74665 8.98928,0 16.51188,-6.31905 7.52262,-6.31904 12.34843,-19.71729 4.82583,-13.39827 4.82583,-24.70602 0,-12.7331 -6.10326,-19.76481 -6.10323,-7.03171 -15.09251,-7.03171 -9.27316,0 -17.03233,7.17425 -7.75916,7.17424 -12.96349,22.09288 -3.87958,11.1177 -3.87958,18.62453 z m 106.73587,-78.39409 4.06883,-19.47975 h 17.03232 l -4.06884,19.47975 z m -24.98073,119.82417 21.00652,-100.91457 h 17.12693 l -21.00651,100.91457 z m 83.74222,-13.9684 -2.83872,14.06343 q -6.15055,1.6154 -11.92262,1.6154 -10.21939,0 -16.27532,-5.03624 -4.54196,-3.80092 -4.54196,-10.35752 0,-3.3258 2.46023,-15.29872 l 12.2065,-58.62928 h -13.53124 l 2.7441,-13.30324 h 13.53123 l 5.20432,-24.80104 19.58717,-11.87789 -7.66455,36.67893 h 16.84308 l -2.83873,13.30324 h -16.74845 l -11.63875,55.77858 q -2.17635,10.64259 -2.17635,12.7331 0,3.04074 1.75055,4.65613 1.75054,1.6154 5.72476,1.6154 5.67743,0 10.12475,-1.14028 z"
       id="path4511"
       inkscape:connector-curvature="0"
       style="fill:#065a08;fill-opacity:1;fill-rule:nonzero;stroke-width:1.51717365" />
  </g>
</svg>
