<?xml version="1.0" encoding="UTF-8" standalone="no"?>
<!-- Generator: Adobe Illustrator 19.0.0, SVG Export Plug-In . SVG Version: 6.00 Build 0)  -->

<svg
   xmlns:dc="http://purl.org/dc/elements/1.1/"
   xmlns:cc="http://creativecommons.org/ns#"
   xmlns:rdf="http://www.w3.org/1999/02/22-rdf-syntax-ns#"
   xmlns:svg="http://www.w3.org/2000/svg"
   xmlns="http://www.w3.org/2000/svg"
   xmlns:sodipodi="http://sodipodi.sourceforge.net/DTD/sodipodi-0.dtd"
   xmlns:inkscape="http://www.inkscape.org/namespaces/inkscape"
   version="1.1"
   id="Capa_1"
   x="0px"
   y="0px"
   viewBox="0 0 567.308 567.308"
   style="enable-background:new 0 0 567.308 567.308;"
   xml:space="preserve"
   sodipodi:docname="Re_4.svg"
   inkscape:version="0.92.1 r15371"><metadata
     id="metadata4524"><rdf:RDF><cc:Work
         rdf:about=""><dc:format>image/svg+xml</dc:format><dc:type
           rdf:resource="http://purl.org/dc/dcmitype/StillImage" /><dc:title></dc:title></cc:Work></rdf:RDF></metadata><defs
     id="defs4522" /><sodipodi:namedview
     pagecolor="#ffffff"
     bordercolor="#666666"
     borderopacity="1"
     objecttolerance="10"
     gridtolerance="10"
     guidetolerance="10"
     inkscape:pageopacity="0"
     inkscape:pageshadow="2"
     inkscape:window-width="1920"
     inkscape:window-height="1001"
     id="namedview4520"
     showgrid="false"
     inkscape:zoom="1.4242705"
     inkscape:cx="214.16544"
     inkscape:cy="254.2886"
     inkscape:window-x="-9"
     inkscape:window-y="-9"
     inkscape:window-maximized="1"
     inkscape:current-layer="g4487" /><g
     id="g4487"
     transform="translate(-94.785369,-2.1063415)"><path
       d="m 415.32756,348.30411 c -1.457,-26.516 -11.656,-48.079 -30.304,-63.523 -27.099,-22.437 -64.397,-26.516 -90.913,-26.225 -4.371,-29.722 -8.45,-56.529 -11.364,-76.344 2.914,-1.748 5.828,-3.497 8.45,-5.245 7.576,-4.662 15.152,-9.033 22.145,-13.404 48.37,-29.722 78.966,-76.634996 74.595,-113.640996 -2.622,-22.145 -17.192,-38.463 -40.503,-46.0390002 -34.967,-11.364 -78.966,8.7420002 -96.158,44.0000002 -15.444,31.761 -8.742,99.945996 -7.867,107.521996 0,0.291 0,0.583 0,0.874 0.291,2.622 0.874,5.245 1.166,8.159 -57.986,35.841 -119.469,77.801 -136.078,121.509 -15.444,40.503 -15.152,78.092 0.583,108.688 15.152,29.43 43.125,50.41 81.006,60.609 27.099,7.285 61.483,6.702 95.575,-0.291 1.748,15.735 2.914,27.099 2.914,31.761 0,20.106 -4.371,35.258 -12.238,41.96 -1.748,1.457 -7.285,6.119 -21.271,4.079 -14.861,-2.331 -31.47,-17.775 -36.423,-23.894 -6.411,-7.285 -17.483,-7.867 -24.768,-1.748 -7.285,6.411 -8.159,17.483 -1.748,24.768 2.622,3.205 27.682,30.887 57.695,35.258 4.371,0.583 8.159,0.874 11.947,0.874 18.066,0 30.013,-6.702 37.298,-13.112 20.106,-17.192 24.477,-46.913 24.477,-68.476 0,-6.411 -1.457,-20.98 -3.788,-40.794 23.894,-7.867 45.748,-18.94 61.774,-32.053 23.6,-18.65 35.255,-41.087 33.798,-65.272 z m -132.29,-284.977996 c 8.45,-17.483 28.265,-27.39 44.291,-27.39 3.497,0 6.702,0.583 9.616,1.457 13.695,4.371 16.026,11.947 16.609,16.901 2.914,25.351 -27.973,60.899996 -58.278,79.839996 -5.536,3.497 -11.364,6.993 -17.483,10.781 -2.331,-26.516 -2.331,-66.144996 5.245,-81.588996 z m -83.628,358.115996 c -28.265,-7.576 -48.662,-22.437 -58.86,-42.834 -11.073,-21.854 -10.781,-49.536 0.874,-80.423 11.656,-30.596 60.9,-65.854 108.979,-96.158 2.914,19.523 5.828,39.92 9.033,60.317 -22.145,5.828 -41.086,19.523 -53.615,39.629 -13.112,20.98 -18.066,46.331 -12.53,63.523 3.205,9.033 13.112,13.987 22.145,11.073 9.033,-3.205 13.987,-13.112 11.073,-22.146 -1.457,-4.371 -0.583,-18.94 8.742,-33.801 5.245,-8.45 14.278,-18.357 29.139,-23.311 6.411,44.874 12.53,88.582 16.901,122.674 -29.14,6.411 -59.444,7.576 -81.881,1.457 z m 160.263,-34.675 c -11.656,9.324 -27.099,17.483 -44.291,23.894 -4.662,-34.967 -10.49,-76.926 -16.318,-116.847 19.814,0 46.039,3.497 63.523,18.066 11.073,9.324 16.901,21.854 17.775,38.755 0.874,12.238 -6.119,24.476 -20.689,36.132 z"
       id="path4485"
       inkscape:connector-curvature="0"
       style="fill:#000080;fill-opacity:1" /><text
       xml:space="preserve"
       style="font-style:normal;font-variant:normal;font-weight:normal;font-stretch:normal;font-size:48.12657547px;line-height:1.25;font-family:Verdana;-inkscape-font-specification:Verdana;letter-spacing:0px;word-spacing:0px;fill:#a02c2c;fill-opacity:1;stroke:none;stroke-width:1.20316446"
       x="374.48505"
       y="564.39001"
       id="text4528"
       transform="scale(0.99950986,1.0004904)"><tspan
         sodipodi:role="line"
         id="tspan4526"
         x="374.48505"
         y="564.39001"
         style="font-style:normal;font-variant:normal;font-weight:normal;font-stretch:normal;font-size:231.0075531px;font-family:'Century Schoolbook';-inkscape-font-specification:'Century Schoolbook';fill:#a02c2c;fill-opacity:1;stroke-width:1.20316446">Re</tspan></text>
</g><g
     id="g4489" /><g
     id="g4491" /><g
     id="g4493" /><g
     id="g4495" /><g
     id="g4497" /><g
     id="g4499" /><g
     id="g4501" /><g
     id="g4503" /><g
     id="g4505" /><g
     id="g4507" /><g
     id="g4509" /><g
     id="g4511" /><g
     id="g4513" /><g
     id="g4515" /><g
     id="g4517" /></svg>