<?xml version="1.0" encoding="UTF-8" standalone="no"?>
<svg
   xmlns:dc="http://purl.org/dc/elements/1.1/"
   xmlns:cc="http://creativecommons.org/ns#"
   xmlns:rdf="http://www.w3.org/1999/02/22-rdf-syntax-ns#"
   xmlns:svg="http://www.w3.org/2000/svg"
   xmlns="http://www.w3.org/2000/svg"
   xmlns:sodipodi="http://sodipodi.sourceforge.net/DTD/sodipodi-0.dtd"
   xmlns:inkscape="http://www.inkscape.org/namespaces/inkscape"
   width="112.59164"
   height="97.278893"
   viewBox="0 0 105.5551 91.199328"
   version="1.1"
   id="svg14"
   sodipodi:docname="M bihotza f.svg"
   inkscape:version="0.92.1 r15371">
  <metadata
     id="metadata20">
    <rdf:RDF>
      <cc:Work
         rdf:about="">
        <dc:format>image/svg+xml</dc:format>
        <dc:type
           rdf:resource="http://purl.org/dc/dcmitype/StillImage" />
        <dc:title></dc:title>
      </cc:Work>
    </rdf:RDF>
  </metadata>
  <defs
     id="defs18" />
  <sodipodi:namedview
     pagecolor="#ffffff"
     bordercolor="#666666"
     borderopacity="1"
     objecttolerance="10"
     gridtolerance="10"
     guidetolerance="10"
     inkscape:pageopacity="0"
     inkscape:pageshadow="2"
     inkscape:window-width="1920"
     inkscape:window-height="1001"
     id="namedview16"
     showgrid="false"
     inkscape:zoom="2.9039007"
     inkscape:cx="35.203638"
     inkscape:cy="40.635069"
     inkscape:window-x="-9"
     inkscape:window-y="-9"
     inkscape:window-maximized="1"
     inkscape:current-layer="svg14"
     fit-margin-top="0"
     fit-margin-left="0"
     fit-margin-right="0"
     fit-margin-bottom="0" />
  <text
     y="89.155373"
     x="71.958481"
     style="font-weight:400;font-size:57.36336136px;line-height:125%;font-family:sans-serif;letter-spacing:0;word-spacing:0;fill:#ff0000;stroke-width:1.41999078"
     font-weight="400"
     font-size="40.397"
     letter-spacing="0"
     word-spacing="0"
     id="text4"
     transform="scale(1.0278908,0.972866)">
    <tspan
       style="font-weight:700;font-size:32.77906418px;-inkscape-font-specification:'sans-serif Bold';stroke-width:1.41999078"
       y="89.155373"
       x="71.958481"
       font-weight="700"
       font-size="23.084"
       id="tspan2">?</tspan>
  </text>
  <path
     d="m 40.850064,88.776332 c -1.314,-2.254 -3.351,-4.461 -7.211,-7.812 -2.091,-1.815 -3.363,-2.823 -10.605,-8.401 -5.676,-4.373 -8.508,-6.799 -11.79,-10.101 -3.2799998,-3.302 -5.2079998,-5.932 -6.8619998,-9.361 -1.056,-2.19 -1.782,-4.3 -2.234,-6.492 -0.573,-2.785 -0.651,-3.728 -0.648,-7.829 0.004,-5.381 0.182,-6.276 1.954,-9.866 1.317,-2.666 2.317,-4.07 4.4,-6.179 2.023,-2.047 3.3359998,-2.977 6.1759998,-4.377 3.155,-1.556 5.437,-1.964 10.138,-1.813 3.653,0.118 4.99,0.48 7.886,2.142 4.558,2.615 8.095,6.813 9.074,10.77 0.16,0.647 0.325,1.177 0.367,1.177 0.042,0 0.411,-0.757 0.82,-1.682 1.392,-3.145 2.685,-5.064 4.739,-7.038 6.289,-6.046 16.204,-7.139 24.221,-2.672 3.274,1.824 5.938,4.48 8.002,7.978 1.625,2.753 2.456,6.41 2.598,11.433 0.205,7.277 -1.13,12.32 -4.683,17.694 -1.41,2.133 -2.453,3.425 -4.409,5.461 -3.156,3.287 -6.002,5.703 -12.721,10.798 -4.24,3.215 -6.753,5.282 -10.39,8.55 -2.915,2.618 -7.431,7.176 -7.866,7.938 -0.19,0.333 -0.362,0.605 -0.382,0.605 -0.02,0 -0.278,-0.415 -0.574,-0.923 z"
     id="path6"
     inkscape:connector-curvature="0"
     style="fill:#ff0000;stroke:#000000;stroke-width:3" />
  <text
     y="86.325012"
     x="91.242523"
     style="font-weight:400;font-size:36.00699615px;line-height:125%;font-family:sans-serif;letter-spacing:0;word-spacing:0;fill:#ff0000;stroke-width:1.31029832"
     font-weight="400"
     font-size="27.48"
     letter-spacing="0"
     word-spacing="0"
     id="text12"
     transform="scale(1.008693,0.99138191)">
    <tspan
       style="font-weight:700;font-size:20.57561302px;-inkscape-font-specification:'sans-serif Bold';stroke-width:1.31029832"
       y="86.325012"
       x="91.242523"
       font-weight="700"
       font-size="15.703"
       id="tspan10">S</tspan>
  </text>
  <text
     xml:space="preserve"
     style="font-style:normal;font-variant:normal;font-weight:normal;font-stretch:normal;font-size:37.50015259px;line-height:1.25;font-family:Verdana;-inkscape-font-specification:Verdana;letter-spacing:0px;word-spacing:0px;fill:#000000;fill-opacity:1;stroke:none;stroke-width:0.93750381"
     x="1.9371216"
     y="12.425589"
     id="text4488"><tspan
       sodipodi:role="line"
       id="tspan4486"
       x="1.9371216"
       y="12.425589"
       style="font-style:normal;font-variant:normal;font-weight:normal;font-stretch:normal;font-size:16.25006676px;font-family:Verdana;-inkscape-font-specification:Verdana;fill:#0000ff;stroke-width:0.93750381"><tspan
         style="font-style:normal;font-variant:normal;font-weight:bold;font-stretch:normal;font-family:Verdana;-inkscape-font-specification:'Verdana Bold'"
         id="tspan4492">f=12</tspan><tspan
         style="font-style:italic;font-variant:normal;font-weight:normal;font-stretch:normal;font-family:Verdana;-inkscape-font-specification:'Verdana Italic'"
         id="tspan4490">MHz</tspan><tspan
         style="font-style:normal;font-variant:normal;font-weight:bold;font-stretch:normal;font-family:Verdana;-inkscape-font-specification:'Verdana Bold'"
         id="tspan4494">/M</tspan></tspan></text>
</svg>
