<svg version="1.1" viewBox="0.0 0.0 212.6535433070866 102.06561679790026" fill="none" stroke="none" stroke-linecap="square" stroke-miterlimit="10" xmlns:xlink="http://www.w3.org/1999/xlink" xmlns="http://www.w3.org/2000/svg"><clipPath id="p.0"><path d="m0 0l212.65355 0l0 102.06562l-212.65355 0l0 -102.06562z" clip-rule="nonzero"/></clipPath><g clip-path="url(#p.0)"><path fill="#000000" fill-opacity="0.0" d="m0 0l212.65355 0l0 102.06562l-212.65355 0z" fill-rule="evenodd"/><path fill="#000000" fill-opacity="0.0" d="m-3.3543308 -37.56693l237.19684 0l0 122.078735l-237.19684 0z" fill-rule="evenodd"/><path fill="#0000ff" d="m16.02067 41.3287l-1.031251 -8.078125q17.15625 -2.8125 30.078125 -2.8125q10.875 0 16.125 4.546875q5.25 4.546875 5.25 15.421875l0 43.906246l-8.578125 0l-1.28125 -10.234375q-4.46875 4.46875 -11.1875 7.9375q-6.71875 3.453125 -14.531248 3.453125q-8.578125 0 -13.640625 -4.546875q-5.046876 -4.546875 -5.046876 -12.859375l0 -6.796875q0 -7.296871 4.531251 -11.328121q4.546875 -4.03125 12.75 -4.03125l25.984373 0l0 -5.5q0 -5.890625 -2.6875 -8.3125q-2.6875 -2.4375 -9.984375 -2.4375q-9.21875 0 -26.749998 1.671875zm7.28125 31.484371l0 3.96875q0 4.859375 2.296875 7.109375q2.3125 2.234375 7.437498 2.234375q4.859375 0.125 11.0625 -2.296875q6.21875 -2.4375 11.34375 -7.046875l0 -12.546875l-24.062498 0q-4.359375 0.125 -6.21875 2.3125q-1.859375 2.171875 -1.859375 6.265625z" fill-rule="nonzero"/><path fill="#990000" d="m110.99581 66.15682l-2.5625 0l-17.671875 28.15625l-11.90625 0l20.875 -32.124996l-19.328125 -30.21875l11.765625 0l16.140625 25.734375l2.9375 0l16.0 -25.734375l11.781258 0l-19.328133 30.21875l20.859383 32.124996l-11.78125 0l-17.781258 -28.15625z" fill-rule="nonzero"/><path fill="#38761d" d="m172.17358 63.0787l-8.453125 0q0.640625 5.765621 0.640625 9.984371l0 21.25l-10.875 0l0 -89.59375l11.0 0l0 39.796875q0 6.28125 -0.625 10.625l8.1875 0l19.703125 -23.171875l12.671875 0l-19.578125 22.921875q-1.921875 2.6875 -4.359375 4.21875l0 0.265625q2.5625 1.90625 4.359375 4.984371l21.625 29.953125l-12.671875 0l-21.625 -31.234371z" fill-rule="nonzero"/></g></svg>