<?xml version="1.0" encoding="UTF-8" standalone="no"?>
<svg
   xmlns:dc="http://purl.org/dc/elements/1.1/"
   xmlns:cc="http://creativecommons.org/ns#"
   xmlns:rdf="http://www.w3.org/1999/02/22-rdf-syntax-ns#"
   xmlns:svg="http://www.w3.org/2000/svg"
   xmlns="http://www.w3.org/2000/svg"
   xmlns:sodipodi="http://sodipodi.sourceforge.net/DTD/sodipodi-0.dtd"
   xmlns:inkscape="http://www.inkscape.org/namespaces/inkscape"
   version="1.1"
   viewBox="0.0 0.0 960.0 720.0"
   fill="none"
   stroke="none"
   stroke-linecap="square"
   stroke-miterlimit="10"
   id="svg2"
   inkscape:version="0.48.4 r9939"
   width="100%"
   height="100%"
   sodipodi:docname="demux.svg">
  <metadata
     id="metadata35">
    <rdf:RDF>
      <cc:Work
         rdf:about="">
        <dc:format>image/svg+xml</dc:format>
        <dc:type
           rdf:resource="http://purl.org/dc/dcmitype/StillImage" />
        <dc:title></dc:title>
      </cc:Work>
    </rdf:RDF>
  </metadata>
  <defs
     id="defs33" />
  <sodipodi:namedview
     pagecolor="#ffffff"
     bordercolor="#666666"
     borderopacity="1"
     objecttolerance="10"
     gridtolerance="10"
     guidetolerance="10"
     inkscape:pageopacity="0"
     inkscape:pageshadow="2"
     inkscape:window-width="1536"
     inkscape:window-height="801"
     id="namedview31"
     showgrid="false"
     inkscape:zoom="0.73780924"
     inkscape:cx="480"
     inkscape:cy="360"
     inkscape:window-x="-8"
     inkscape:window-y="-8"
     inkscape:window-maximized="1"
     inkscape:current-layer="g7" />
  <clipPath
     id="p.0">
    <path
       d="m0 0l960.0 0l0 720.0l-960.0 0l0 -720.0z"
       clip-rule="nonzero"
       id="path5" />
  </clipPath>
  <g
     clip-path="url(#p.0)"
     id="g7"
     transform="translate(4.0660916,0)">
    <path
       d="m 0,0 960,0 0,720 -960,0 z"
       id="path9"
       inkscape:connector-curvature="0"
       style="fill:#000000;fill-opacity:0;fill-rule:evenodd" />
    <path
       d="m 732.2598,679.0105 -487.7795,-121.94489 0,-258.18896 487.7795,-121.94488 z"
       id="path11"
       inkscape:connector-curvature="0"
       style="fill:#000000;fill-opacity:0;fill-rule:evenodd" />
    <path
       d="m 737.68126,696.63023 -487.7795,-121.94489 0,-258.18896 487.7795,-121.94488 z"
       id="path13"
       inkscape:connector-curvature="0"
       style="stroke:#000000;stroke-width:24;stroke-linecap:butt;stroke-linejoin:round" />
    <path
       d="M 46.37008,420.84515 244.48031,420.4357"
       id="path15"
       inkscape:connector-curvature="0"
       style="fill:#000000;fill-opacity:0;fill-rule:evenodd" />
    <path
       d="M 51.791536,438.46488 249.90177,438.05543"
       id="path17"
       inkscape:connector-curvature="0"
       style="stroke:#000000;stroke-width:24;stroke-linecap:butt;stroke-linejoin:round" />
    <path
       d="M 727.4409,244.84514 925.55119,244.4357"
       id="path19"
       inkscape:connector-curvature="0"
       style="fill:#000000;fill-opacity:0;fill-rule:evenodd" />
    <path
       d="m 732.86236,262.46487 198.11029,-0.40944"
       id="path21"
       inkscape:connector-curvature="0"
       style="stroke:#000000;stroke-width:24;stroke-linecap:butt;stroke-linejoin:round" />
    <path
       d="m 727.4409,609.8189 198.11029,-0.40948"
       id="path23"
       inkscape:connector-curvature="0"
       style="fill:#000000;fill-opacity:0;fill-rule:evenodd" />
    <path
       d="m 732.86236,627.43863 198.11029,-0.40948"
       id="path25"
       inkscape:connector-curvature="0"
       style="stroke:#000000;stroke-width:24;stroke-linecap:butt;stroke-linejoin:round" />
    <path
       d="m 161.61942,12.480315 772.94495,0 0,157.511805 -772.94495,0 z"
       id="path27"
       inkscape:connector-curvature="0"
       style="fill:#000000;fill-opacity:0;fill-rule:evenodd" />
    <path
       d="m 252.61663,78.912807 q 0,26.189953 -10.53907,48.342713 -10.53908,22.15277 -27.02123,33.95377 -9.98439,7.0392 -20.84043,9.36834 -10.85605,2.32916 -25.9911,2.32916 l -42.71098,0 27.25897,-154.137703 38.19422,0 q 16.87838,0 27.17972,3.41608 10.30135,3.416082 16.64065,9.213066 8.71651,7.867337 13.27288,19.616583 4.55637,11.749247 4.55637,27.897991 z m -31.85493,3.623116 q 0,-10.558794 -3.01119,-18.167338 -3.01116,-7.608542 -9.19196,-12.266834 -2.85269,-2.070351 -5.82423,-3.157287 -2.97153,-1.086934 -6.77512,-1.604522 -3.64509,-0.41407 -8.32031,-0.41407 -4.67523,0 -8.16184,0 l -1.03014,0 -17.43306,97.720608 2.77345,0 q 4.59599,0 9.8259,0 5.22991,0 8.47881,-0.5176 4.19978,-0.51758 7.56753,-1.65627 3.36775,-1.13869 7.40904,-3.83014 11.41073,-7.66032 17.55192,-22.8774 6.1412,-15.21709 6.1412,-33.229147 z m 109.98671,17.287439 q 0.23772,-1.863318 0.35658,-3.416082 0.1188,-1.552764 0.1188,-3.209045 0,-8.177889 -3.88281,-12.52563 -3.88283,-4.347738 -11.17301,-4.347738 -8.79577,0 -14.77847,6.211056 -5.98271,6.211055 -9.07311,17.287439 l 38.43195,0 z M 308.9571,176.01231 q -22.74221,0 -35.10384,-13.14673 -12.36163,-13.14674 -12.36163,-36.33468 0,-15.83819 4.04131,-29.088444 4.04129,-13.250251 11.64845,-23.291458 7.29019,-9.730653 18.22546,-15.424122 10.93528,-5.693465 24.01007,-5.693465 19.88953,0 29.99277,10.507034 10.10326,10.507035 10.10326,31.003519 0,7.039196 -1.06976,13.767836 -1.06975,6.72865 -2.81306,13.35377 l -66.08712,0 q 0,0.6211 0,1.19046 0,0.56934 0,1.19045 0,12.11155 6.49778,18.94372 6.49777,6.83216 19.88953,6.83216 9.35044,0 17.71038,-4.1407 8.35996,-4.14071 14.54077,-9.21307 l 3.16964,0 -5.30916,29.91658 q -8.32032,4.76181 -17.51229,7.19448 -9.19197,2.43266 -19.57256,2.43266 z M 526.94951,82.535923 q 0,3.209046 -0.3566,6.935678 -0.35658,3.726634 -1.06975,7.76382 l -13.39175,75.671369 -28.84378,0 10.30135,-58.07338 q 1.03013,-6.00402 1.86217,-11.49045 0.83203,-5.486435 0.83203,-8.902515 0,-6.00402 -2.53572,-8.798995 -2.53571,-2.794974 -9.03348,-2.794974 -3.09041,0 -7.01284,1.915075 -3.92245,1.915076 -9.46933,5.745227 l -14.58037,82.400012 -28.84378,0 10.30135,-58.07338 q 0.87165,-5.07236 1.74331,-10.97286 0.87164,-5.900506 0.87164,-9.006034 0,-6.314573 -2.41686,-9.161307 -2.41685,-2.846733 -8.99386,-2.846733 -3.40736,0 -7.44866,2.070351 -4.0413,2.070353 -9.11274,5.589951 l -14.58038,82.400012 -28.68528,0 20.6027,-116.250265 28.68528,0 -2.29799,12.836182 q 8.71653,-7.556785 15.72937,-11.801006 7.01285,-4.244222 15.17469,-4.244222 8.79576,0 14.81809,5.124121 6.02232,5.124121 8.39956,15.061811 10.61832,-10.041207 19.01787,-15.113569 8.39957,-5.072363 16.24444,-5.072363 11.7277,0 17.90851,7.556785 6.18081,7.556785 6.18081,21.531659 z m 120.60507,-25.879398 -20.60271,116.250265 -28.68529,0 2.29799,-12.83619 q -4.27902,3.62311 -8.35994,6.78041 -4.08091,3.15727 -7.726,5.02059 -4.596,2.48443 -8.39957,3.36433 -3.80358,0.8799 -7.52791,0.8799 -11.7277,0 -18.50285,-7.34975 -6.77511,-7.34976 -6.77511,-21.7387 0,-3.93366 0.31695,-7.29799 0.31697,-3.36433 1.03015,-7.4015 l 13.39178,-75.671365 28.84378,0 -10.2221,57.659305 q -1.18861,6.62511 -1.78294,11.38693 -0.5943,4.76181 -0.5943,8.07437 0,6.83216 2.53572,9.88593 2.53571,3.05376 9.58818,3.05376 3.48661,0 8.04297,-1.96683 4.55638,-1.96684 9.86554,-5.69346 l 14.58036,-82.400005 28.6853,0 z m 41.04692,57.141715 -25.04021,-57.141715 30.74556,0 14.18418,35.403016 25.59489,-35.403016 32.96431,0 -45.56366,58.280405 25.35718,57.96986 -30.74559,0 -14.34263,-35.81709 -26.46656,35.81709 -32.88506,0 46.19759,-59.10855 z"
       id="path29"
       inkscape:connector-curvature="0"
       style="fill:#20124d;fill-rule:nonzero" />
  </g>
</svg>
