<?xml version="1.0" standalone="yes"?>

<svg version="1.1" viewBox="0.0 0.0 912.0997375328084 527.0341207349081" fill="none" stroke="none" stroke-linecap="square" stroke-miterlimit="10" xmlns="http://www.w3.org/2000/svg" xmlns:xlink="http://www.w3.org/1999/xlink"><clipPath id="p.0"><path d="m0 0l912.09973 0l0 527.0341l-912.09973 0l0 -527.0341z" clip-rule="nonzero"></path></clipPath><g clip-path="url(#p.0)"><path fill="#000000" fill-opacity="0.0" d="m0 0l912.09973 0l0 527.0341l-912.09973 0z" fill-rule="evenodd"></path><path fill="#000000" fill-opacity="0.0" d="m445.21652 11.186352l336.00003 84.0l0 336.66144l-336.00003 84.0z" fill-rule="evenodd"></path><path stroke="#20124d" stroke-width="16.0" stroke-linejoin="round" stroke-linecap="butt" d="m445.21652 11.186352l336.00003 84.0l0 336.66144l-336.00003 84.0z" fill-rule="evenodd"></path><path fill="#000000" fill-opacity="0.0" d="m317.43176 133.13911l127.1496 0" fill-rule="evenodd"></path><path stroke="#20124d" stroke-width="16.0" stroke-linejoin="round" stroke-linecap="butt" d="m317.43176 133.13911l127.1496 0" fill-rule="evenodd"></path><path fill="#000000" fill-opacity="0.0" d="m317.43176 377.46457l127.1496 0" fill-rule="evenodd"></path><path stroke="#20124d" stroke-width="16.0" stroke-linejoin="round" stroke-linecap="butt" d="m317.43176 377.46457l127.1496 0" fill-rule="evenodd"></path><path fill="#000000" fill-opacity="0.0" d="m781.21655 263.51706l127.1496 0" fill-rule="evenodd"></path><path stroke="#20124d" stroke-width="16.0" stroke-linejoin="round" stroke-linecap="butt" d="m781.21655 263.51706l127.1496 0" fill-rule="evenodd"></path><path fill="#000000" fill-opacity="0.0" d="m41.11155 18.971128l747.2441 0l0 87.1811l-747.2441 0z" fill-rule="evenodd"></path><path fill="#351c75" d="m123.5178 120.13113l-18.609375 0l-4.828125 -14.109375l-25.875 0l-4.828125 14.109375l-18.140625 0l25.78125 -69.796875l20.71875 0l25.78125 69.796875zm-27.796875 -26.90625l-8.578125 -25.03125l-8.578125 25.03125l17.15625 0zm53.765617 26.90625l-16.875 0l0 -72.9375l16.875 0l0 72.9375zm47.8125 -13.734375l0 -10.96875q-3.421875 0.28125 -7.40625 0.78125q-3.984375 0.484375 -6.046875 1.140625q-2.53125 0.796875 -3.875 2.328125q-1.328125 1.515625 -1.328125 4.0q0 1.640625 0.28125 2.671875q0.28125 1.03125 1.40625 1.96875q1.078125 0.9375 2.578125 1.390625q1.5 0.4375 4.6875 0.4375q2.53125 0 5.125 -1.03125q2.609375 -1.03125 4.578125 -2.71875zm0 8.15625q-1.359375 1.03125 -3.375 2.484375q-2.015625 1.453125 -3.796875 2.296875q-2.484375 1.125 -5.15625 1.65625q-2.671875 0.546875 -5.859375 0.546875q-7.5 0 -12.5625 -4.640625q-5.0625 -4.640625 -5.0625 -11.859375q0 -5.765625 2.578125 -9.421875q2.578125 -3.65625 7.3125 -5.765625q4.6875 -2.109375 11.625 -3.0q6.9375 -0.890625 14.390625 -1.3125l0 -0.28125q0 -4.359375 -3.5625 -6.015625q-3.5625 -1.671875 -10.5 -1.671875q-4.171875 0 -8.90625 1.484375q-4.734375 1.46875 -6.796875 2.265625l-1.546875 0l0 -12.703125q2.671875 -0.703125 8.6875 -1.65625q6.03125 -0.96875 12.078125 -0.96875q14.390625 0 20.78125 4.4375q6.40625 4.421875 6.40625 13.890625l0 35.8125l-16.734375 0l0 -5.578125zm70.40625 -30.984375l-1.5 0q-1.078125 -0.375 -3.46875 -0.5625q-2.390625 -0.1875 -3.984375 -0.1875q-3.609375 0 -6.375 0.46875q-2.765625 0.46875 -5.953125 1.59375l0 35.25l-16.875 0l0 -52.640625l16.875 0l0 7.734375q5.578125 -4.78125 9.703125 -6.34375q4.125 -1.578125 7.59375 -1.578125q0.890625 0 2.015625 0.046875q1.125 0.046875 1.96875 0.140625l0 16.078125zm61.03125 -0.75l0 37.3125l-16.96875 0l0 -26.296875q0 -3.84375 -0.1875 -6.53125q-0.1875 -2.703125 -1.03125 -4.390625q-0.84375 -1.6875 -2.5625 -2.453125q-1.703125 -0.78125 -4.796875 -0.78125q-2.484375 0 -4.828125 1.015625q-2.34375 1.0 -4.21875 2.125l0 37.3125l-16.875 0l0 -52.640625l16.875 0l0 5.8125q4.359375 -3.421875 8.34375 -5.34375q3.984375 -1.921875 8.8125 -1.921875q5.203125 0 9.1875 2.328125q3.984375 2.3125 6.234375 6.8125q5.0625 -4.265625 9.84375 -6.703125q4.78125 -2.4375 9.375 -2.4375q8.53125 0 12.953125 5.109375q4.4375 5.109375 4.4375 14.71875l0 34.265625l-16.96875 0l0 -26.296875q0 -3.890625 -0.171875 -6.5625q-0.15625 -2.671875 -1.0 -4.359375q-0.796875 -1.6875 -2.53125 -2.453125q-1.734375 -0.78125 -4.875 -0.78125q-2.109375 0 -4.125 0.734375q-2.015625 0.71875 -4.921875 2.40625zm81.984375 23.578125l0 -10.96875q-3.421875 0.28125 -7.40625 0.78125q-3.984375 0.484375 -6.046875 1.140625q-2.53125 0.796875 -3.875 2.328125q-1.328125 1.515625 -1.328125 4.0q0 1.640625 0.28125 2.671875q0.28125 1.03125 1.40625 1.96875q1.078125 0.9375 2.578125 1.390625q1.5 0.4375 4.6875 0.4375q2.53125 0 5.125 -1.03125q2.609375 -1.03125 4.578125 -2.71875zm0 8.15625q-1.359375 1.03125 -3.375 2.484375q-2.015625 1.453125 -3.796875 2.296875q-2.484375 1.125 -5.15625 1.65625q-2.671875 0.546875 -5.859375 0.546875q-7.5 0 -12.5625 -4.640625q-5.0625 -4.640625 -5.0625 -11.859375q0 -5.765625 2.578125 -9.421875q2.578125 -3.65625 7.3125 -5.765625q4.6875 -2.109375 11.625 -3.0q6.9375 -0.890625 14.390625 -1.3125l0 -0.28125q0 -4.359375 -3.5625 -6.015625q-3.5625 -1.671875 -10.5 -1.671875q-4.171875 0 -8.90625 1.484375q-4.734375 1.46875 -6.796875 2.265625l-1.546875 0l0 -12.703125q2.671875 -0.703125 8.6875 -1.65625q6.03125 -0.96875 12.078125 -0.96875q14.390625 0 20.78125 4.4375q6.40625 4.421875 6.40625 13.890625l0 35.8125l-16.734375 0l0 -5.578125z" fill-rule="nonzero"></path><path fill="#000000" fill-opacity="0.0" d="m7.3845143 275.1916l747.2441 0l0 87.18112l-747.2441 0z" fill-rule="evenodd"></path><path fill="#351c75" d="m80.36889 331.9291q0 13.90625 -7.96875 22.09375q-7.96875 8.1875 -22.03125 8.1875q-14.015625 0 -21.984375 -8.1875q-7.96875 -8.1875 -7.96875 -22.09375q0 -14.03125 7.96875 -22.171875q7.96875 -8.140625 21.984375 -8.140625q13.984375 0 21.984375 8.140625q8.015625 8.140625 8.015625 22.171875zm-19.875 14.71875q2.1875 -2.65625 3.234375 -6.265625q1.0625 -3.609375 1.0625 -8.5q0 -5.234375 -1.21875 -8.90625q-1.203125 -3.671875 -3.15625 -5.9375q-2.0 -2.34375 -4.59375 -3.390625q-2.59375 -1.0625 -5.40625 -1.0625q-2.859375 0 -5.375 1.015625q-2.515625 1.015625 -4.625 3.359375q-1.953125 2.1875 -3.1875 6.046875q-1.234375 3.84375 -1.234375 8.921875q0 5.1875 1.1875 8.84375q1.203125 3.65625 3.15625 5.953125q1.953125 2.3125 4.5625 3.40625q2.625 1.09375 5.515625 1.09375q2.890625 0 5.5 -1.109375q2.625 -1.125 4.578125 -3.46875zm62.335938 -16.125l-1.25 0q-0.890625 -0.3125 -2.890625 -0.46875q-1.984375 -0.15625 -3.3125 -0.15625q-3.015625 0 -5.328125 0.390625q-2.296875 0.390625 -4.953125 1.328125l0 29.375l-14.0625 0l0 -43.875l14.0625 0l0 6.453125q4.65625 -3.984375 8.09375 -5.296875q3.4375 -1.3125 6.328125 -1.3125q0.734375 0 1.671875 0.046875q0.9375 0.03125 1.640625 0.109375l0 13.40625zm50.625008 30.46875l-14.0625 0l0 -4.578125q-3.625 2.96875 -6.796875 4.390625q-3.15625 1.40625 -7.296875 1.40625q-8.015625 0 -12.828125 -6.171875q-4.7968826 -6.1875 -4.7968826 -16.65625q0 -5.578125 1.6250076 -9.890625q1.625 -4.328125 4.4375 -7.40625q2.65625 -2.9375 6.4375 -4.546875q3.796875 -1.625 7.578125 -1.625q3.953125 0 6.46875 0.84375q2.515625 0.828125 5.171875 2.125l0 -18.671875l14.0625 0l0 60.78125zm-14.0625 -12.109375l0 -21.53125q-1.484375 -0.625 -3.125 -0.890625q-1.640625 -0.28125 -3.0 -0.28125q-5.546875 0 -8.328125 3.46875q-2.765625 3.453125 -2.765625 9.578125q0 6.453125 2.21875 9.359375q2.234375 2.90625 7.15625 2.90625q1.90625 0 4.046875 -0.71875q2.15625 -0.71875 3.796875 -1.890625zm71.0625 12.109375l-14.0625 0l0 -4.84375q-3.90625 2.96875 -7.15625 4.515625q-3.234375 1.546875 -7.734375 1.546875q-7.265625 0 -11.1875 -4.1875q-3.921875 -4.1875 -3.921875 -12.34375l0 -28.5625l14.140625 0l0 21.765625q0 3.3125 0.203125 5.53125q0.21875 2.203125 1.0 3.640625q0.75 1.453125 2.25 2.125q1.5 0.65625 4.203125 0.65625q1.796875 0 3.984375 -0.65625q2.1875 -0.671875 4.21875 -1.96875l0 -31.09375l14.0625 0l0 43.875zm27.335938 0l-14.0625 0l0 -60.78125l14.0625 0l0 60.78125zm39.84375 -11.453125l0 -9.140625q-2.84375 0.234375 -6.171875 0.65625q-3.3125 0.40625 -5.03125 0.953125q-2.109375 0.65625 -3.234375 1.9375q-1.109375 1.265625 -1.109375 3.328125q0 1.375 0.234375 2.234375q0.234375 0.859375 1.171875 1.640625q0.90625 0.78125 2.15625 1.15625q1.25 0.359375 3.90625 0.359375q2.109375 0 4.265625 -0.859375q2.171875 -0.859375 3.8125 -2.265625zm0 6.796875q-1.125 0.859375 -2.8125 2.078125q-1.671875 1.203125 -3.15625 1.90625q-2.078125 0.953125 -4.3125 1.390625q-2.21875 0.453125 -4.875 0.453125q-6.25 0 -10.46875 -3.859375q-4.21875 -3.875 -4.21875 -9.890625q0 -4.8125 2.140625 -7.859375q2.15625 -3.046875 6.109375 -4.796875q3.90625 -1.765625 9.6875 -2.5q5.78125 -0.75 11.984375 -1.09375l0 -0.234375q0 -3.640625 -2.96875 -5.015625q-2.96875 -1.390625 -8.75 -1.390625q-3.46875 0 -7.421875 1.234375q-3.9375 1.21875 -5.65625 1.890625l-1.296875 0l0 -10.59375q2.234375 -0.578125 7.25 -1.375q5.015625 -0.8125 10.0625 -0.8125q11.984375 0 17.3125 3.703125q5.34375 3.6875 5.34375 11.578125l0 29.84375l-13.953125 0l0 -4.65625zm58.671875 -25.8125l-1.25 0q-0.890625 -0.3125 -2.890625 -0.46875q-1.984375 -0.15625 -3.3125 -0.15625q-3.015625 0 -5.328125 0.390625q-2.296875 0.390625 -4.953125 1.328125l0 29.375l-14.0625 0l0 -43.875l14.0625 0l0 6.453125q4.65625 -3.984375 8.09375 -5.296875q3.4375 -1.3125 6.328125 -1.3125q0.734375 0 1.671875 0.046875q0.9375 0.03125 1.640625 0.109375l0 13.40625zm22.03125 30.46875l-14.0625 0l0 -43.875l14.0625 0l0 43.875zm0.390625 -50.125l-14.84375 0l0 -10.65625l14.84375 0l0 10.65625zm39.453125 38.671875l0 -9.140625q-2.84375 0.234375 -6.171875 0.65625q-3.3125 0.40625 -5.03125 0.953125q-2.109375 0.65625 -3.234375 1.9375q-1.109375 1.265625 -1.109375 3.328125q0 1.375 0.234375 2.234375q0.234375 0.859375 1.171875 1.640625q0.90625 0.78125 2.15625 1.15625q1.25 0.359375 3.90625 0.359375q2.109375 0 4.265625 -0.859375q2.171875 -0.859375 3.8125 -2.265625zm0 6.796875q-1.125 0.859375 -2.8125 2.078125q-1.671875 1.203125 -3.15625 1.90625q-2.078125 0.953125 -4.3125 1.390625q-2.21875 0.453125 -4.875 0.453125q-6.25 0 -10.46875 -3.859375q-4.21875 -3.875 -4.21875 -9.890625q0 -4.8125 2.140625 -7.859375q2.15625 -3.046875 6.109375 -4.796875q3.90625 -1.765625 9.6875 -2.5q5.78125 -0.75 11.984375 -1.09375l0 -0.234375q0 -3.640625 -2.96875 -5.015625q-2.96875 -1.390625 -8.75 -1.390625q-3.46875 0 -7.421875 1.234375q-3.9375 1.21875 -5.65625 1.890625l-1.296875 0l0 -10.59375q2.234375 -0.578125 7.25 -1.375q5.015625 -0.8125 10.0625 -0.8125q11.984375 0 17.3125 3.703125q5.34375 3.6875 5.34375 11.578125l0 29.84375l-13.953125 0l0 -4.65625z" fill-rule="nonzero"></path><path fill="#000000" fill-opacity="0.0" d="m479.28348 182.3202l560.0945 0l0 65.35434l-560.0945 0z" fill-rule="evenodd"></path><path fill="#20124d" d="m570.3616 283.4802l-17.90625 0l0 -46.73436l-12.9375 30.32811l-12.421875 0l-12.9375 -30.32811l0 46.73436l-16.96872 0l0 -69.79686l20.90622 0l15.703125 35.015625l15.65625 -35.015625l20.90625 0l0 69.79686zm78.9375 -25.265625q0 12.9375 -7.875 19.828125q-7.875 6.890625 -23.203125 6.890625q-15.328125 0 -23.1875 -6.890625q-7.84375 -6.890625 -7.84375 -19.78125l0 -44.57811l18.09375 0l0 43.54686q0 7.265625 3.046875 10.828125q3.046875 3.5625 9.890625 3.5625q6.75 0 9.859375 -3.421875q3.125 -3.421875 3.125 -10.96875l0 -43.54686l18.09375 0l0 44.531235zm80.109375 25.265625l-20.8125 0l-15.046875 -22.96875l-15.328125 22.96875l-19.875 0l24.75 -35.156235l-24.234375 -34.640625l20.765625 0l14.53125 21.75l14.953125 -21.75l19.921875 0l-24.375 33.9375l24.75 35.85936z" fill-rule="nonzero"></path></g></svg>

