<?xml version="1.0" standalone="yes"?>

<svg version="1.1" viewBox="0.0 0.0 617.3254593175853 531.8530183727034" fill="none" stroke="none" stroke-linecap="square" stroke-miterlimit="10" xmlns="http://www.w3.org/2000/svg" xmlns:xlink="http://www.w3.org/1999/xlink"><clipPath id="p.0"><path d="m0 0l617.32544 0l0 531.853l-617.32544 0l0 -531.853z" clip-rule="nonzero"></path></clipPath><g clip-path="url(#p.0)"><path fill="#000000" fill-opacity="0.0" d="m0 0l617.32544 0l0 531.853l-617.32544 0z" fill-rule="evenodd"></path><path fill="#000000" fill-opacity="0.0" d="m142.93307 11.186352l336.0 84.0l0 336.66144l-336.0 84.0z" fill-rule="evenodd"></path><path stroke="#20124d" stroke-width="16.0" stroke-linejoin="round" stroke-linecap="butt" d="m142.93307 11.186352l336.0 84.0l0 336.66144l-336.0 84.0z" fill-rule="evenodd"></path><path fill="#000000" fill-opacity="0.0" d="m15.1482935 199.98688l127.149605 0" fill-rule="evenodd"></path><path stroke="#20124d" stroke-width="16.0" stroke-linejoin="round" stroke-linecap="butt" d="m15.1482935 199.98688l127.149605 0" fill-rule="evenodd"></path><path fill="#000000" fill-opacity="0.0" d="m15.1482935 472.66403l127.149605 0" fill-rule="evenodd"></path><path stroke="#20124d" stroke-width="16.0" stroke-linejoin="round" stroke-linecap="butt" d="m15.1482935 472.66403l127.149605 0" fill-rule="evenodd"></path><path fill="#000000" fill-opacity="0.0" d="m478.93307 263.51706l127.14963 0" fill-rule="evenodd"></path><path stroke="#20124d" stroke-width="16.0" stroke-linejoin="round" stroke-linecap="butt" d="m478.93307 263.51706l127.14963 0" fill-rule="evenodd"></path><path fill="#000000" fill-opacity="0.0" d="m177.0 182.3202l560.0945 0l0 65.35434l-560.0945 0z" fill-rule="evenodd"></path><path fill="#20124d" d="m268.07812 283.4802l-17.90625 0l0 -46.73436l-12.9375 30.32811l-12.421875 0l-12.9375 -30.32811l0 46.73436l-16.96875 0l0 -69.79686l20.90625 0l15.703125 35.015625l15.65625 -35.015625l20.90625 0l0 69.79686zm78.9375 -25.265625q0 12.9375 -7.875 19.828125q-7.875 6.890625 -23.203125 6.890625q-15.328125 0 -23.1875 -6.890625q-7.84375 -6.890625 -7.84375 -19.78125l0 -44.57811l18.09375 0l0 43.54686q0 7.265625 3.046875 10.828125q3.046875 3.5625 9.890625 3.5625q6.75 0 9.859375 -3.421875q3.125 -3.421875 3.125 -10.96875l0 -43.54686l18.09375 0l0 44.531235zm80.109375 25.265625l-20.8125 0l-15.046875 -22.96875l-15.328125 22.96875l-19.875 0l24.75 -35.156235l-24.234375 -34.640625l20.765625 0l14.53125 21.75l14.953125 -21.75l19.921875 0l-24.375 33.9375l24.75 35.85936z" fill-rule="nonzero"></path><path fill="#000000" fill-opacity="0.0" d="m15.1482935 77.49344l127.149605 0" fill-rule="evenodd"></path><path stroke="#20124d" stroke-width="16.0" stroke-linejoin="round" stroke-linecap="butt" d="m15.1482935 77.49344l127.149605 0" fill-rule="evenodd"></path><path fill="#000000" fill-opacity="0.0" d="m15.1482935 334.5748l127.149605 0" fill-rule="evenodd"></path><path stroke="#20124d" stroke-width="16.0" stroke-linejoin="round" stroke-linecap="butt" d="m15.1482935 334.5748l127.149605 0" fill-rule="evenodd"></path></g></svg>

