<?xml version="1.0" standalone="yes"?>

<svg version="1.1" viewBox="0.0 0.0 583.5275590551181 430.8871391076116" fill="none" stroke="none" stroke-linecap="square" stroke-miterlimit="10" xmlns="http://www.w3.org/2000/svg" xmlns:xlink="http://www.w3.org/1999/xlink"><clipPath id="p.0"><path d="m0 0l583.5276 0l0 430.88715l-583.5276 0l0 -430.88715z" clip-rule="nonzero"></path></clipPath><g clip-path="url(#p.0)"><path fill="#000000" fill-opacity="0.0" d="m0 0l583.5276 0l0 430.88715l-583.5276 0z" fill-rule="evenodd"></path><path fill="#000000" fill-opacity="0.0" d="m142.06824 65.7149l0 0c0 -27.295876 22.127686 -49.42356 49.42357 -49.42356l197.68831 0l0 0c13.107941 0 25.679016 5.2071114 34.947723 14.475826c9.268738 9.268717 14.47583 21.839792 14.47583 34.94773l0 295.48358c0 27.295868 -22.127686 49.423553 -49.423553 49.423553l-197.68831 0c-27.295883 0 -49.42357 -22.127686 -49.42357 -49.423553z" fill-rule="evenodd"></path><path stroke="#20124d" stroke-width="24.0" stroke-linejoin="round" stroke-linecap="butt" d="m142.06824 65.7149l0 0c0 -27.295876 22.127686 -49.42356 49.42357 -49.42356l197.68831 0l0 0c13.107941 0 25.679016 5.2071114 34.947723 14.475826c9.268738 9.268717 14.47583 21.839792 14.47583 34.94773l0 295.48358c0 27.295868 -22.127686 49.423553 -49.423553 49.423553l-197.68831 0c-27.295883 0 -49.42357 -22.127686 -49.42357 -49.423553z" fill-rule="evenodd"></path><path fill="#000000" fill-opacity="0.0" d="m8.744095 158.3952l127.14961 0" fill-rule="evenodd"></path><path stroke="#20124d" stroke-width="16.0" stroke-linejoin="round" stroke-linecap="butt" d="m8.744095 158.3952l127.14961 0" fill-rule="evenodd"></path><path fill="#000000" fill-opacity="0.0" d="m161.40552 153.62466l257.85828 0l0 65.35434l-257.85828 0z" fill-rule="evenodd"></path><path fill="#20124d" d="m214.74927 192.22092q0 3.125 -1.09375 6.109375q-1.09375 2.984375 -3.125 5.015625q-2.78125 2.75 -6.203125 4.15625q-3.421875 1.40625 -8.515625 1.40625l-7.46875 0l0 15.15625l-12.0 0l0 -46.53125l19.75 0q4.4375 0 7.484375 0.765625q3.046875 0.765625 5.390625 2.296875q2.8125 1.84375 4.296875 4.71875q1.484375 2.875 1.484375 6.90625zm-12.40625 0.28125q0 -1.96875 -1.0625 -3.390625q-1.0625 -1.421875 -2.46875 -1.984375q-1.875 -0.75 -3.65625 -0.828125q-1.78125 -0.078125 -4.75 -0.078125l-2.0625 0l0 13.9375l3.4375 0q3.0625 0 5.046875 -0.375q1.984375 -0.375 3.328125 -1.5q1.15625 -1.0 1.671875 -2.390625q0.515625 -1.390625 0.515625 -3.390625zm63.90625 31.5625l-12.40625 0l-3.21875 -9.40625l-17.25 0l-3.21875 9.40625l-12.09375 0l17.1875 -46.53125l13.8125 0l17.1875 46.53125zm-18.53125 -17.9375l-5.71875 -16.6875l-5.71875 16.6875l11.4375 0zm65.96875 1.09375q0 8.625 -5.25 13.21875q-5.25 4.59375 -15.46875 4.59375q-10.21875 0 -15.453125 -4.59375q-5.234375 -4.59375 -5.234375 -13.1875l0 -29.71875l12.0625 0l0 29.03125q0 4.84375 2.03125 7.21875q2.03125 2.375 6.59375 2.375q4.5 0 6.578125 -2.28125q2.078125 -2.28125 2.078125 -7.3125l0 -29.03125l12.0625 0l0 29.6875zm48.46875 2.21875q0 6.875 -5.828125 11.171875q-5.828125 4.296875 -15.828125 4.296875q-5.78125 0 -10.078125 -1.015625q-4.296875 -1.015625 -8.046875 -2.578125l0 -11.15625l1.3125 0q3.71875 2.96875 8.328125 4.5625q4.609375 1.59375 8.859375 1.59375q1.09375 0 2.875 -0.1875q1.78125 -0.1875 2.90625 -0.625q1.375 -0.5625 2.265625 -1.40625q0.890625 -0.84375 0.890625 -2.5q0 -1.53125 -1.296875 -2.640625q-1.296875 -1.109375 -3.796875 -1.703125q-2.625 -0.625 -5.546875 -1.171875q-2.921875 -0.546875 -5.484375 -1.390625q-5.875 -1.90625 -8.453125 -5.171875q-2.578125 -3.265625 -2.578125 -8.109375q0 -6.5 5.828125 -10.609375q5.828125 -4.109375 14.984375 -4.109375q4.59375 0 9.078125 0.890625q4.484375 0.890625 7.765625 2.234375l0 10.71875l-1.28125 0q-2.8125 -2.25 -6.890625 -3.765625q-4.078125 -1.515625 -8.328125 -1.515625q-1.5 0 -2.984375 0.203125q-1.484375 0.203125 -2.859375 0.765625q-1.21875 0.46875 -2.09375 1.421875q-0.875 0.953125 -0.875 2.171875q0 1.84375 1.40625 2.828125q1.40625 0.984375 5.3125 1.796875q2.5625 0.53125 4.921875 1.03125q2.359375 0.5 5.078125 1.375q5.34375 1.75 7.890625 4.765625q2.546875 3.015625 2.546875 7.828125zm41.875 14.625l-33.65625 0l0 -46.53125l33.65625 0l0 9.0l-21.71875 0l0 8.03125l20.15625 0l0 9.0l-20.15625 0l0 11.5l21.71875 0l0 9.0z" fill-rule="nonzero"></path><path fill="#000000" fill-opacity="0.0" d="m8.744095 55.868015l127.14961 0" fill-rule="evenodd"></path><path stroke="#20124d" stroke-width="16.0" stroke-linejoin="round" stroke-linecap="butt" d="m8.744095 55.868015l127.14961 0" fill-rule="evenodd"></path><path fill="#000000" fill-opacity="0.0" d="m8.744095 363.44955l127.14961 0" fill-rule="evenodd"></path><path stroke="#20124d" stroke-width="16.0" stroke-linejoin="round" stroke-linecap="butt" d="m8.744095 363.44955l127.14961 0" fill-rule="evenodd"></path><path fill="#000000" fill-opacity="0.0" d="m8.744095 260.9224l127.14961 0" fill-rule="evenodd"></path><path stroke="#20124d" stroke-width="16.0" stroke-linejoin="round" stroke-linecap="butt" d="m8.744095 260.9224l127.14961 0" fill-rule="evenodd"></path><path fill="#000000" fill-opacity="0.0" d="m449.27167 158.3952l127.1496 0" fill-rule="evenodd"></path><path stroke="#20124d" stroke-width="16.0" stroke-linejoin="round" stroke-linecap="butt" d="m449.27167 158.3952l127.1496 0" fill-rule="evenodd"></path><path fill="#000000" fill-opacity="0.0" d="m449.27167 55.868015l127.1496 0" fill-rule="evenodd"></path><path stroke="#20124d" stroke-width="16.0" stroke-linejoin="round" stroke-linecap="butt" d="m449.27167 55.868015l127.1496 0" fill-rule="evenodd"></path><path fill="#000000" fill-opacity="0.0" d="m449.27167 363.44955l127.1496 0" fill-rule="evenodd"></path><path stroke="#20124d" stroke-width="16.0" stroke-linejoin="round" stroke-linecap="butt" d="m449.27167 363.44955l127.1496 0" fill-rule="evenodd"></path><path fill="#000000" fill-opacity="0.0" d="m449.27167 260.9224l127.1496 0" fill-rule="evenodd"></path><path stroke="#20124d" stroke-width="16.0" stroke-linejoin="round" stroke-linecap="butt" d="m449.27167 260.9224l127.1496 0" fill-rule="evenodd"></path></g></svg>

