<?xml version="1.0" standalone="yes"?>

<svg version="1.1" viewBox="0.0 0.0 761.7060367454068 1143.5984251968505" fill="none" stroke="none" stroke-linecap="square" stroke-miterlimit="10" xmlns="http://www.w3.org/2000/svg" xmlns:xlink="http://www.w3.org/1999/xlink"><clipPath id="p.0"><path d="m0 0l761.70605 0l0 1143.5984l-761.70605 0l0 -1143.5984z" clip-rule="nonzero"></path></clipPath><g clip-path="url(#p.0)"><path fill="#000000" fill-opacity="0.0" d="m0 0l761.70605 0l0 1143.5984l-761.70605 0z" fill-rule="evenodd"></path><path fill="#ff0000" d="m257.90146 180.56696l378.1201 0l0 65.32033l-378.1201 0z" fill-rule="evenodd"></path><path stroke="#ff0000" stroke-width="1.0" stroke-linejoin="round" stroke-linecap="butt" d="m257.90146 180.56696l378.1201 0l0 65.32033l-378.1201 0z" fill-rule="evenodd"></path><path fill="#ff0000" d="m636.02155 180.6061l44.7406 32.620956l-44.7406 32.620956z" fill-rule="evenodd"></path><path stroke="#ff0000" stroke-width="1.0" stroke-linejoin="round" stroke-linecap="butt" d="m636.02155 180.6061l44.7406 32.620956l-44.7406 32.620956z" fill-rule="evenodd"></path><path fill="#ff0000" d="m257.90146 245.848l-44.74063 -32.620956l44.74063 -32.620956z" fill-rule="evenodd"></path><path stroke="#ff0000" stroke-width="1.0" stroke-linejoin="round" stroke-linecap="butt" d="m257.90146 245.848l-44.74063 -32.620956l44.74063 -32.620956z" fill-rule="evenodd"></path><path fill="#000000" fill-opacity="0.0" d="m32.58005 0l737.98425 0l0 163.30708l-737.98425 0z" fill-rule="evenodd"></path><path fill="#20124d" d="m133.20505 131.88l-26.437492 0l-20.9375 -37.6875l-9.6875 8.4375l-6.75 29.25l-24.125004 0l21.437504 -93.0625l24.125 0l-9.4375 41.0l42.0 -41.0l28.499992 0l-46.999992 43.3125l28.312492 49.75zm97.75 0l-24.1875 0l-2.125 -19.0l-34.25 0l-10.875 19.0l-25.0625 0l55.8125 -93.0625l27.75 0l12.9375 93.0625zm-28.125 -35.6875l-3.75 -33.4375l-19.1875 33.4375l22.9375 0zm130.8125 -39.375l-29.0 0l-17.3125 75.0625l-24.125 0l17.3125 -75.0625l-29.0 0l4.125 -18.0l82.125 0l-4.125 18.0zm99.9375 16.625q0 11.4375 -3.875 22.5q-3.875 11.0625 -11.25 19.3125q-8.0625 9.0 -18.8125 13.78125q-10.75 4.78125 -24.75 4.78125q-19.0625 0 -29.84375 -9.84375q-10.78125 -9.84375 -10.78125 -27.09375q0 -12.125 4.125 -23.0625q4.125 -10.9375 11.8125 -19.25q7.5 -8.0625 18.5625 -12.875q11.0625 -4.8125 24.125 -4.8125q19.125 0 29.90625 9.875q10.78125 9.875 10.78125 26.6875zm-34.3125 31.75q4.25 -5.5625 6.65625 -12.90625q2.40625 -7.34375 2.40625 -16.90625q0 -10.0 -4.78125 -15.65625q-4.78125 -5.65625 -13.65625 -5.65625q-5.8125 0 -11.09375 2.65625q-5.28125 2.65625 -9.71875 8.09375q-4.3125 5.1875 -6.9375 12.90625q-2.625 7.71875 -2.625 17.34375q0 10.6875 4.90625 16.125q4.90625 5.4375 13.59375 5.4375q6.0 0 11.5625 -2.96875q5.5625 -2.96875 9.6875 -8.46875zm140.37503 -30.0625q0 15.8125 -8.3125 29.1875q-8.3125 13.375 -21.31253 20.5q-7.875 4.25 -16.4375 5.65625q-8.5625 1.40625 -20.5 1.40625l-33.6875 0l21.5 -93.0625l30.125 0q13.3125 0 21.43753 2.0625q8.125 2.0625 13.125 5.5625q6.875 4.75 10.46875 11.84375q3.59375 7.09375 3.59375 16.84375zm-25.125 2.1875q0 -6.375 -2.375 -10.96875q-2.3750305 -4.59375 -7.2500305 -7.40625q-2.25 -1.25 -4.59375 -1.90625q-2.34375 -0.65625 -5.34375 -0.96875q-2.875 -0.25 -6.5625 -0.25q-3.6875 0 -6.4375 0l-0.8125 0l-13.75 59.0l2.1875 0q3.625 0 7.75 0q4.125 0 6.6875 -0.3125q3.3125 -0.3125 5.96875 -1.0q2.65625 -0.6875 5.84375 -2.3125q9.0 -4.625 13.84375 -13.8125q4.8437805 -9.1875 4.8437805 -20.0625zm134.125 -3.875q0 11.4375 -3.875 22.5q-3.875 11.0625 -11.25 19.3125q-8.0625 9.0 -18.8125 13.78125q-10.75 4.78125 -24.75 4.78125q-19.0625 0 -29.84375 -9.84375q-10.78125 -9.84375 -10.78125 -27.09375q0 -12.125 4.125 -23.0625q4.125 -10.9375 11.8125 -19.25q7.5 -8.0625 18.5625 -12.875q11.0625 -4.8125 24.125 -4.8125q19.125 0 29.90625 9.875q10.78125 9.875 10.78125 26.6875zm-34.3125 31.75q4.25 -5.5625 6.65625 -12.90625q2.40625 -7.34375 2.40625 -16.90625q0 -10.0 -4.78125 -15.65625q-4.78125 -5.65625 -13.65625 -5.65625q-5.8125 0 -11.09375 2.65625q-5.28125 2.65625 -9.71875 8.09375q-4.3125 5.1875 -6.9375 12.90625q-2.625 7.71875 -2.625 17.34375q0 10.6875 4.90625 16.125q4.90625 5.4375 13.59375 5.4375q6.0 0 11.5625 -2.96875q5.5625 -2.96875 9.6875 -8.46875zm127.125 26.6875l-24.1875 0l-2.125 -19.0l-34.25 0l-10.875 19.0l-25.0625 0l55.8125 -93.0625l27.75 0l12.9375 93.0625zm-28.125 -35.6875l-3.75 -33.4375l-19.1875 33.4375l22.9375 0z" fill-rule="nonzero"></path><path fill="#ff0000" d="m610.1575 1106.0511l0 0c0 -17.960083 15.5043335 -32.519653 34.629944 -32.519653l0 0c9.184387 0 17.992676 3.4261475 24.48706 9.52478c6.4943237 6.098633 10.142822 14.370117 10.142822 22.994873l0 0c0 17.960205 -15.5043335 32.519775 -34.629883 32.519775l0 0c-19.12561 0 -34.629944 -14.55957 -34.629944 -32.519775z" fill-rule="evenodd"></path><path stroke="#ff0000" stroke-width="1.0" stroke-linejoin="round" stroke-linecap="butt" d="m610.1575 1106.0511l0 0c0 -17.960083 15.5043335 -32.519653 34.629944 -32.519653l0 0c9.184387 0 17.992676 3.4261475 24.48706 9.52478c6.4943237 6.098633 10.142822 14.370117 10.142822 22.994873l0 0c0 17.960205 -15.5043335 32.519775 -34.629883 32.519775l0 0c-19.12561 0 -34.629944 -14.55957 -34.629944 -32.519775z" fill-rule="evenodd"></path><path fill="#ff0000" d="m185.80663 625.1814l378.12006 0l0 65.32031l-378.12006 0z" fill-rule="evenodd"></path><path stroke="#ff0000" stroke-width="1.0" stroke-linejoin="round" stroke-linecap="butt" d="m185.80663 625.1814l378.12006 0l0 65.32031l-378.12006 0z" fill-rule="evenodd"></path><path fill="#ff0000" d="m563.9267 625.2205l44.7406 32.62097l-44.7406 32.62091z" fill-rule="evenodd"></path><path stroke="#ff0000" stroke-width="1.0" stroke-linejoin="round" stroke-linecap="butt" d="m563.9267 625.2205l44.7406 32.62097l-44.7406 32.62091z" fill-rule="evenodd"></path><path fill="#ff0000" d="m185.80663 690.4624l-44.74063 -32.62091l44.74063 -32.62097z" fill-rule="evenodd"></path><path stroke="#ff0000" stroke-width="1.0" stroke-linejoin="round" stroke-linecap="butt" d="m185.80663 690.4624l-44.74063 -32.62091l44.74063 -32.62097z" fill-rule="evenodd"></path><path fill="#ff0000" d="m230.39992 266.17114l-55.36656 352.7539l-64.257744 -10.08783l55.366554 -352.7539z" fill-rule="evenodd"></path><path stroke="#ff0000" stroke-width="1.0" stroke-linejoin="round" stroke-linecap="butt" d="m230.39992 266.17114l-55.36656 352.7539l-64.257744 -10.08783l55.366554 -352.7539z" fill-rule="evenodd"></path><path fill="#ff0000" d="m174.99486 618.919l-38.641495 36.701355l-25.539116 -46.7771z" fill-rule="evenodd"></path><path stroke="#ff0000" stroke-width="1.0" stroke-linejoin="round" stroke-linecap="butt" d="m174.99486 618.919l-38.641495 36.701355l-25.539116 -46.7771z" fill-rule="evenodd"></path><path fill="#ff0000" d="m166.1808 256.0894l38.64148 -36.70134l25.539124 46.777054z" fill-rule="evenodd"></path><path stroke="#ff0000" stroke-width="1.0" stroke-linejoin="round" stroke-linecap="butt" d="m166.1808 256.0894l38.64148 -36.70134l25.539124 46.777054z" fill-rule="evenodd"></path><path fill="#ff0000" d="m704.59937 266.17114l-55.366516 352.7539l-64.25775 -10.08783l55.366516 -352.7539z" fill-rule="evenodd"></path><path stroke="#ff0000" stroke-width="1.0" stroke-linejoin="round" stroke-linecap="butt" d="m704.59937 266.17114l-55.366516 352.7539l-64.25775 -10.08783l55.366516 -352.7539z" fill-rule="evenodd"></path><path fill="#ff0000" d="m649.19434 618.919l-38.64148 36.701355l-25.539124 -46.7771z" fill-rule="evenodd"></path><path stroke="#ff0000" stroke-width="1.0" stroke-linejoin="round" stroke-linecap="butt" d="m649.19434 618.919l-38.64148 36.701355l-25.539124 -46.7771z" fill-rule="evenodd"></path><path fill="#ff0000" d="m640.38025 256.0894l38.64154 -36.70134l25.539124 46.777054z" fill-rule="evenodd"></path><path stroke="#ff0000" stroke-width="1.0" stroke-linejoin="round" stroke-linecap="butt" d="m640.38025 256.0894l38.64154 -36.70134l25.539124 46.777054z" fill-rule="evenodd"></path><path fill="#ff0000" d="m109.93735 1073.391l378.12006 0l0 65.32031l-378.12006 0z" fill-rule="evenodd"></path><path stroke="#ff0000" stroke-width="1.0" stroke-linejoin="round" stroke-linecap="butt" d="m109.93735 1073.391l378.12006 0l0 65.32031l-378.12006 0z" fill-rule="evenodd"></path><path fill="#ff0000" d="m488.0574 1073.4302l44.74063 32.62097l-44.74063 32.62085z" fill-rule="evenodd"></path><path stroke="#ff0000" stroke-width="1.0" stroke-linejoin="round" stroke-linecap="butt" d="m488.0574 1073.4302l44.74063 32.62097l-44.74063 32.62085z" fill-rule="evenodd"></path><path fill="#ff0000" d="m109.93735 1138.672l-44.740623 -32.62085l44.740623 -32.62097z" fill-rule="evenodd"></path><path stroke="#ff0000" stroke-width="1.0" stroke-linejoin="round" stroke-linecap="butt" d="m109.93735 1138.672l-44.740623 -32.62085l44.740623 -32.62097z" fill-rule="evenodd"></path><path fill="#ff0000" d="m158.75424 712.49133l-55.366554 352.7539l-64.25775 -10.087769l55.36655 -352.75397z" fill-rule="evenodd"></path><path stroke="#ff0000" stroke-width="1.0" stroke-linejoin="round" stroke-linecap="butt" d="m158.75424 712.49133l-55.366554 352.7539l-64.25775 -10.087769l55.36655 -352.75397z" fill-rule="evenodd"></path><path fill="#ff0000" d="m103.34919 1065.2393l-38.641495 36.701294l-25.53912 -46.7771z" fill-rule="evenodd"></path><path stroke="#ff0000" stroke-width="1.0" stroke-linejoin="round" stroke-linecap="butt" d="m103.34919 1065.2393l-38.641495 36.701294l-25.53912 -46.7771z" fill-rule="evenodd"></path><path fill="#ff0000" d="m94.535126 702.4096l38.641495 -36.701355l25.539124 46.77704z" fill-rule="evenodd"></path><path stroke="#ff0000" stroke-width="1.0" stroke-linejoin="round" stroke-linecap="butt" d="m94.535126 702.4096l38.641495 -36.701355l25.539124 46.77704z" fill-rule="evenodd"></path><path fill="#ff0000" d="m632.95374 712.49133l-55.366577 352.7539l-64.25775 -10.087769l55.366577 -352.75397z" fill-rule="evenodd"></path><path stroke="#ff0000" stroke-width="1.0" stroke-linejoin="round" stroke-linecap="butt" d="m632.95374 712.49133l-55.366577 352.7539l-64.25775 -10.087769l55.366577 -352.75397z" fill-rule="evenodd"></path><path fill="#ff0000" d="m577.54865 1065.2393l-38.64148 36.701294l-25.539124 -46.7771z" fill-rule="evenodd"></path><path stroke="#ff0000" stroke-width="1.0" stroke-linejoin="round" stroke-linecap="butt" d="m577.54865 1065.2393l-38.64148 36.701294l-25.539124 -46.7771z" fill-rule="evenodd"></path><path fill="#ff0000" d="m568.7346 702.4096l38.64148 -36.701355l25.539124 46.77704z" fill-rule="evenodd"></path><path stroke="#ff0000" stroke-width="1.0" stroke-linejoin="round" stroke-linecap="butt" d="m568.7346 702.4096l38.64148 -36.701355l25.539124 46.77704z" fill-rule="evenodd"></path></g></svg>

