<?xml version="1.0" encoding="iso-8859-1"?>
<!-- Generator: Adobe Illustrator 16.0.0, SVG Export Plug-In . SVG Version: 6.00 Build 0)  -->
<!DOCTYPE svg PUBLIC "-//W3C//DTD SVG 1.1//EN" "http://www.w3.org/Graphics/SVG/1.1/DTD/svg11.dtd">
<svg version="1.1" id="Capa_1" xmlns="http://www.w3.org/2000/svg" xmlns:xlink="http://www.w3.org/1999/xlink" x="0px" y="0px"
	 width="572.412px" height="572.412px" viewBox="0 0 572.412 572.412" style="enable-background:new 0 0 572.412 572.412;"
	 xml:space="preserve">
<g>
	<g>
		<path d="M363.719,70.797c-4.531,0-9.209,0.315-14.545,0.995c-22.787-34.282-60.598-54.65-101.725-54.65
			c-65.159,0-118.948,51.781-122.046,116.366c-1.052-0.057-2.113-0.096-3.174-0.096C54.832,133.412,0,188.244,0,255.64
			c0,30.562,11.332,59.669,31.967,82.275c-4.398,13.809-6.627,27.99-6.627,42.199c0,76.855,62.529,139.375,139.374,139.375
			c19.613,0,38.69-4.113,56.763-12.213c25.35,30.543,62.319,47.994,101.994,47.994c65.445,0,121.129-48.041,131.006-112.359
			c66.432-5.258,117.936-60.625,117.936-127.629c0-55.167-34.607-103.448-86.475-121.234c0.01-0.334,0.02-0.66,0.02-0.994
			C485.957,125.638,431.115,70.797,363.719,70.797z M101.668,286.345c2.343-62.5,28.324-107.033,77.255-132.622
			c38.25-20.005,78.919-21.554,90.48-21.554c2.276,0,3.509,0.058,3.509,0.058c1.32,0.057,2.391,1.071,2.544,2.381
			c0.143,1.31-0.679,2.534-1.951,2.878c-28.897,7.927-53.014,44.322-53.253,44.686c-33.191,47.631-28.506,88.683-18.733,114.75
			c16.39,43.74,57.595,74.779,89.82,82.84c9.984,2.496,20.158,3.758,30.246,3.758c30.295,0,53.379-11.436,63.238-16.312
			c3.891-1.932,5.498-2.727,6.875-2.727c1.482,0,3.031,1.492,3.031,2.975c0,5.012-28.143,52.738-67.291,68.086
			c-17.797,7.688-40.45,11.943-63.706,11.943C189.691,447.464,108.238,405.14,101.668,286.345z M343.17,113.799
			c-0.02-1.271,0.688-2.438,1.826-3.021c1.129-0.574,2.496-0.459,3.52,0.296l24.613,18.37l29.09-9.859
			c1.195-0.421,2.543-0.105,3.432,0.803c0.898,0.899,1.215,2.228,0.803,3.433l-9.857,29.089l18.369,24.614
			c0.766,1.014,0.879,2.381,0.297,3.519c-0.584,1.138-1.904,1.683-3.021,1.827l-30.715-0.392l-17.73,25.083
			c-0.631,0.889-1.654,1.405-2.734,1.405c-0.172,0-0.354-0.009-0.525-0.038c-1.254-0.201-2.295-1.09-2.668-2.305l-9.113-29.328
			l-29.328-9.123c-1.215-0.382-2.113-1.416-2.305-2.668c-0.201-1.252,0.334-2.515,1.367-3.251l25.082-17.729L343.17,113.799z
			 M274.826,256.74c-0.01-0.727,0.392-1.396,1.042-1.731c0.66-0.334,1.434-0.258,2.008,0.172l14.067,10.5l16.619-5.642
			c0.689-0.22,1.453-0.057,1.971,0.459c0.516,0.517,0.697,1.272,0.459,1.96l-5.643,16.629l10.5,14.066
			c0.43,0.584,0.506,1.367,0.172,2.008s-1.148,1.072-1.73,1.043l-17.557-0.221l-10.137,14.336c-0.363,0.516-0.947,0.803-1.559,0.803
			c-0.096,0-0.201,0-0.296-0.02c-0.717-0.115-1.31-0.621-1.53-1.32l-5.211-16.762l-16.753-5.203c-0.688-0.21-1.205-0.803-1.32-1.529
			c-0.115-0.717,0.191-1.435,0.784-1.855l14.334-10.136L274.826,256.74z M392.301,329.778c-0.506,0.717-1.328,1.139-2.189,1.139
			c-0.143,0-0.277-0.01-0.42-0.029c-1.004-0.162-1.836-0.881-2.143-1.855l-7.297-23.494l-23.494-7.297
			c-0.975-0.307-1.693-1.139-1.855-2.143s0.268-2.018,1.1-2.601l20.092-14.2l-0.316-24.595c-0.01-1.014,0.555-1.96,1.463-2.419
			c0.898-0.459,1.998-0.363,2.812,0.239l19.707,14.717l23.305-7.898c0.947-0.344,2.027-0.086,2.754,0.641
			c0.717,0.727,0.965,1.788,0.641,2.754l-7.898,23.304l14.717,19.718c0.602,0.812,0.697,1.912,0.238,2.812
			c-0.459,0.908-1.377,1.473-2.42,1.463l-24.594-0.326L392.301,329.778z"/>
	</g>
</g>
<g>
</g>
<g>
</g>
<g>
</g>
<g>
</g>
<g>
</g>
<g>
</g>
<g>
</g>
<g>
</g>
<g>
</g>
<g>
</g>
<g>
</g>
<g>
</g>
<g>
</g>
<g>
</g>
<g>
</g>
</svg>
