<?xml version="1.0" standalone="yes"?>

<svg version="1.1" viewBox="0.0 0.0 505.83727034120733 444.0236220472441" fill="none" stroke="none" stroke-linecap="square" stroke-miterlimit="10" xmlns="http://www.w3.org/2000/svg" xmlns:xlink="http://www.w3.org/1999/xlink"><clipPath id="p.0"><path d="m0 0l505.83728 0l0 444.02362l-505.83728 0l0 -444.02362z" clip-rule="nonzero"></path></clipPath><g clip-path="url(#p.0)"><path fill="#000000" fill-opacity="0.0" d="m0 0l505.83728 0l0 444.02362l-505.83728 0z" fill-rule="evenodd"></path><path fill="#000000" fill-opacity="0.0" d="m0 241.49081l500.6614 2.3937073" fill-rule="evenodd"></path><path stroke="#4c1130" stroke-width="12.0" stroke-linejoin="round" stroke-linecap="butt" d="m0 241.49081l500.6614 2.3937073" fill-rule="evenodd"></path><path fill="#000000" fill-opacity="0.0" d="m9.538057 242.68147c10.529747 -37.15222 40.13211 -254.70166 63.178482 -222.91338c23.046364 31.788275 53.046806 403.3119 75.09973 413.64304c22.052933 10.331146 40.529312 -343.90768 57.21785 -351.65616c16.688538 -7.748474 27.615494 294.8342 42.91339 305.16534c15.297882 10.331146 35.363953 -232.84732 48.874023 -243.17847c13.51004 -10.331146 20.464111 174.43655 32.18634 181.19159c11.722229 6.7550354 28.412079 -135.49562 38.146973 -140.6614c9.734924 -5.1657867 11.520996 103.90506 20.262482 109.66666c8.741455 5.7615967 24.437866 -71.918625 32.18634 -75.09711c7.748474 -3.178482 9.138672 52.052948 14.304474 56.026245c5.1657715 3.9733276 13.908569 -26.82196 16.690277 -32.186356" fill-rule="evenodd"></path><path stroke="#0c343d" stroke-width="16.0" stroke-linejoin="round" stroke-linecap="butt" d="m9.538057 242.68147c10.529747 -37.15222 40.13211 -254.70166 63.178482 -222.91338c23.046364 31.788275 53.046806 403.3119 75.09973 413.64304c22.052933 10.331146 40.529312 -343.90768 57.21785 -351.65616c16.688538 -7.748474 27.615494 294.8342 42.91339 305.16534c15.297882 10.331146 35.363953 -232.84732 48.874023 -243.17847c13.51004 -10.331146 20.464111 174.43655 32.18634 181.19159c11.722229 6.7550354 28.412079 -135.49562 38.146973 -140.6614c9.734924 -5.1657867 11.520996 103.90506 20.262482 109.66666c8.741455 5.7615967 24.437866 -71.918625 32.18634 -75.09711c7.748474 -3.178482 9.138672 52.052948 14.304474 56.026245c5.1657715 3.9733276 13.908569 -26.82196 16.690277 -32.186356" fill-rule="evenodd"></path><path fill="#000000" fill-opacity="0.0" d="m321.0656 0l405.7638 0l0 47.33858l-405.7638 0z" fill-rule="evenodd"></path><path fill="#134f5c" d="m388.6281 30.692505l-9.1875 44.75l13.875 56.4375l-24.375 0q-4.375 -15.125 -8.0 -36.8125q-1.0 9.5625 -2.75 20.3125l-2.5 16.5l-25.625 0l9.5 -56.4375l-9.5 -44.75l25.4375 0q0.6875 4.1875 2.75 13.9375q1.625 7.4375 2.6875 13.625l5.625 -27.5625l22.0625 0zm77.6875 43.875q5.75 1.9375 8.5625 6.34375q2.8125 4.40625 2.8125 20.65625q0 12.0625 -2.75 18.71875q-2.75 6.65625 -9.5 10.125q-6.75 3.46875 -17.3125 3.46875q-12.0 0 -18.84375 -4.03125q-6.84375 -4.03125 -9.0 -9.875q-2.15625 -5.84375 -2.15625 -20.28125l0 -8.0l25.25 0l0 16.4375q0 6.5625 0.78125 8.34375q0.78125 1.78125 3.46875 1.78125q2.9375 0 3.875 -2.25q0.9375 -2.25 0.9375 -11.75l0 -7.0q0 -5.8125 -1.3125 -8.5q-1.3125 -2.6875 -3.875 -3.53125q-2.5625 -0.84375 -9.9375 -0.96875l0 -14.6875q9.0 0 11.125 -0.6875q2.125 -0.6875 3.0625 -3.0q0.9375 -2.3125 0.9375 -7.25l0 -5.625q0 -5.3125 -1.09375 -7.0q-1.09375 -1.6875 -3.40625 -1.6875q-2.625 0 -3.59375 1.78125q-0.96875 1.78125 -0.96875 7.59375l0 8.3125l-25.25 0l0 -8.625q0 -14.5 6.625 -19.59375q6.625 -5.09375 21.0625 -5.09375q18.0625 0 24.5 7.0625q6.4375 7.0625 6.4375 19.625q0 8.5 -2.3125 12.28125q-2.3125 3.78125 -8.125 6.90625z" fill-rule="nonzero"></path></g></svg>

