<?xml version="1.0" standalone="yes"?>

<svg version="1.1" viewBox="0.0 0.0 505.83727034120733 444.0236220472441" fill="none" stroke="none" stroke-linecap="square" stroke-miterlimit="10" xmlns="http://www.w3.org/2000/svg" xmlns:xlink="http://www.w3.org/1999/xlink"><clipPath id="p.0"><path d="m0 0l505.83728 0l0 444.02362l-505.83728 0l0 -444.02362z" clip-rule="nonzero"></path></clipPath><g clip-path="url(#p.0)"><path fill="#000000" fill-opacity="0.0" d="m0 0l505.83728 0l0 444.02362l-505.83728 0z" fill-rule="evenodd"></path><path fill="#000000" fill-opacity="0.0" d="m0 241.49081l500.6614 2.3937073" fill-rule="evenodd"></path><path stroke="#4c1130" stroke-width="12.0" stroke-linejoin="round" stroke-linecap="butt" d="m0 241.49081l500.6614 2.3937073" fill-rule="evenodd"></path><path fill="#000000" fill-opacity="0.0" d="m9.538057 242.68147c10.529747 -37.15222 40.13211 -254.70166 63.178482 -222.91338c23.046364 31.788275 53.046806 403.3119 75.09973 413.64304c22.052933 10.331146 40.529312 -343.90768 57.21785 -351.65616c16.688538 -7.748474 27.615494 294.8342 42.91339 305.16534c15.297882 10.331146 35.363953 -232.84732 48.874023 -243.17847c13.51004 -10.331146 20.464111 174.43655 32.18634 181.19159c11.722229 6.7550354 28.412079 -135.49562 38.146973 -140.6614c9.734924 -5.1657867 11.520996 103.90506 20.262482 109.66666c8.741455 5.7615967 24.437866 -71.918625 32.18634 -75.09711c7.748474 -3.178482 9.138672 52.052948 14.304474 56.026245c5.1657715 3.9733276 13.908569 -26.82196 16.690277 -32.186356" fill-rule="evenodd"></path><path stroke="#0c343d" stroke-width="16.0" stroke-linejoin="round" stroke-linecap="butt" d="m9.538057 242.68147c10.529747 -37.15222 40.13211 -254.70166 63.178482 -222.91338c23.046364 31.788275 53.046806 403.3119 75.09973 413.64304c22.052933 10.331146 40.529312 -343.90768 57.21785 -351.65616c16.688538 -7.748474 27.615494 294.8342 42.91339 305.16534c15.297882 10.331146 35.363953 -232.84732 48.874023 -243.17847c13.51004 -10.331146 20.464111 174.43655 32.18634 181.19159c11.722229 6.7550354 28.412079 -135.49562 38.146973 -140.6614c9.734924 -5.1657867 11.520996 103.90506 20.262482 109.66666c8.741455 5.7615967 24.437866 -71.918625 32.18634 -75.09711c7.748474 -3.178482 9.138672 52.052948 14.304474 56.026245c5.1657715 3.9733276 13.908569 -26.82196 16.690277 -32.186356" fill-rule="evenodd"></path><path fill="#000000" fill-opacity="0.0" d="m321.0656 0l405.7638 0l0 47.33858l-405.7638 0z" fill-rule="evenodd"></path><path fill="#134f5c" d="m388.6281 30.692505l-9.1875 44.75l13.875 56.4375l-24.375 0q-4.375 -15.125 -8.0 -36.8125q-1.0 9.5625 -2.75 20.3125l-2.5 16.5l-25.625 0l9.5 -56.4375l-9.5 -44.75l25.4375 0q0.6875 4.1875 2.75 13.9375q1.625 7.4375 2.6875 13.625l5.625 -27.5625l22.0625 0zm69.1875 0l0 101.1875l-25.25 0l0 -54.25q0 -11.75 -0.5625 -14.125q-0.5625 -2.375 -3.09375 -3.59375q-2.53125 -1.21875 -11.28125 -1.21875l-2.5 0l0 -11.8125q18.3125 -3.9375 27.8125 -16.1875l14.875 0z" fill-rule="nonzero"></path></g></svg>

