<?xml version="1.0" standalone="yes"?>

<svg version="1.1" viewBox="0.0 0.0 499.84514435695536 355.84514435695536" fill="none" stroke="none" stroke-linecap="square" stroke-miterlimit="10" xmlns="http://www.w3.org/2000/svg" xmlns:xlink="http://www.w3.org/1999/xlink"><clipPath id="p.0"><path d="m0 0l499.84515 0l0 355.84515l-499.84515 0l0 -355.84515z" clip-rule="nonzero"></path></clipPath><g clip-path="url(#p.0)"><path fill="#000000" fill-opacity="0.0" d="m0 0l499.84515 0l0 355.84515l-499.84515 0z" fill-rule="evenodd"></path><defs><linearGradient id="p.1" gradientUnits="userSpaceOnUse" gradientTransform="matrix(6.760449588749751 0.0 0.0 6.760449588749751 0.0 0.0)" spreadMethod="pad" x1="19.559196452587866" y1="44.93739869642728" x2="19.559172187634392" y2="51.69784828513349"><stop offset="0.0" stop-color="#4d4d4d"></stop><stop offset="1.0" stop-color="#000000"></stop></linearGradient></defs><path fill="url(#p.1)" d="m139.84792 303.7979l225.67949 0c2.0201416 0 3.95755 0.80249023 5.3859863 2.2309265c1.4284668 1.4284668 2.230957 3.3658752 2.230957 5.386017l0 38.08383c0 0.0010986328 -8.8500977E-4 0.0020141602 -0.0019836426 0.0020141602l-240.91139 -0.0020141602l0 0c-0.0011138916 0 -0.0020141602 -8.8500977E-4 -0.0020141602 -0.0020141602l0.0020141602 -38.081818l0 0c0 -4.206726 3.4102173 -7.6169434 7.6169434 -7.6169434z" fill-rule="evenodd"></path><defs><linearGradient id="p.2" gradientUnits="userSpaceOnUse" gradientTransform="matrix(5.128345764699774 0.0 0.0 5.128345764699774 0.0 0.0)" spreadMethod="pad" x1="30.10185164866918" y1="54.11062021021127" x2="30.101833655806317" y2="59.23896597487948"><stop offset="0.0" stop-color="#4e29aa"></stop><stop offset="1.0" stop-color="#1e123d"></stop></linearGradient></defs><path fill="url(#p.2)" d="m154.3727 281.882l0 0c0 -2.4208374 1.9624786 -4.383301 4.383301 -4.383301l187.86333 0c1.1625366 0 2.2774353 0.4618225 3.0994568 1.283844c0.8220215 0.8220215 1.283844 1.9369202 1.283844 3.0994568l0 17.532623c0 2.4208374 -1.9624634 4.383301 -4.383301 4.383301l-187.86333 0l0 0c-2.4208221 0 -4.383301 -1.9624634 -4.383301 -4.383301z" fill-rule="evenodd"></path><defs><linearGradient id="p.3" gradientUnits="userSpaceOnUse" gradientTransform="matrix(0.0 -10.9760115955382 -10.9760115955382 0.0 0.0 0.0)" spreadMethod="pad" x1="-25.282288128854248" y1="-28.5098345050381" x2="-25.282327360794966" y2="-17.533822909570013"><stop offset="0.0" stop-color="#4e29aa"></stop><stop offset="1.0" stop-color="#1e123d"></stop></linearGradient></defs><path fill="url(#p.3)" d="m312.9239 277.4987l0 -54.0l0 0c0 -29.82338 -26.968689 -54.0 -60.23622 -54.0c-33.267548 0 -60.23622 24.17662 -60.23622 54.0l0 54.0z" fill-rule="evenodd"></path><path stroke="#5b4595" stroke-width="1.0" stroke-linejoin="round" stroke-linecap="butt" d="m312.9239 277.4987l0 -54.0l0 0c0 -29.82338 -26.968689 -54.0 -60.23622 -54.0c-33.267548 0 -60.23622 24.17662 -60.23622 54.0l0 54.0z" fill-rule="evenodd"></path><path fill="#000000" fill-opacity="0.0" d="m153.69029 242.93701l-114.23622 -0.06300354" fill-rule="evenodd"></path><path stroke="#5b4595" stroke-width="8.0" stroke-linejoin="round" stroke-linecap="butt" d="m153.69029 242.93701l-114.23622 -0.06300354" fill-rule="evenodd"></path><path fill="#000000" fill-opacity="0.0" d="m251.46194 143.19948l-0.15748596 -135.71654" fill-rule="evenodd"></path><path stroke="#5b4595" stroke-width="8.0" stroke-linejoin="round" stroke-linecap="butt" d="m251.46194 143.19948l-0.15748596 -135.71654" fill-rule="evenodd"></path><path fill="#000000" fill-opacity="0.0" d="m24.23097 108.56693l139.08661 73.385826" fill-rule="evenodd"></path><path stroke="#5b4595" stroke-width="8.0" stroke-linejoin="round" stroke-linecap="butt" d="m24.23097 108.56693l139.08661 73.385826" fill-rule="evenodd"></path><path fill="#000000" fill-opacity="0.0" d="m11.9868765 242.88977l14.9921255 -0.0315094" fill-rule="evenodd"></path><path stroke="#5b4595" stroke-width="8.0" stroke-linejoin="round" stroke-linecap="butt" d="m11.9868765 242.88977l14.9921255 -0.0315094" fill-rule="evenodd"></path><path fill="#000000" fill-opacity="0.0" d="m481.14435 108.56431l-139.08661 73.385826" fill-rule="evenodd"></path><path stroke="#5b4595" stroke-width="8.0" stroke-linejoin="round" stroke-linecap="butt" d="m481.14435 108.56431l-139.08661 73.385826" fill-rule="evenodd"></path><path fill="#000000" fill-opacity="0.0" d="m345.75592 242.91339l114.236206 -0.06300354" fill-rule="evenodd"></path><path stroke="#5b4595" stroke-width="8.0" stroke-linejoin="round" stroke-linecap="butt" d="m345.75592 242.91339l114.236206 -0.06300354" fill-rule="evenodd"></path><path fill="#000000" fill-opacity="0.0" d="m487.45932 242.86613l-14.992126 -0.03149414" fill-rule="evenodd"></path><path stroke="#5b4595" stroke-width="8.0" stroke-linejoin="round" stroke-linecap="butt" d="m487.45932 242.86613l-14.992126 -0.03149414" fill-rule="evenodd"></path><path fill="#000000" fill-opacity="0.0" d="m196.86784 146.67894l-69.77132 -90.45647" fill-rule="evenodd"></path><path stroke="#5b4595" stroke-width="8.0" stroke-linejoin="round" stroke-linecap="butt" d="m196.86784 146.67894l-69.77132 -90.45647" fill-rule="evenodd"></path><path fill="#000000" fill-opacity="0.0" d="m110.29611 34.491817l9.188118 11.847015" fill-rule="evenodd"></path><path stroke="#5b4595" stroke-width="8.0" stroke-linejoin="round" stroke-linecap="butt" d="m110.29611 34.491817l9.188118 11.847015" fill-rule="evenodd"></path><path fill="#000000" fill-opacity="0.0" d="m305.89847 146.67894l69.77133 -90.45647" fill-rule="evenodd"></path><path stroke="#5b4595" stroke-width="8.0" stroke-linejoin="round" stroke-linecap="butt" d="m305.89847 146.67894l69.77133 -90.45647" fill-rule="evenodd"></path><path fill="#000000" fill-opacity="0.0" d="m392.4702 34.491817l-9.188141 11.847015" fill-rule="evenodd"></path><path stroke="#5b4595" stroke-width="8.0" stroke-linejoin="round" stroke-linecap="butt" d="m392.4702 34.491817l-9.188141 11.847015" fill-rule="evenodd"></path><path fill="#000000" fill-opacity="0.0" d="m378.6929 211.82164l291.55905 0l0 105.03938l-291.55905 0z" fill-rule="evenodd"></path><path fill="#351c75" d="m414.1304 330.88913l28.0625 0q2.3125 -1.875 4.375 -1.875q2.9375 0 4.65625 1.9375q1.71875 1.9375 1.71875 6.625l0 6.125l-58.375 0l0 -13.5625q34.625 -28.5625 41.8125 -36.75q3.625 -4.1875 3.625 -7.9375q0 -4.6875 -4.09375 -8.28125q-4.09375 -3.59375 -10.90625 -3.59375q-6.875 0 -11.4375 4.0q-2.375 2.125 -3.8125 6.3125q-0.875 2.625 -2.40625 3.75q-1.53125 1.125 -3.78125 1.125q-2.625 0 -4.53125 -1.875q-1.90625 -1.875 -1.90625 -4.375q0 -3.75 3.46875 -9.375q3.46875 -5.625 10.125 -9.0q6.65625 -3.375 14.46875 -3.375q12.125 0 19.875 7.34375q7.75 7.34375 7.75 17.78125q0 5.3125 -2.21875 9.84375q-2.21875 4.53125 -10.65625 12.53125q-6.625 6.3125 -25.8125 22.625z" fill-rule="nonzero"></path></g></svg>

